G75*
%MOIN*%
%OFA0B0*%
%FSLAX24Y24*%
%IPPOS*%
%LPD*%
%AMOC8*
5,1,8,0,0,1.08239X$1,22.5*
%
%ADD10C,0.0070*%
%ADD11C,0.0040*%
%ADD12C,0.0030*%
%ADD13C,0.0050*%
%ADD14C,0.0157*%
%ADD15C,0.0080*%
%ADD16C,0.0010*%
%ADD17C,0.0020*%
%ADD18C,0.0060*%
%ADD19R,0.0079X0.0079*%
%ADD20C,0.0100*%
D10*
X007150Y002708D02*
X007045Y002813D01*
X007150Y002708D02*
X007360Y002708D01*
X007465Y002813D01*
X007465Y002918D01*
X007360Y003023D01*
X007150Y003023D01*
X007045Y003128D01*
X007045Y003233D01*
X007150Y003338D01*
X007360Y003338D01*
X007465Y003233D01*
X007689Y003128D02*
X007689Y002813D01*
X007794Y002708D01*
X008109Y002708D01*
X008109Y003128D01*
X008334Y003128D02*
X008334Y002498D01*
X008334Y002708D02*
X008649Y002708D01*
X008754Y002813D01*
X008754Y003023D01*
X008649Y003128D01*
X008334Y003128D01*
X008334Y003708D02*
X008334Y004128D01*
X008544Y004128D02*
X008649Y004128D01*
X008544Y004128D02*
X008334Y003918D01*
X008109Y003813D02*
X008004Y003708D01*
X007689Y003708D01*
X007689Y003498D02*
X007689Y004128D01*
X008004Y004128D01*
X008109Y004023D01*
X008109Y003813D01*
X007465Y003813D02*
X007465Y003918D01*
X007360Y004023D01*
X007150Y004023D01*
X007045Y004128D01*
X007045Y004233D01*
X007150Y004338D01*
X007360Y004338D01*
X007465Y004233D01*
X007465Y003813D02*
X007360Y003708D01*
X007150Y003708D01*
X007045Y003813D01*
X007255Y004708D02*
X007255Y005338D01*
X007045Y005338D02*
X007465Y005338D01*
X007689Y005023D02*
X007794Y005128D01*
X008004Y005128D01*
X008109Y005023D01*
X008109Y004918D01*
X007689Y004918D01*
X007689Y004813D02*
X007689Y005023D01*
X007689Y004813D02*
X007794Y004708D01*
X008004Y004708D01*
X008334Y004813D02*
X008439Y004708D01*
X008754Y004708D01*
X008978Y004708D02*
X008978Y005338D01*
X009083Y005128D02*
X009293Y005128D01*
X009399Y005023D01*
X009399Y004708D01*
X009623Y004708D02*
X009623Y005128D01*
X009938Y005128D01*
X010043Y005023D01*
X010043Y004708D01*
X010267Y004708D02*
X010477Y004708D01*
X010372Y004708D02*
X010372Y005128D01*
X010267Y005128D01*
X010372Y005338D02*
X010372Y005443D01*
X010697Y005023D02*
X010697Y004813D01*
X010802Y004708D01*
X011012Y004708D01*
X011117Y004813D01*
X011117Y005023D01*
X011012Y005128D01*
X010802Y005128D01*
X010697Y005023D01*
X011342Y005128D02*
X011342Y004708D01*
X011339Y004338D02*
X011234Y004233D01*
X011339Y004338D02*
X011549Y004338D01*
X011654Y004233D01*
X011654Y004128D01*
X011234Y003708D01*
X011654Y003708D01*
X011879Y003813D02*
X011879Y004233D01*
X011984Y004338D01*
X012194Y004338D01*
X012299Y004233D01*
X011879Y003813D01*
X011984Y003708D01*
X012194Y003708D01*
X012299Y003813D01*
X012299Y004233D01*
X012523Y004128D02*
X012733Y004338D01*
X012733Y003708D01*
X012523Y003708D02*
X012944Y003708D01*
X013168Y003813D02*
X013273Y003708D01*
X013483Y003708D01*
X013588Y003813D01*
X013588Y003918D01*
X013483Y004023D01*
X013168Y004023D01*
X013168Y003813D01*
X013168Y004023D02*
X013378Y004233D01*
X013588Y004338D01*
X013696Y004708D02*
X013275Y004708D01*
X013275Y005338D01*
X013696Y005338D01*
X013485Y005023D02*
X013275Y005023D01*
X013051Y004708D02*
X012631Y004708D01*
X012631Y005338D01*
X013051Y005338D01*
X012841Y005023D02*
X012631Y005023D01*
X012406Y005023D02*
X011986Y005023D01*
X011762Y005023D02*
X011762Y004708D01*
X011762Y005023D02*
X011657Y005128D01*
X011342Y005128D01*
X011010Y004023D02*
X010590Y004023D01*
X010365Y004128D02*
X010365Y003603D01*
X010260Y003498D01*
X010155Y003498D01*
X010050Y003708D02*
X010365Y003708D01*
X010050Y003708D02*
X009945Y003813D01*
X009945Y004023D01*
X010050Y004128D01*
X010365Y004128D01*
X009721Y004023D02*
X009721Y003708D01*
X009721Y004023D02*
X009616Y004128D01*
X009300Y004128D01*
X009300Y003708D01*
X009081Y003708D02*
X008871Y003708D01*
X008976Y003708D02*
X008976Y004128D01*
X008871Y004128D01*
X008976Y004338D02*
X008976Y004443D01*
X008978Y005023D02*
X009083Y005128D01*
X008754Y005128D02*
X008439Y005128D01*
X008334Y005023D01*
X008334Y004813D01*
X009300Y003338D02*
X009511Y003128D01*
X009721Y003338D01*
X009721Y002708D01*
X009945Y002813D02*
X009945Y003023D01*
X010050Y003128D01*
X010260Y003128D01*
X010365Y003023D01*
X010365Y002813D01*
X010260Y002708D01*
X010050Y002708D01*
X009945Y002813D01*
X010590Y002708D02*
X010590Y003128D01*
X010905Y003128D01*
X011010Y003023D01*
X011010Y002708D01*
X011234Y002813D02*
X011234Y003128D01*
X011234Y002813D02*
X011339Y002708D01*
X011654Y002708D01*
X011654Y002603D02*
X011549Y002498D01*
X011444Y002498D01*
X011654Y002603D02*
X011654Y003128D01*
X012523Y003233D02*
X012523Y002813D01*
X012628Y002708D01*
X012838Y002708D01*
X012944Y002813D01*
X012944Y003233D01*
X012838Y003338D01*
X012628Y003338D01*
X012523Y003233D01*
X013168Y003128D02*
X013168Y002708D01*
X013168Y002918D02*
X013378Y003128D01*
X013483Y003128D01*
X013705Y003128D02*
X014020Y003128D01*
X014125Y003023D01*
X014125Y002813D01*
X014020Y002708D01*
X013705Y002708D01*
X013705Y003338D01*
X014455Y003128D02*
X014665Y003128D01*
X014770Y003023D01*
X014770Y002708D01*
X014455Y002708D01*
X014349Y002813D01*
X014455Y002918D01*
X014770Y002918D01*
X014994Y003023D02*
X014994Y002813D01*
X015099Y002708D01*
X015414Y002708D01*
X015639Y002708D02*
X015639Y003338D01*
X015744Y003128D02*
X015954Y003128D01*
X016059Y003023D01*
X016059Y002708D01*
X015639Y003023D02*
X015744Y003128D01*
X015414Y003128D02*
X015099Y003128D01*
X014994Y003023D01*
X014985Y004708D02*
X014985Y005338D01*
X015209Y005233D02*
X015209Y005128D01*
X015314Y005023D01*
X015524Y005023D01*
X015629Y004918D01*
X015629Y004813D01*
X015524Y004708D01*
X015314Y004708D01*
X015209Y004813D01*
X014985Y005023D02*
X014564Y005023D01*
X014340Y005023D02*
X013920Y005023D01*
X014564Y004708D02*
X014564Y005338D01*
X015209Y005233D02*
X015314Y005338D01*
X015524Y005338D01*
X015629Y005233D01*
X015853Y005338D02*
X015853Y004708D01*
X016169Y004708D01*
X016274Y004813D01*
X016274Y005233D01*
X016169Y005338D01*
X015853Y005338D01*
X016498Y005233D02*
X016498Y005128D01*
X016603Y005023D01*
X016813Y005023D01*
X016918Y004918D01*
X016918Y004813D01*
X016813Y004708D01*
X016603Y004708D01*
X016498Y004813D01*
X016498Y005233D02*
X016603Y005338D01*
X016813Y005338D01*
X016918Y005233D01*
X017142Y005338D02*
X017142Y004708D01*
X017563Y004708D01*
X017565Y008458D02*
X017355Y008458D01*
X017250Y008563D01*
X017250Y008773D01*
X017355Y008878D01*
X017565Y008878D01*
X017670Y008773D01*
X017670Y008563D01*
X017565Y008458D01*
X017894Y008458D02*
X017894Y008878D01*
X018000Y008878D01*
X018105Y008773D01*
X018210Y008878D01*
X018315Y008773D01*
X018315Y008458D01*
X018105Y008458D02*
X018105Y008773D01*
X017026Y008878D02*
X016710Y008878D01*
X016605Y008773D01*
X016605Y008563D01*
X016710Y008458D01*
X017026Y008458D01*
X016388Y008458D02*
X016283Y008458D01*
X016283Y008563D01*
X016388Y008563D01*
X016388Y008458D01*
X016064Y008458D02*
X015853Y008458D01*
X015958Y008458D02*
X015958Y009088D01*
X015853Y009088D01*
X015529Y009088D02*
X015529Y009193D01*
X015529Y008878D02*
X015529Y008458D01*
X015424Y008458D02*
X015634Y008458D01*
X015529Y008878D02*
X015424Y008878D01*
X015199Y008773D02*
X015199Y008458D01*
X014884Y008458D01*
X014779Y008563D01*
X014884Y008668D01*
X015199Y008668D01*
X015199Y008773D02*
X015094Y008878D01*
X014884Y008878D01*
X014555Y008773D02*
X014555Y008458D01*
X014345Y008458D02*
X014345Y008773D01*
X014450Y008878D01*
X014555Y008773D01*
X014345Y008773D02*
X014240Y008878D01*
X014135Y008878D01*
X014135Y008458D01*
X013910Y008458D02*
X013595Y008458D01*
X013490Y008563D01*
X013490Y008773D01*
X013595Y008878D01*
X013910Y008878D01*
X013910Y008353D01*
X013805Y008248D01*
X013700Y008248D01*
X013266Y008563D02*
X013161Y008458D01*
X012951Y008458D01*
X012845Y008563D01*
X012845Y008983D01*
X012951Y009088D01*
X013161Y009088D01*
X013266Y008983D01*
X013266Y008773D01*
X013161Y008668D01*
X013161Y008878D01*
X012951Y008878D01*
X012951Y008668D01*
X013161Y008668D01*
X012624Y008458D02*
X012308Y008668D01*
X012624Y008878D01*
X012308Y009088D02*
X012308Y008458D01*
X012089Y008458D02*
X011879Y008458D01*
X011984Y008458D02*
X011984Y008878D01*
X011879Y008878D01*
X011984Y009088D02*
X011984Y009193D01*
X011984Y009458D02*
X011984Y010088D01*
X011879Y010088D01*
X011654Y009773D02*
X011654Y009458D01*
X011879Y009458D02*
X012089Y009458D01*
X012308Y009458D02*
X012519Y009458D01*
X012413Y009458D02*
X012413Y009878D01*
X012308Y009878D01*
X012413Y010088D02*
X012413Y010193D01*
X012409Y010498D02*
X012514Y010603D01*
X012514Y011128D01*
X012199Y011128D01*
X012093Y011023D01*
X012093Y010813D01*
X012199Y010708D01*
X012514Y010708D01*
X012738Y010708D02*
X012738Y011128D01*
X012843Y011128D01*
X012948Y011023D01*
X013053Y011128D01*
X013158Y011023D01*
X013158Y010708D01*
X012948Y010708D02*
X012948Y011023D01*
X013383Y010813D02*
X013488Y010918D01*
X013803Y010918D01*
X013803Y011023D02*
X013803Y010708D01*
X013488Y010708D01*
X013383Y010813D01*
X013488Y011128D02*
X013698Y011128D01*
X013803Y011023D01*
X014027Y011128D02*
X014132Y011128D01*
X014132Y010708D01*
X014027Y010708D02*
X014237Y010708D01*
X014457Y010708D02*
X014667Y010708D01*
X014562Y010708D02*
X014562Y011338D01*
X014457Y011338D01*
X014132Y011338D02*
X014132Y011443D01*
X014887Y010813D02*
X014992Y010813D01*
X014992Y010708D01*
X014887Y010708D01*
X014887Y010813D01*
X015209Y010813D02*
X015314Y010708D01*
X015629Y010708D01*
X015853Y010813D02*
X015958Y010708D01*
X016169Y010708D01*
X016274Y010813D01*
X016274Y011023D01*
X016169Y011128D01*
X015958Y011128D01*
X015853Y011023D01*
X015853Y010813D01*
X015629Y011128D02*
X015314Y011128D01*
X015209Y011023D01*
X015209Y010813D01*
X016498Y010708D02*
X016498Y011128D01*
X016603Y011128D01*
X016708Y011023D01*
X016813Y011128D01*
X016918Y011023D01*
X016918Y010708D01*
X016708Y010708D02*
X016708Y011023D01*
X016800Y012960D02*
X016800Y013380D01*
X017011Y013590D01*
X017221Y013380D01*
X017221Y012960D01*
X017221Y013275D02*
X016800Y013275D01*
X016583Y013275D02*
X016478Y013275D01*
X016478Y013380D01*
X016583Y013380D01*
X016583Y013275D01*
X016583Y013065D02*
X016583Y012960D01*
X016478Y012960D01*
X016478Y013065D01*
X016583Y013065D01*
X016254Y013380D02*
X016044Y012960D01*
X015834Y013380D01*
X015609Y013275D02*
X015609Y013170D01*
X015189Y013170D01*
X015189Y013275D02*
X015294Y013380D01*
X015504Y013380D01*
X015609Y013275D01*
X015504Y012960D02*
X015294Y012960D01*
X015189Y013065D01*
X015189Y013275D01*
X014965Y013275D02*
X014965Y013485D01*
X014860Y013590D01*
X014545Y013590D01*
X014545Y012960D01*
X014545Y013170D02*
X014860Y013170D01*
X014965Y013275D01*
X014755Y013170D02*
X014965Y012960D01*
X015099Y015306D02*
X015414Y015306D01*
X015639Y015306D02*
X015639Y015937D01*
X015744Y015727D02*
X015954Y015727D01*
X016059Y015622D01*
X016059Y015306D01*
X015639Y015622D02*
X015744Y015727D01*
X015414Y015727D02*
X015099Y015727D01*
X014994Y015622D01*
X014994Y015411D01*
X015099Y015306D01*
X014770Y015306D02*
X014455Y015306D01*
X014349Y015411D01*
X014455Y015516D01*
X014770Y015516D01*
X014770Y015622D02*
X014770Y015306D01*
X014770Y015622D02*
X014665Y015727D01*
X014455Y015727D01*
X014125Y015622D02*
X014020Y015727D01*
X013705Y015727D01*
X013705Y015937D02*
X013705Y015306D01*
X014020Y015306D01*
X014125Y015411D01*
X014125Y015622D01*
X013483Y015727D02*
X013378Y015727D01*
X013168Y015516D01*
X013168Y015306D02*
X013168Y015727D01*
X012944Y015832D02*
X012944Y015411D01*
X012838Y015306D01*
X012628Y015306D01*
X012523Y015411D01*
X012523Y015832D01*
X012628Y015937D01*
X012838Y015937D01*
X012944Y015832D01*
X012944Y016306D02*
X012523Y016306D01*
X012733Y016306D02*
X012733Y016937D01*
X012523Y016727D01*
X012299Y016832D02*
X012299Y016411D01*
X012194Y016306D01*
X011984Y016306D01*
X011879Y016411D01*
X012299Y016832D01*
X012194Y016937D01*
X011984Y016937D01*
X011879Y016832D01*
X011879Y016411D01*
X011654Y016306D02*
X011234Y016306D01*
X011654Y016727D01*
X011654Y016832D01*
X011549Y016937D01*
X011339Y016937D01*
X011234Y016832D01*
X011010Y016622D02*
X010590Y016622D01*
X010365Y016727D02*
X010365Y016201D01*
X010260Y016096D01*
X010155Y016096D01*
X010050Y016306D02*
X010365Y016306D01*
X010050Y016306D02*
X009945Y016411D01*
X009945Y016622D01*
X010050Y016727D01*
X010365Y016727D01*
X009721Y016622D02*
X009721Y016306D01*
X009721Y016622D02*
X009616Y016727D01*
X009300Y016727D01*
X009300Y016306D01*
X009081Y016306D02*
X008871Y016306D01*
X008976Y016306D02*
X008976Y016727D01*
X008871Y016727D01*
X008649Y016727D02*
X008544Y016727D01*
X008334Y016516D01*
X008334Y016306D02*
X008334Y016727D01*
X008109Y016622D02*
X008109Y016411D01*
X008004Y016306D01*
X007689Y016306D01*
X007689Y016096D02*
X007689Y016727D01*
X008004Y016727D01*
X008109Y016622D01*
X007465Y016516D02*
X007465Y016411D01*
X007360Y016306D01*
X007150Y016306D01*
X007045Y016411D01*
X007150Y016622D02*
X007360Y016622D01*
X007465Y016516D01*
X007465Y016832D02*
X007360Y016937D01*
X007150Y016937D01*
X007045Y016832D01*
X007045Y016727D01*
X007150Y016622D01*
X007150Y015937D02*
X007045Y015832D01*
X007045Y015727D01*
X007150Y015622D01*
X007360Y015622D01*
X007465Y015516D01*
X007465Y015411D01*
X007360Y015306D01*
X007150Y015306D01*
X007045Y015411D01*
X007150Y015937D02*
X007360Y015937D01*
X007465Y015832D01*
X007689Y015727D02*
X007689Y015411D01*
X007794Y015306D01*
X008109Y015306D01*
X008109Y015727D01*
X008334Y015727D02*
X008334Y015096D01*
X008334Y015306D02*
X008649Y015306D01*
X008754Y015411D01*
X008754Y015622D01*
X008649Y015727D01*
X008334Y015727D01*
X008978Y015727D02*
X008978Y015622D01*
X009083Y015622D01*
X009083Y015727D01*
X008978Y015727D01*
X008978Y015411D02*
X008978Y015306D01*
X009083Y015306D01*
X009083Y015411D01*
X008978Y015411D01*
X009300Y015306D02*
X009300Y015937D01*
X009511Y015727D01*
X009721Y015937D01*
X009721Y015306D01*
X009945Y015411D02*
X010050Y015306D01*
X010260Y015306D01*
X010365Y015411D01*
X010365Y015622D01*
X010260Y015727D01*
X010050Y015727D01*
X009945Y015622D01*
X009945Y015411D01*
X010590Y015306D02*
X010590Y015727D01*
X010905Y015727D01*
X011010Y015622D01*
X011010Y015306D01*
X011234Y015411D02*
X011339Y015306D01*
X011654Y015306D01*
X011654Y015201D02*
X011549Y015096D01*
X011444Y015096D01*
X011654Y015201D02*
X011654Y015727D01*
X011234Y015727D02*
X011234Y015411D01*
X013168Y016411D02*
X013273Y016306D01*
X013483Y016306D01*
X013588Y016411D01*
X013588Y016516D01*
X013483Y016622D01*
X013168Y016622D01*
X013168Y016411D01*
X013168Y016622D02*
X013378Y016832D01*
X013588Y016937D01*
X013696Y017306D02*
X013275Y017306D01*
X013275Y017937D01*
X013696Y017937D01*
X013485Y017622D02*
X013275Y017622D01*
X013051Y017937D02*
X012631Y017937D01*
X012631Y017306D01*
X013051Y017306D01*
X012841Y017622D02*
X012631Y017622D01*
X012406Y017622D02*
X011986Y017622D01*
X011762Y017622D02*
X011762Y017306D01*
X011762Y017622D02*
X011657Y017727D01*
X011342Y017727D01*
X011342Y017306D01*
X011117Y017411D02*
X011117Y017622D01*
X011012Y017727D01*
X010802Y017727D01*
X010697Y017622D01*
X010697Y017411D01*
X010802Y017306D01*
X011012Y017306D01*
X011117Y017411D01*
X010477Y017306D02*
X010267Y017306D01*
X010372Y017306D02*
X010372Y017727D01*
X010267Y017727D01*
X010372Y017937D02*
X010372Y018042D01*
X010043Y017622D02*
X010043Y017306D01*
X010043Y017622D02*
X009938Y017727D01*
X009623Y017727D01*
X009623Y017306D01*
X009399Y017306D02*
X009399Y017622D01*
X009293Y017727D01*
X009083Y017727D01*
X008978Y017622D01*
X008754Y017727D02*
X008439Y017727D01*
X008334Y017622D01*
X008334Y017411D01*
X008439Y017306D01*
X008754Y017306D01*
X008978Y017306D02*
X008978Y017937D01*
X008976Y017042D02*
X008976Y016937D01*
X008004Y017306D02*
X007794Y017306D01*
X007689Y017411D01*
X007689Y017622D01*
X007794Y017727D01*
X008004Y017727D01*
X008109Y017622D01*
X008109Y017516D01*
X007689Y017516D01*
X007465Y017937D02*
X007045Y017937D01*
X007255Y017937D02*
X007255Y017306D01*
X007465Y021056D02*
X007465Y021372D01*
X007360Y021477D01*
X007045Y021477D01*
X007045Y021056D01*
X007689Y021056D02*
X007899Y021056D01*
X007794Y021056D02*
X007794Y021477D01*
X007689Y021477D01*
X007794Y021687D02*
X007794Y021792D01*
X007794Y022056D02*
X007794Y022477D01*
X007689Y022477D01*
X007794Y022687D02*
X007794Y022792D01*
X007465Y022687D02*
X007465Y022056D01*
X007045Y022687D01*
X007045Y022056D01*
X007689Y022056D02*
X007899Y022056D01*
X008119Y022161D02*
X008224Y022056D01*
X008539Y022056D01*
X008763Y022056D02*
X008763Y022687D01*
X008539Y022477D02*
X008224Y022477D01*
X008119Y022372D01*
X008119Y022161D01*
X008763Y022266D02*
X009079Y022056D01*
X008763Y022266D02*
X009079Y022477D01*
X008763Y021687D02*
X008763Y021056D01*
X008763Y021266D02*
X009079Y021056D01*
X009300Y021056D02*
X009406Y021056D01*
X009406Y021161D01*
X009300Y021161D01*
X009300Y021056D01*
X009623Y021056D02*
X009623Y021687D01*
X009938Y021477D02*
X009623Y021266D01*
X009938Y021056D01*
X010160Y021161D02*
X010265Y021056D01*
X010580Y021056D01*
X010580Y021477D01*
X010804Y021372D02*
X010909Y021477D01*
X011120Y021477D01*
X011225Y021372D01*
X011225Y021056D01*
X011449Y021056D02*
X011659Y021056D01*
X011554Y021056D02*
X011554Y021687D01*
X011449Y021687D01*
X011654Y022056D02*
X011654Y022372D01*
X011549Y022477D01*
X011339Y022477D01*
X011234Y022372D01*
X011010Y022477D02*
X011010Y022056D01*
X010695Y022056D01*
X010590Y022161D01*
X010590Y022477D01*
X010365Y022687D02*
X009945Y022266D01*
X010050Y022372D02*
X010365Y022056D01*
X009945Y022056D02*
X009945Y022687D01*
X010050Y023306D02*
X009945Y023411D01*
X010050Y023516D01*
X010365Y023516D01*
X010365Y023622D02*
X010365Y023306D01*
X010050Y023306D01*
X010050Y023727D02*
X010260Y023727D01*
X010365Y023622D01*
X010590Y023622D02*
X010800Y023622D01*
X010695Y023832D02*
X010800Y023937D01*
X010695Y023832D02*
X010695Y023306D01*
X011019Y023306D02*
X011229Y023306D01*
X011124Y023306D02*
X011124Y023727D01*
X011019Y023727D01*
X011124Y023937D02*
X011124Y024042D01*
X011232Y024306D02*
X011547Y024306D01*
X011547Y024727D01*
X011771Y024727D02*
X012086Y024727D01*
X012192Y024622D01*
X012192Y024411D01*
X012086Y024306D01*
X011771Y024306D01*
X011771Y024937D01*
X011127Y024727D02*
X011127Y024411D01*
X011232Y024306D01*
X010902Y024306D02*
X010902Y024622D01*
X010797Y024727D01*
X010587Y024727D01*
X010587Y024516D02*
X010902Y024516D01*
X010902Y024306D02*
X010587Y024306D01*
X010482Y024411D01*
X010587Y024516D01*
X010258Y024937D02*
X009838Y024937D01*
X010048Y024937D02*
X010048Y024306D01*
X009723Y023727D02*
X009618Y023727D01*
X009408Y023516D01*
X009408Y023306D02*
X009408Y023727D01*
X009184Y023622D02*
X009184Y023411D01*
X009079Y023306D01*
X008763Y023306D01*
X008763Y023937D01*
X008763Y023727D02*
X009079Y023727D01*
X009184Y023622D01*
X008539Y023727D02*
X008539Y023306D01*
X008224Y023306D01*
X008119Y023411D01*
X008119Y023727D01*
X007895Y023622D02*
X007895Y023306D01*
X007579Y023306D01*
X007474Y023411D01*
X007579Y023516D01*
X007895Y023516D01*
X007895Y023622D02*
X007789Y023727D01*
X007579Y023727D01*
X007255Y023727D02*
X007045Y023727D01*
X007150Y023832D02*
X007150Y023411D01*
X007255Y023306D01*
X007465Y024306D02*
X007255Y024516D01*
X007360Y024516D02*
X007045Y024516D01*
X007045Y024306D02*
X007045Y024937D01*
X007360Y024937D01*
X007465Y024832D01*
X007465Y024622D01*
X007360Y024516D01*
X007689Y024411D02*
X007794Y024516D01*
X008109Y024516D01*
X008109Y024622D02*
X008109Y024306D01*
X007794Y024306D01*
X007689Y024411D01*
X007794Y024727D02*
X008004Y024727D01*
X008109Y024622D01*
X008334Y024622D02*
X008544Y024622D01*
X008439Y024832D02*
X008544Y024937D01*
X008439Y024832D02*
X008439Y024306D01*
X008763Y024306D02*
X008973Y024306D01*
X008868Y024306D02*
X008868Y024727D01*
X008763Y024727D01*
X008868Y024937D02*
X008868Y025042D01*
X008329Y025556D02*
X008329Y026187D01*
X008119Y026187D02*
X008539Y026187D01*
X007895Y025872D02*
X007789Y025977D01*
X007579Y025977D01*
X007474Y025872D01*
X007474Y025661D01*
X007579Y025556D01*
X007789Y025556D01*
X007895Y025661D01*
X007895Y025872D01*
X007255Y026187D02*
X007045Y026187D01*
X007150Y026187D02*
X007150Y025556D01*
X007045Y025556D02*
X007255Y025556D01*
X009408Y025556D02*
X009723Y025556D01*
X009828Y025661D01*
X009723Y025766D01*
X009513Y025766D01*
X009408Y025872D01*
X009513Y025977D01*
X009828Y025977D01*
X010052Y025977D02*
X010158Y025977D01*
X010158Y025556D01*
X010263Y025556D02*
X010052Y025556D01*
X010482Y025661D02*
X010587Y025556D01*
X010902Y025556D01*
X010902Y025451D02*
X010902Y025977D01*
X010587Y025977D01*
X010482Y025872D01*
X010482Y025661D01*
X010692Y025346D02*
X010797Y025346D01*
X010902Y025451D01*
X011127Y025556D02*
X011127Y026187D01*
X011232Y025977D02*
X011442Y025977D01*
X011547Y025872D01*
X011547Y025556D01*
X011876Y025661D02*
X011876Y026082D01*
X011771Y025977D02*
X011981Y025977D01*
X011876Y025661D02*
X011981Y025556D01*
X011232Y025977D02*
X011127Y025872D01*
X010158Y026187D02*
X010158Y026292D01*
X011444Y027695D02*
X011549Y027695D01*
X011654Y027800D01*
X011654Y028325D01*
X011234Y028325D02*
X011234Y028010D01*
X011339Y027905D01*
X011654Y027905D01*
X011010Y027905D02*
X011010Y028220D01*
X010905Y028325D01*
X010590Y028325D01*
X010590Y027905D01*
X010365Y028010D02*
X010365Y028220D01*
X010260Y028325D01*
X010050Y028325D01*
X009945Y028220D01*
X009945Y028010D01*
X010050Y027905D01*
X010260Y027905D01*
X010365Y028010D01*
X009721Y027905D02*
X009721Y028535D01*
X009511Y028325D01*
X009300Y028535D01*
X009300Y027905D01*
X009083Y027905D02*
X008978Y027905D01*
X008978Y028010D01*
X009083Y028010D01*
X009083Y027905D01*
X009083Y028220D02*
X008978Y028220D01*
X008978Y028325D01*
X009083Y028325D01*
X009083Y028220D01*
X008754Y028220D02*
X008754Y028010D01*
X008649Y027905D01*
X008334Y027905D01*
X008334Y027695D02*
X008334Y028325D01*
X008649Y028325D01*
X008754Y028220D01*
X008109Y028325D02*
X008109Y027905D01*
X007794Y027905D01*
X007689Y028010D01*
X007689Y028325D01*
X007465Y028430D02*
X007360Y028535D01*
X007150Y028535D01*
X007045Y028430D01*
X007045Y028325D01*
X007150Y028220D01*
X007360Y028220D01*
X007465Y028115D01*
X007465Y028010D01*
X007360Y027905D01*
X007150Y027905D01*
X007045Y028010D01*
X007689Y028695D02*
X007689Y029325D01*
X008004Y029325D01*
X008109Y029220D01*
X008109Y029010D01*
X008004Y028905D01*
X007689Y028905D01*
X007465Y029010D02*
X007360Y028905D01*
X007150Y028905D01*
X007045Y029010D01*
X007150Y029220D02*
X007360Y029220D01*
X007465Y029115D01*
X007465Y029010D01*
X007150Y029220D02*
X007045Y029325D01*
X007045Y029430D01*
X007150Y029535D01*
X007360Y029535D01*
X007465Y029430D01*
X007255Y029905D02*
X007255Y030535D01*
X007045Y030535D02*
X007465Y030535D01*
X007689Y030220D02*
X007689Y030010D01*
X007794Y029905D01*
X008004Y029905D01*
X008109Y030115D02*
X007689Y030115D01*
X007689Y030220D02*
X007794Y030325D01*
X008004Y030325D01*
X008109Y030220D01*
X008109Y030115D01*
X008334Y030220D02*
X008334Y030010D01*
X008439Y029905D01*
X008754Y029905D01*
X008978Y029905D02*
X008978Y030535D01*
X009083Y030325D02*
X009293Y030325D01*
X009399Y030220D01*
X009399Y029905D01*
X009623Y029905D02*
X009623Y030325D01*
X009938Y030325D01*
X010043Y030220D01*
X010043Y029905D01*
X010267Y029905D02*
X010477Y029905D01*
X010372Y029905D02*
X010372Y030325D01*
X010267Y030325D01*
X010372Y030535D02*
X010372Y030640D01*
X010697Y030220D02*
X010697Y030010D01*
X010802Y029905D01*
X011012Y029905D01*
X011117Y030010D01*
X011117Y030220D01*
X011012Y030325D01*
X010802Y030325D01*
X010697Y030220D01*
X011342Y030325D02*
X011342Y029905D01*
X011339Y029535D02*
X011234Y029430D01*
X011339Y029535D02*
X011549Y029535D01*
X011654Y029430D01*
X011654Y029325D01*
X011234Y028905D01*
X011654Y028905D01*
X011879Y029010D02*
X011879Y029430D01*
X011984Y029535D01*
X012194Y029535D01*
X012299Y029430D01*
X011879Y029010D01*
X011984Y028905D01*
X012194Y028905D01*
X012299Y029010D01*
X012299Y029430D01*
X012523Y029325D02*
X012733Y029535D01*
X012733Y028905D01*
X012523Y028905D02*
X012944Y028905D01*
X013168Y029010D02*
X013273Y028905D01*
X013483Y028905D01*
X013588Y029010D01*
X013588Y029115D01*
X013483Y029220D01*
X013168Y029220D01*
X013168Y029010D01*
X013168Y029220D02*
X013378Y029430D01*
X013588Y029535D01*
X013696Y029905D02*
X013275Y029905D01*
X013275Y030535D01*
X013696Y030535D01*
X013485Y030220D02*
X013275Y030220D01*
X013051Y030535D02*
X012631Y030535D01*
X012631Y029905D01*
X013051Y029905D01*
X012841Y030220D02*
X012631Y030220D01*
X012406Y030220D02*
X011986Y030220D01*
X011762Y030220D02*
X011762Y029905D01*
X011762Y030220D02*
X011657Y030325D01*
X011342Y030325D01*
X010365Y029325D02*
X010050Y029325D01*
X009945Y029220D01*
X009945Y029010D01*
X010050Y028905D01*
X010365Y028905D01*
X010365Y028800D02*
X010365Y029325D01*
X010590Y029220D02*
X011010Y029220D01*
X010365Y028800D02*
X010260Y028695D01*
X010155Y028695D01*
X009721Y028905D02*
X009721Y029220D01*
X009616Y029325D01*
X009300Y029325D01*
X009300Y028905D01*
X009081Y028905D02*
X008871Y028905D01*
X008976Y028905D02*
X008976Y029325D01*
X008871Y029325D01*
X008649Y029325D02*
X008544Y029325D01*
X008334Y029115D01*
X008334Y028905D02*
X008334Y029325D01*
X008976Y029535D02*
X008976Y029640D01*
X008978Y030220D02*
X009083Y030325D01*
X008754Y030325D02*
X008439Y030325D01*
X008334Y030220D01*
X008224Y033655D02*
X008119Y033760D01*
X008119Y033970D01*
X008224Y034075D01*
X008539Y034075D01*
X008763Y033865D02*
X009079Y034075D01*
X008763Y033865D02*
X009079Y033655D01*
X009300Y033655D02*
X009406Y033655D01*
X009406Y033760D01*
X009300Y033760D01*
X009300Y033655D01*
X009623Y033655D02*
X009623Y034285D01*
X009938Y034075D02*
X009623Y033865D01*
X009938Y033655D01*
X010160Y033760D02*
X010265Y033655D01*
X010580Y033655D01*
X010580Y034075D01*
X010804Y033970D02*
X010909Y034075D01*
X011120Y034075D01*
X011225Y033970D01*
X011225Y033655D01*
X011449Y033655D02*
X011659Y033655D01*
X011554Y033655D02*
X011554Y034285D01*
X011449Y034285D01*
X011654Y034655D02*
X011654Y034970D01*
X011549Y035075D01*
X011339Y035075D01*
X011234Y034970D01*
X011010Y035075D02*
X011010Y034655D01*
X010695Y034655D01*
X010590Y034760D01*
X010590Y035075D01*
X010365Y035285D02*
X009945Y034865D01*
X010050Y034970D02*
X010365Y034655D01*
X009945Y034655D02*
X009945Y035285D01*
X010050Y035905D02*
X009945Y036010D01*
X010050Y036115D01*
X010365Y036115D01*
X010365Y036220D02*
X010365Y035905D01*
X010050Y035905D01*
X010050Y036325D02*
X010260Y036325D01*
X010365Y036220D01*
X010590Y036220D02*
X010800Y036220D01*
X010695Y036430D02*
X010800Y036535D01*
X010695Y036430D02*
X010695Y035905D01*
X011019Y035905D02*
X011229Y035905D01*
X011124Y035905D02*
X011124Y036325D01*
X011019Y036325D01*
X011124Y036535D02*
X011124Y036640D01*
X011232Y036905D02*
X011547Y036905D01*
X011547Y037325D01*
X011771Y037325D02*
X012086Y037325D01*
X012192Y037220D01*
X012192Y037010D01*
X012086Y036905D01*
X011771Y036905D01*
X011771Y037535D01*
X011981Y038155D02*
X011876Y038260D01*
X011876Y038680D01*
X011771Y038575D02*
X011981Y038575D01*
X011547Y038470D02*
X011547Y038155D01*
X011547Y038470D02*
X011442Y038575D01*
X011232Y038575D01*
X011127Y038470D01*
X010902Y038575D02*
X010902Y038050D01*
X010797Y037945D01*
X010692Y037945D01*
X010587Y038155D02*
X010902Y038155D01*
X011127Y038155D02*
X011127Y038785D01*
X010902Y038575D02*
X010587Y038575D01*
X010482Y038470D01*
X010482Y038260D01*
X010587Y038155D01*
X010263Y038155D02*
X010052Y038155D01*
X010158Y038155D02*
X010158Y038575D01*
X010052Y038575D01*
X009828Y038575D02*
X009513Y038575D01*
X009408Y038470D01*
X009513Y038365D01*
X009723Y038365D01*
X009828Y038260D01*
X009723Y038155D01*
X009408Y038155D01*
X008868Y037640D02*
X008868Y037535D01*
X008868Y037325D02*
X008868Y036905D01*
X008763Y036905D02*
X008973Y036905D01*
X008763Y036535D02*
X008763Y035905D01*
X009079Y035905D01*
X009184Y036010D01*
X009184Y036220D01*
X009079Y036325D01*
X008763Y036325D01*
X008539Y036325D02*
X008539Y035905D01*
X008224Y035905D01*
X008119Y036010D01*
X008119Y036325D01*
X007895Y036220D02*
X007895Y035905D01*
X007579Y035905D01*
X007474Y036010D01*
X007579Y036115D01*
X007895Y036115D01*
X007895Y036220D02*
X007789Y036325D01*
X007579Y036325D01*
X007255Y036325D02*
X007045Y036325D01*
X007150Y036430D02*
X007150Y036010D01*
X007255Y035905D01*
X007465Y035285D02*
X007465Y034655D01*
X007045Y035285D01*
X007045Y034655D01*
X007045Y034075D02*
X007360Y034075D01*
X007465Y033970D01*
X007465Y033655D01*
X007689Y033655D02*
X007899Y033655D01*
X007794Y033655D02*
X007794Y034075D01*
X007689Y034075D01*
X007794Y034285D02*
X007794Y034390D01*
X007794Y034655D02*
X007794Y035075D01*
X007689Y035075D01*
X007794Y035285D02*
X007794Y035390D01*
X008119Y034970D02*
X008119Y034760D01*
X008224Y034655D01*
X008539Y034655D01*
X008763Y034655D02*
X008763Y035285D01*
X008539Y035075D02*
X008224Y035075D01*
X008119Y034970D01*
X007899Y034655D02*
X007689Y034655D01*
X007045Y034075D02*
X007045Y033655D01*
X008224Y033655D02*
X008539Y033655D01*
X008763Y033655D02*
X008763Y034285D01*
X009079Y034655D02*
X008763Y034865D01*
X009079Y035075D01*
X009408Y035905D02*
X009408Y036325D01*
X009618Y036325D02*
X009723Y036325D01*
X009618Y036325D02*
X009408Y036115D01*
X010048Y036905D02*
X010048Y037535D01*
X009838Y037535D02*
X010258Y037535D01*
X010587Y037325D02*
X010797Y037325D01*
X010902Y037220D01*
X010902Y036905D01*
X010587Y036905D01*
X010482Y037010D01*
X010587Y037115D01*
X010902Y037115D01*
X011127Y037010D02*
X011232Y036905D01*
X011127Y037010D02*
X011127Y037325D01*
X011554Y036535D02*
X011764Y036535D01*
X011869Y036430D01*
X011869Y036220D01*
X011764Y036115D01*
X011764Y036325D01*
X011554Y036325D01*
X011554Y036115D01*
X011764Y036115D01*
X011869Y036010D02*
X011764Y035905D01*
X011554Y035905D01*
X011449Y036010D01*
X011449Y036430D01*
X011554Y036535D01*
X012093Y036220D02*
X012093Y036010D01*
X012199Y035905D01*
X012514Y035905D01*
X012514Y035800D02*
X012514Y036325D01*
X012199Y036325D01*
X012093Y036220D01*
X012304Y035695D02*
X012409Y035695D01*
X012514Y035800D01*
X012738Y035905D02*
X012738Y036325D01*
X012843Y036325D01*
X012948Y036220D01*
X013053Y036325D01*
X013158Y036220D01*
X013158Y035905D01*
X012948Y035905D02*
X012948Y036220D01*
X013383Y036010D02*
X013488Y036115D01*
X013803Y036115D01*
X013803Y036220D02*
X013803Y035905D01*
X013488Y035905D01*
X013383Y036010D01*
X013488Y036325D02*
X013698Y036325D01*
X013803Y036220D01*
X014027Y036325D02*
X014132Y036325D01*
X014132Y035905D01*
X014027Y035905D02*
X014237Y035905D01*
X014457Y035905D02*
X014667Y035905D01*
X014562Y035905D02*
X014562Y036535D01*
X014457Y036535D01*
X014132Y036535D02*
X014132Y036640D01*
X014887Y036010D02*
X014992Y036010D01*
X014992Y035905D01*
X014887Y035905D01*
X014887Y036010D01*
X015209Y036010D02*
X015314Y035905D01*
X015629Y035905D01*
X015853Y036010D02*
X015958Y035905D01*
X016169Y035905D01*
X016274Y036010D01*
X016274Y036220D01*
X016169Y036325D01*
X015958Y036325D01*
X015853Y036220D01*
X015853Y036010D01*
X015629Y036325D02*
X015314Y036325D01*
X015209Y036220D01*
X015209Y036010D01*
X016498Y035905D02*
X016498Y036325D01*
X016603Y036325D01*
X016708Y036220D01*
X016813Y036325D01*
X016918Y036220D01*
X016918Y035905D01*
X016708Y035905D02*
X016708Y036220D01*
X016800Y038157D02*
X016800Y038577D01*
X017011Y038787D01*
X017221Y038577D01*
X017221Y038157D01*
X017221Y038472D02*
X016800Y038472D01*
X016583Y038472D02*
X016478Y038472D01*
X016478Y038577D01*
X016583Y038577D01*
X016583Y038472D01*
X016583Y038262D02*
X016583Y038157D01*
X016478Y038157D01*
X016478Y038262D01*
X016583Y038262D01*
X016254Y038577D02*
X016044Y038157D01*
X015834Y038577D01*
X015609Y038472D02*
X015609Y038367D01*
X015189Y038367D01*
X015189Y038262D02*
X015189Y038472D01*
X015294Y038577D01*
X015504Y038577D01*
X015609Y038472D01*
X015504Y038157D02*
X015294Y038157D01*
X015189Y038262D01*
X014965Y038157D02*
X014755Y038367D01*
X014860Y038367D02*
X014545Y038367D01*
X014545Y038157D02*
X014545Y038787D01*
X014860Y038787D01*
X014965Y038682D01*
X014965Y038472D01*
X014860Y038367D01*
X012738Y035285D02*
X012738Y034655D01*
X012738Y034865D02*
X013053Y035075D01*
X012738Y034865D02*
X013053Y034655D01*
X012951Y034285D02*
X013161Y034285D01*
X013266Y034180D01*
X013266Y033970D01*
X013161Y033865D01*
X013161Y034075D01*
X012951Y034075D01*
X012951Y033865D01*
X013161Y033865D01*
X013266Y033760D02*
X013161Y033655D01*
X012951Y033655D01*
X012845Y033760D01*
X012845Y034180D01*
X012951Y034285D01*
X012624Y034075D02*
X012308Y033865D01*
X012624Y033655D01*
X012308Y033655D02*
X012308Y034285D01*
X011984Y034285D02*
X011984Y034390D01*
X011984Y034655D02*
X011984Y035285D01*
X011879Y035285D01*
X012308Y035075D02*
X012413Y035075D01*
X012413Y034655D01*
X012308Y034655D02*
X012519Y034655D01*
X012089Y034655D02*
X011879Y034655D01*
X011879Y034075D02*
X011984Y034075D01*
X011984Y033655D01*
X011879Y033655D02*
X012089Y033655D01*
X010804Y033655D02*
X010804Y034285D01*
X011234Y034655D02*
X011234Y035285D01*
X012413Y035285D02*
X012413Y035390D01*
X013595Y034075D02*
X013490Y033970D01*
X013490Y033760D01*
X013595Y033655D01*
X013910Y033655D01*
X013910Y033550D02*
X013910Y034075D01*
X013595Y034075D01*
X014135Y034075D02*
X014135Y033655D01*
X014345Y033655D02*
X014345Y033970D01*
X014450Y034075D01*
X014555Y033970D01*
X014555Y033655D01*
X014779Y033760D02*
X014884Y033865D01*
X015199Y033865D01*
X015199Y033970D02*
X015199Y033655D01*
X014884Y033655D01*
X014779Y033760D01*
X014884Y034075D02*
X015094Y034075D01*
X015199Y033970D01*
X015424Y034075D02*
X015529Y034075D01*
X015529Y033655D01*
X015424Y033655D02*
X015634Y033655D01*
X015853Y033655D02*
X016064Y033655D01*
X015958Y033655D02*
X015958Y034285D01*
X015853Y034285D01*
X015529Y034285D02*
X015529Y034390D01*
X016283Y033760D02*
X016388Y033760D01*
X016388Y033655D01*
X016283Y033655D01*
X016283Y033760D01*
X016605Y033760D02*
X016710Y033655D01*
X017026Y033655D01*
X017250Y033760D02*
X017355Y033655D01*
X017565Y033655D01*
X017670Y033760D01*
X017670Y033970D01*
X017565Y034075D01*
X017355Y034075D01*
X017250Y033970D01*
X017250Y033760D01*
X017026Y034075D02*
X016710Y034075D01*
X016605Y033970D01*
X016605Y033760D01*
X017894Y033655D02*
X017894Y034075D01*
X018000Y034075D01*
X018105Y033970D01*
X018210Y034075D01*
X018315Y033970D01*
X018315Y033655D01*
X018105Y033655D02*
X018105Y033970D01*
X017142Y030535D02*
X017142Y029905D01*
X017563Y029905D01*
X016918Y030010D02*
X016813Y029905D01*
X016603Y029905D01*
X016498Y030010D01*
X016274Y030010D02*
X016274Y030430D01*
X016169Y030535D01*
X015853Y030535D01*
X015853Y029905D01*
X016169Y029905D01*
X016274Y030010D01*
X016498Y030325D02*
X016603Y030220D01*
X016813Y030220D01*
X016918Y030115D01*
X016918Y030010D01*
X016918Y030430D02*
X016813Y030535D01*
X016603Y030535D01*
X016498Y030430D01*
X016498Y030325D01*
X015629Y030430D02*
X015524Y030535D01*
X015314Y030535D01*
X015209Y030430D01*
X015209Y030325D01*
X015314Y030220D01*
X015524Y030220D01*
X015629Y030115D01*
X015629Y030010D01*
X015524Y029905D01*
X015314Y029905D01*
X015209Y030010D01*
X014985Y029905D02*
X014985Y030535D01*
X014985Y030220D02*
X014564Y030220D01*
X014340Y030220D02*
X013920Y030220D01*
X014564Y029905D02*
X014564Y030535D01*
X013705Y028535D02*
X013705Y027905D01*
X014020Y027905D01*
X014125Y028010D01*
X014125Y028220D01*
X014020Y028325D01*
X013705Y028325D01*
X013483Y028325D02*
X013378Y028325D01*
X013168Y028115D01*
X013168Y027905D02*
X013168Y028325D01*
X012944Y028430D02*
X012838Y028535D01*
X012628Y028535D01*
X012523Y028430D01*
X012523Y028010D01*
X012628Y027905D01*
X012838Y027905D01*
X012944Y028010D01*
X012944Y028430D01*
X014349Y028010D02*
X014455Y028115D01*
X014770Y028115D01*
X014770Y028220D02*
X014770Y027905D01*
X014455Y027905D01*
X014349Y028010D01*
X014455Y028325D02*
X014665Y028325D01*
X014770Y028220D01*
X014994Y028220D02*
X014994Y028010D01*
X015099Y027905D01*
X015414Y027905D01*
X015639Y027905D02*
X015639Y028535D01*
X015744Y028325D02*
X015954Y028325D01*
X016059Y028220D01*
X016059Y027905D01*
X015639Y028220D02*
X015744Y028325D01*
X015414Y028325D02*
X015099Y028325D01*
X014994Y028220D01*
X014860Y026189D02*
X014545Y026189D01*
X014545Y025558D01*
X014545Y025768D02*
X014860Y025768D01*
X014965Y025873D01*
X014965Y026084D01*
X014860Y026189D01*
X014755Y025768D02*
X014965Y025558D01*
X015189Y025663D02*
X015189Y025873D01*
X015294Y025979D01*
X015504Y025979D01*
X015609Y025873D01*
X015609Y025768D01*
X015189Y025768D01*
X015189Y025663D02*
X015294Y025558D01*
X015504Y025558D01*
X015834Y025979D02*
X016044Y025558D01*
X016254Y025979D01*
X016478Y025979D02*
X016478Y025873D01*
X016583Y025873D01*
X016583Y025979D01*
X016478Y025979D01*
X016478Y025663D02*
X016478Y025558D01*
X016583Y025558D01*
X016583Y025663D01*
X016478Y025663D01*
X016800Y025558D02*
X016800Y025979D01*
X017011Y026189D01*
X017221Y025979D01*
X017221Y025558D01*
X017221Y025873D02*
X016800Y025873D01*
X016813Y023727D02*
X016918Y023622D01*
X016918Y023306D01*
X016708Y023306D02*
X016708Y023622D01*
X016813Y023727D01*
X016708Y023622D02*
X016603Y023727D01*
X016498Y023727D01*
X016498Y023306D01*
X016274Y023411D02*
X016274Y023622D01*
X016169Y023727D01*
X015958Y023727D01*
X015853Y023622D01*
X015853Y023411D01*
X015958Y023306D01*
X016169Y023306D01*
X016274Y023411D01*
X015629Y023306D02*
X015314Y023306D01*
X015209Y023411D01*
X015209Y023622D01*
X015314Y023727D01*
X015629Y023727D01*
X014992Y023411D02*
X014992Y023306D01*
X014887Y023306D01*
X014887Y023411D01*
X014992Y023411D01*
X014667Y023306D02*
X014457Y023306D01*
X014562Y023306D02*
X014562Y023937D01*
X014457Y023937D01*
X014132Y023937D02*
X014132Y024042D01*
X014132Y023727D02*
X014132Y023306D01*
X014027Y023306D02*
X014237Y023306D01*
X014132Y023727D02*
X014027Y023727D01*
X013803Y023622D02*
X013803Y023306D01*
X013488Y023306D01*
X013383Y023411D01*
X013488Y023516D01*
X013803Y023516D01*
X013803Y023622D02*
X013698Y023727D01*
X013488Y023727D01*
X013158Y023622D02*
X013158Y023306D01*
X012948Y023306D02*
X012948Y023622D01*
X013053Y023727D01*
X013158Y023622D01*
X012948Y023622D02*
X012843Y023727D01*
X012738Y023727D01*
X012738Y023306D01*
X012514Y023306D02*
X012199Y023306D01*
X012093Y023411D01*
X012093Y023622D01*
X012199Y023727D01*
X012514Y023727D01*
X012514Y023201D01*
X012409Y023096D01*
X012304Y023096D01*
X012413Y022792D02*
X012413Y022687D01*
X012413Y022477D02*
X012413Y022056D01*
X012308Y022056D02*
X012519Y022056D01*
X012738Y022056D02*
X012738Y022687D01*
X013053Y022477D02*
X012738Y022266D01*
X013053Y022056D01*
X012951Y021687D02*
X013161Y021687D01*
X013266Y021582D01*
X013266Y021372D01*
X013161Y021266D01*
X013161Y021477D01*
X012951Y021477D01*
X012951Y021266D01*
X013161Y021266D01*
X013266Y021161D02*
X013161Y021056D01*
X012951Y021056D01*
X012845Y021161D01*
X012845Y021582D01*
X012951Y021687D01*
X012624Y021477D02*
X012308Y021266D01*
X012624Y021056D01*
X012308Y021056D02*
X012308Y021687D01*
X011984Y021687D02*
X011984Y021792D01*
X011984Y022056D02*
X011984Y022687D01*
X011879Y022687D01*
X012308Y022477D02*
X012413Y022477D01*
X012089Y022056D02*
X011879Y022056D01*
X011879Y021477D02*
X011984Y021477D01*
X011984Y021056D01*
X011879Y021056D02*
X012089Y021056D01*
X010804Y021056D02*
X010804Y021687D01*
X011234Y022056D02*
X011234Y022687D01*
X011554Y023306D02*
X011449Y023411D01*
X011449Y023832D01*
X011554Y023937D01*
X011764Y023937D01*
X011869Y023832D01*
X011869Y023622D01*
X011764Y023516D01*
X011764Y023727D01*
X011554Y023727D01*
X011554Y023516D01*
X011764Y023516D01*
X011869Y023411D02*
X011764Y023306D01*
X011554Y023306D01*
X010160Y021477D02*
X010160Y021161D01*
X009079Y021477D02*
X008763Y021266D01*
X008539Y021056D02*
X008224Y021056D01*
X008119Y021161D01*
X008119Y021372D01*
X008224Y021477D01*
X008539Y021477D01*
X013490Y021372D02*
X013490Y021161D01*
X013595Y021056D01*
X013910Y021056D01*
X013910Y020951D02*
X013910Y021477D01*
X013595Y021477D01*
X013490Y021372D01*
X013700Y020846D02*
X013805Y020846D01*
X013910Y020951D01*
X014135Y021056D02*
X014135Y021477D01*
X014240Y021477D01*
X014345Y021372D01*
X014450Y021477D01*
X014555Y021372D01*
X014555Y021056D01*
X014345Y021056D02*
X014345Y021372D01*
X014779Y021161D02*
X014884Y021056D01*
X015199Y021056D01*
X015199Y021372D01*
X015094Y021477D01*
X014884Y021477D01*
X014884Y021266D02*
X015199Y021266D01*
X015424Y021056D02*
X015634Y021056D01*
X015529Y021056D02*
X015529Y021477D01*
X015424Y021477D01*
X015529Y021687D02*
X015529Y021792D01*
X015853Y021687D02*
X015958Y021687D01*
X015958Y021056D01*
X015853Y021056D02*
X016064Y021056D01*
X016283Y021056D02*
X016388Y021056D01*
X016388Y021161D01*
X016283Y021161D01*
X016283Y021056D01*
X016605Y021161D02*
X016710Y021056D01*
X017026Y021056D01*
X017250Y021161D02*
X017355Y021056D01*
X017565Y021056D01*
X017670Y021161D01*
X017670Y021372D01*
X017565Y021477D01*
X017355Y021477D01*
X017250Y021372D01*
X017250Y021161D01*
X017026Y021477D02*
X016710Y021477D01*
X016605Y021372D01*
X016605Y021161D01*
X017894Y021056D02*
X017894Y021477D01*
X018000Y021477D01*
X018105Y021372D01*
X018210Y021477D01*
X018315Y021372D01*
X018315Y021056D01*
X018105Y021056D02*
X018105Y021372D01*
X014884Y021266D02*
X014779Y021161D01*
X014985Y017937D02*
X014985Y017306D01*
X015209Y017411D02*
X015314Y017306D01*
X015524Y017306D01*
X015629Y017411D01*
X015629Y017516D01*
X015524Y017622D01*
X015314Y017622D01*
X015209Y017727D01*
X015209Y017832D01*
X015314Y017937D01*
X015524Y017937D01*
X015629Y017832D01*
X015853Y017937D02*
X015853Y017306D01*
X016169Y017306D01*
X016274Y017411D01*
X016274Y017832D01*
X016169Y017937D01*
X015853Y017937D01*
X016498Y017832D02*
X016498Y017727D01*
X016603Y017622D01*
X016813Y017622D01*
X016918Y017516D01*
X016918Y017411D01*
X016813Y017306D01*
X016603Y017306D01*
X016498Y017411D01*
X016498Y017832D02*
X016603Y017937D01*
X016813Y017937D01*
X016918Y017832D01*
X017142Y017937D02*
X017142Y017306D01*
X017563Y017306D01*
X014985Y017622D02*
X014564Y017622D01*
X014340Y017622D02*
X013920Y017622D01*
X014564Y017937D02*
X014564Y017306D01*
X011876Y013483D02*
X011876Y013063D01*
X011981Y012958D01*
X011981Y013378D02*
X011771Y013378D01*
X011547Y013273D02*
X011547Y012958D01*
X011547Y013273D02*
X011442Y013378D01*
X011232Y013378D01*
X011127Y013273D01*
X010902Y013378D02*
X010902Y012853D01*
X010797Y012748D01*
X010692Y012748D01*
X010587Y012958D02*
X010482Y013063D01*
X010482Y013273D01*
X010587Y013378D01*
X010902Y013378D01*
X011127Y013588D02*
X011127Y012958D01*
X010902Y012958D02*
X010587Y012958D01*
X010263Y012958D02*
X010052Y012958D01*
X010158Y012958D02*
X010158Y013378D01*
X010052Y013378D01*
X009828Y013378D02*
X009513Y013378D01*
X009408Y013273D01*
X009513Y013168D01*
X009723Y013168D01*
X009828Y013063D01*
X009723Y012958D01*
X009408Y012958D01*
X010158Y013588D02*
X010158Y013693D01*
X010258Y012338D02*
X009838Y012338D01*
X010048Y012338D02*
X010048Y011708D01*
X010482Y011813D02*
X010587Y011918D01*
X010902Y011918D01*
X010902Y012023D02*
X010902Y011708D01*
X010587Y011708D01*
X010482Y011813D01*
X010587Y012128D02*
X010797Y012128D01*
X010902Y012023D01*
X011127Y012128D02*
X011127Y011813D01*
X011232Y011708D01*
X011547Y011708D01*
X011547Y012128D01*
X011771Y012128D02*
X012086Y012128D01*
X012192Y012023D01*
X012192Y011813D01*
X012086Y011708D01*
X011771Y011708D01*
X011771Y012338D01*
X011764Y011338D02*
X011554Y011338D01*
X011449Y011233D01*
X011449Y010813D01*
X011554Y010708D01*
X011764Y010708D01*
X011869Y010813D01*
X011764Y010918D02*
X011764Y011128D01*
X011554Y011128D01*
X011554Y010918D01*
X011764Y010918D01*
X011869Y011023D01*
X011869Y011233D01*
X011764Y011338D01*
X011124Y011338D02*
X011124Y011443D01*
X011124Y011128D02*
X011124Y010708D01*
X011019Y010708D02*
X011229Y010708D01*
X011124Y011128D02*
X011019Y011128D01*
X010800Y011023D02*
X010590Y011023D01*
X010365Y011023D02*
X010260Y011128D01*
X010050Y011128D01*
X010050Y010918D02*
X010365Y010918D01*
X010365Y011023D02*
X010365Y010708D01*
X010050Y010708D01*
X009945Y010813D01*
X010050Y010918D01*
X009723Y011128D02*
X009618Y011128D01*
X009408Y010918D01*
X009408Y010708D02*
X009408Y011128D01*
X009184Y011023D02*
X009079Y011128D01*
X008763Y011128D01*
X008763Y011338D02*
X008763Y010708D01*
X009079Y010708D01*
X009184Y010813D01*
X009184Y011023D01*
X008539Y011128D02*
X008539Y010708D01*
X008224Y010708D01*
X008119Y010813D01*
X008119Y011128D01*
X007895Y011023D02*
X007789Y011128D01*
X007579Y011128D01*
X007579Y010918D02*
X007895Y010918D01*
X007895Y011023D02*
X007895Y010708D01*
X007579Y010708D01*
X007474Y010813D01*
X007579Y010918D01*
X007255Y010708D02*
X007150Y010813D01*
X007150Y011233D01*
X007045Y011128D02*
X007255Y011128D01*
X007465Y011708D02*
X007255Y011918D01*
X007360Y011918D02*
X007045Y011918D01*
X007045Y011708D02*
X007045Y012338D01*
X007360Y012338D01*
X007465Y012233D01*
X007465Y012023D01*
X007360Y011918D01*
X007689Y011813D02*
X007794Y011918D01*
X008109Y011918D01*
X008109Y012023D02*
X008109Y011708D01*
X007794Y011708D01*
X007689Y011813D01*
X007794Y012128D02*
X008004Y012128D01*
X008109Y012023D01*
X008334Y012023D02*
X008544Y012023D01*
X008439Y012233D02*
X008544Y012338D01*
X008439Y012233D02*
X008439Y011708D01*
X008763Y011708D02*
X008973Y011708D01*
X008868Y011708D02*
X008868Y012128D01*
X008763Y012128D01*
X008868Y012338D02*
X008868Y012443D01*
X008329Y012958D02*
X008329Y013588D01*
X008119Y013588D02*
X008539Y013588D01*
X007895Y013273D02*
X007789Y013378D01*
X007579Y013378D01*
X007474Y013273D01*
X007474Y013063D01*
X007579Y012958D01*
X007789Y012958D01*
X007895Y013063D01*
X007895Y013273D01*
X007255Y012958D02*
X007045Y012958D01*
X007150Y012958D02*
X007150Y013588D01*
X007045Y013588D02*
X007255Y013588D01*
X010695Y011233D02*
X010695Y010708D01*
X010695Y011233D02*
X010800Y011338D01*
X011234Y010088D02*
X011234Y009458D01*
X011010Y009458D02*
X011010Y009878D01*
X011234Y009773D02*
X011339Y009878D01*
X011549Y009878D01*
X011654Y009773D01*
X011010Y009458D02*
X010695Y009458D01*
X010590Y009563D01*
X010590Y009878D01*
X010365Y010088D02*
X009945Y009668D01*
X010050Y009773D02*
X010365Y009458D01*
X009945Y009458D02*
X009945Y010088D01*
X009079Y009878D02*
X008763Y009668D01*
X009079Y009458D01*
X008763Y009458D02*
X008763Y010088D01*
X008539Y009878D02*
X008224Y009878D01*
X008119Y009773D01*
X008119Y009563D01*
X008224Y009458D01*
X008539Y009458D01*
X008763Y009088D02*
X008763Y008458D01*
X008763Y008668D02*
X009079Y008458D01*
X009300Y008458D02*
X009406Y008458D01*
X009406Y008563D01*
X009300Y008563D01*
X009300Y008458D01*
X009623Y008458D02*
X009623Y009088D01*
X009938Y008878D02*
X009623Y008668D01*
X009938Y008458D01*
X010160Y008563D02*
X010265Y008458D01*
X010580Y008458D01*
X010580Y008878D01*
X010804Y008773D02*
X010909Y008878D01*
X011120Y008878D01*
X011225Y008773D01*
X011225Y008458D01*
X011449Y008458D02*
X011659Y008458D01*
X011554Y008458D02*
X011554Y009088D01*
X011449Y009088D01*
X010804Y009088D02*
X010804Y008458D01*
X010160Y008563D02*
X010160Y008878D01*
X009079Y008878D02*
X008763Y008668D01*
X008539Y008458D02*
X008224Y008458D01*
X008119Y008563D01*
X008119Y008773D01*
X008224Y008878D01*
X008539Y008878D01*
X007794Y008878D02*
X007794Y008458D01*
X007689Y008458D02*
X007899Y008458D01*
X007794Y008878D02*
X007689Y008878D01*
X007794Y009088D02*
X007794Y009193D01*
X007794Y009458D02*
X007794Y009878D01*
X007689Y009878D01*
X007794Y010088D02*
X007794Y010193D01*
X007465Y010088D02*
X007465Y009458D01*
X007045Y010088D01*
X007045Y009458D01*
X007045Y008878D02*
X007360Y008878D01*
X007465Y008773D01*
X007465Y008458D01*
X007045Y008458D02*
X007045Y008878D01*
X007689Y009458D02*
X007899Y009458D01*
X012304Y010498D02*
X012409Y010498D01*
X012738Y010088D02*
X012738Y009458D01*
X012738Y009668D02*
X013053Y009878D01*
X012738Y009668D02*
X013053Y009458D01*
X009300Y003338D02*
X009300Y002708D01*
X009083Y002708D02*
X008978Y002708D01*
X008978Y002813D01*
X009083Y002813D01*
X009083Y002708D01*
X009083Y003023D02*
X008978Y003023D01*
X008978Y003128D01*
X009083Y003128D01*
X009083Y003023D01*
X013700Y033445D02*
X013805Y033445D01*
X013910Y033550D01*
X014345Y033970D02*
X014240Y034075D01*
X014135Y034075D01*
X010160Y034075D02*
X010160Y033760D01*
X008439Y036905D02*
X008439Y037430D01*
X008544Y037535D01*
X008763Y037325D02*
X008868Y037325D01*
X008544Y037220D02*
X008334Y037220D01*
X008109Y037220D02*
X008109Y036905D01*
X007794Y036905D01*
X007689Y037010D01*
X007794Y037115D01*
X008109Y037115D01*
X008109Y037220D02*
X008004Y037325D01*
X007794Y037325D01*
X007465Y037430D02*
X007465Y037220D01*
X007360Y037115D01*
X007045Y037115D01*
X007255Y037115D02*
X007465Y036905D01*
X007045Y036905D02*
X007045Y037535D01*
X007360Y037535D01*
X007465Y037430D01*
X007579Y038155D02*
X007474Y038260D01*
X007474Y038470D01*
X007579Y038575D01*
X007789Y038575D01*
X007895Y038470D01*
X007895Y038260D01*
X007789Y038155D01*
X007579Y038155D01*
X007255Y038155D02*
X007045Y038155D01*
X007150Y038155D02*
X007150Y038785D01*
X007045Y038785D02*
X007255Y038785D01*
X008119Y038785D02*
X008539Y038785D01*
X008329Y038785D02*
X008329Y038155D01*
X010158Y038785D02*
X010158Y038890D01*
D11*
X018552Y029850D02*
X018552Y029543D01*
X018705Y029390D01*
X018859Y029543D01*
X018859Y029850D01*
X019012Y029697D02*
X019089Y029697D01*
X019089Y029390D01*
X019012Y029390D02*
X019166Y029390D01*
X019319Y029390D02*
X019319Y029697D01*
X019549Y029697D01*
X019626Y029620D01*
X019626Y029390D01*
X019549Y028850D02*
X019319Y028850D01*
X019319Y028390D01*
X019549Y028390D01*
X019626Y028466D01*
X019626Y028773D01*
X019549Y028850D01*
X019166Y028850D02*
X019166Y028390D01*
X018859Y028850D01*
X018859Y028390D01*
X018705Y028466D02*
X018705Y028620D01*
X018552Y028620D01*
X018705Y028773D02*
X018629Y028850D01*
X018475Y028850D01*
X018398Y028773D01*
X018398Y028466D01*
X018475Y028390D01*
X018629Y028390D01*
X018705Y028466D01*
X019089Y029850D02*
X019089Y029927D01*
X026779Y032259D02*
X026779Y032489D01*
X026856Y032565D01*
X027009Y032565D01*
X027086Y032489D01*
X027086Y032259D01*
X027086Y032412D02*
X027240Y032565D01*
X027163Y032719D02*
X027240Y032796D01*
X027240Y032949D01*
X027163Y033026D01*
X027086Y033026D01*
X027009Y032949D01*
X027009Y032872D01*
X027009Y032949D02*
X026933Y033026D01*
X026856Y033026D01*
X026779Y032949D01*
X026779Y032796D01*
X026856Y032719D01*
X026856Y033179D02*
X026779Y033256D01*
X026779Y033409D01*
X026856Y033486D01*
X027163Y033486D01*
X027240Y033409D01*
X027240Y033256D01*
X027163Y033179D01*
X027009Y033256D02*
X027009Y033486D01*
X027009Y033256D02*
X026933Y033179D01*
X026856Y033179D01*
X027480Y033490D02*
X027480Y033950D01*
X027940Y033950D02*
X027940Y033490D01*
X028247Y033490D01*
X028400Y033490D02*
X028630Y033490D01*
X028707Y033566D01*
X028707Y033873D01*
X028630Y033950D01*
X028400Y033950D01*
X028400Y033490D01*
X028093Y033720D02*
X027940Y033720D01*
X027940Y033950D02*
X028247Y033950D01*
X028861Y033873D02*
X028861Y033797D01*
X028937Y033720D01*
X029091Y033720D01*
X029168Y033643D01*
X029168Y033566D01*
X029091Y033490D01*
X028937Y033490D01*
X028861Y033566D01*
X028861Y033643D01*
X028937Y033720D01*
X029091Y033720D02*
X029168Y033797D01*
X029168Y033873D01*
X029091Y033950D01*
X028937Y033950D01*
X028861Y033873D01*
X028937Y034740D02*
X029091Y034740D01*
X029168Y034816D01*
X029168Y035123D01*
X029091Y035200D01*
X028937Y035200D01*
X028861Y035123D01*
X028861Y035047D01*
X028937Y034970D01*
X029168Y034970D01*
X028937Y034740D02*
X028861Y034816D01*
X028707Y034816D02*
X028707Y035123D01*
X028630Y035200D01*
X028400Y035200D01*
X028400Y034740D01*
X028630Y034740D01*
X028707Y034816D01*
X028247Y034740D02*
X027940Y034740D01*
X027940Y035200D01*
X028247Y035200D01*
X028093Y034970D02*
X027940Y034970D01*
X027786Y034740D02*
X027480Y034740D01*
X027480Y035200D01*
X027480Y033490D02*
X027786Y033490D01*
X027940Y032700D02*
X027940Y032240D01*
X028247Y032240D01*
X028400Y032240D02*
X028630Y032240D01*
X028707Y032316D01*
X028707Y032623D01*
X028630Y032700D01*
X028400Y032700D01*
X028400Y032240D01*
X028093Y032470D02*
X027940Y032470D01*
X027940Y032700D02*
X028247Y032700D01*
X028861Y032700D02*
X029168Y032700D01*
X029168Y032623D01*
X028861Y032316D01*
X028861Y032240D01*
X027786Y032240D02*
X027480Y032240D01*
X027480Y032700D01*
X027240Y032259D02*
X026779Y032259D01*
X030530Y032350D02*
X030530Y031890D01*
X030530Y032043D02*
X030760Y032043D01*
X030836Y032120D01*
X030836Y032273D01*
X030760Y032350D01*
X030530Y032350D01*
X030683Y032043D02*
X030836Y031890D01*
X030990Y031966D02*
X031067Y031890D01*
X031220Y031890D01*
X031297Y031966D01*
X031297Y032043D01*
X031220Y032120D01*
X031143Y032120D01*
X031220Y032120D02*
X031297Y032197D01*
X031297Y032273D01*
X031220Y032350D01*
X031067Y032350D01*
X030990Y032273D01*
X031450Y032350D02*
X031450Y032120D01*
X031604Y032197D01*
X031680Y032197D01*
X031757Y032120D01*
X031757Y031966D01*
X031680Y031890D01*
X031527Y031890D01*
X031450Y031966D01*
X031450Y032350D02*
X031757Y032350D01*
X031680Y032890D02*
X031757Y032966D01*
X031757Y033043D01*
X031680Y033120D01*
X031450Y033120D01*
X031450Y032966D01*
X031527Y032890D01*
X031680Y032890D01*
X031450Y033120D02*
X031604Y033273D01*
X031757Y033350D01*
X031297Y033273D02*
X031297Y033197D01*
X031220Y033120D01*
X031297Y033043D01*
X031297Y032966D01*
X031220Y032890D01*
X031067Y032890D01*
X030990Y032966D01*
X030836Y032890D02*
X030683Y033043D01*
X030760Y033043D02*
X030530Y033043D01*
X030530Y032890D02*
X030530Y033350D01*
X030760Y033350D01*
X030836Y033273D01*
X030836Y033120D01*
X030760Y033043D01*
X030990Y033273D02*
X031067Y033350D01*
X031220Y033350D01*
X031297Y033273D01*
X031220Y033120D02*
X031143Y033120D01*
X031067Y033890D02*
X030990Y033966D01*
X031067Y033890D02*
X031220Y033890D01*
X031297Y033966D01*
X031297Y034043D01*
X031220Y034120D01*
X031143Y034120D01*
X031220Y034120D02*
X031297Y034197D01*
X031297Y034273D01*
X031220Y034350D01*
X031067Y034350D01*
X030990Y034273D01*
X030836Y034273D02*
X030836Y034120D01*
X030760Y034043D01*
X030530Y034043D01*
X030683Y034043D02*
X030836Y033890D01*
X030530Y033890D02*
X030530Y034350D01*
X030760Y034350D01*
X030836Y034273D01*
X031450Y034350D02*
X031757Y034350D01*
X031757Y034273D01*
X031450Y033966D01*
X031450Y033890D01*
X032629Y035140D02*
X032629Y035370D01*
X032706Y035447D01*
X032859Y035447D01*
X032936Y035370D01*
X032936Y035140D01*
X032936Y035293D02*
X033090Y035447D01*
X033013Y035600D02*
X033090Y035677D01*
X033090Y035830D01*
X033013Y035907D01*
X032936Y035907D01*
X032859Y035830D01*
X032859Y035754D01*
X032859Y035830D02*
X032783Y035907D01*
X032706Y035907D01*
X032629Y035830D01*
X032629Y035677D01*
X032706Y035600D01*
X032706Y036060D02*
X032629Y036137D01*
X032629Y036291D01*
X032706Y036367D01*
X032783Y036367D01*
X032859Y036291D01*
X032859Y036137D01*
X032783Y036060D01*
X032706Y036060D01*
X032859Y036137D02*
X032936Y036060D01*
X033013Y036060D01*
X033090Y036137D01*
X033090Y036291D01*
X033013Y036367D01*
X032936Y036367D01*
X032859Y036291D01*
X032140Y036177D02*
X032063Y036254D01*
X032140Y036177D02*
X032140Y036023D01*
X032063Y035947D01*
X031756Y035947D01*
X031679Y036023D01*
X031679Y036177D01*
X031756Y036254D01*
X031756Y036407D02*
X031679Y036484D01*
X031679Y036637D01*
X031756Y036714D01*
X031833Y036714D01*
X031909Y036637D01*
X031986Y036714D01*
X032063Y036714D01*
X032140Y036637D01*
X032140Y036484D01*
X032063Y036407D01*
X031909Y036560D02*
X031909Y036637D01*
X031679Y035793D02*
X031679Y035640D01*
X031679Y035716D02*
X032140Y035716D01*
X032140Y035640D02*
X032140Y035793D01*
X032629Y035140D02*
X033090Y035140D01*
X033306Y034036D02*
X033229Y033959D01*
X033229Y033806D01*
X033306Y033729D01*
X033383Y033729D01*
X033459Y033806D01*
X033459Y034036D01*
X033306Y034036D02*
X033613Y034036D01*
X033690Y033959D01*
X033690Y033806D01*
X033613Y033729D01*
X033613Y033576D02*
X033536Y033576D01*
X033459Y033499D01*
X033459Y033346D01*
X033383Y033269D01*
X033306Y033269D01*
X033229Y033346D01*
X033229Y033499D01*
X033306Y033576D01*
X033152Y033422D02*
X033766Y033422D01*
X033690Y033346D02*
X033690Y033499D01*
X033613Y033576D01*
X033690Y033346D02*
X033613Y033269D01*
X033613Y033115D02*
X033229Y033115D01*
X033229Y032809D02*
X033613Y032809D01*
X033690Y032885D01*
X033690Y033039D01*
X033613Y033115D01*
X028687Y028248D02*
X028534Y028094D01*
X028687Y028248D02*
X028687Y027787D01*
X028534Y027787D02*
X028841Y027787D01*
X028380Y027787D02*
X028073Y027787D01*
X028227Y027787D02*
X028227Y028248D01*
X028073Y028094D01*
X027920Y028248D02*
X027920Y027864D01*
X027843Y027787D01*
X027690Y027787D01*
X027613Y027864D01*
X027613Y028248D01*
X031756Y024116D02*
X031679Y024039D01*
X031679Y023885D01*
X031756Y023809D01*
X031756Y023655D02*
X031679Y023578D01*
X031679Y023425D01*
X031756Y023348D01*
X032063Y023348D01*
X032140Y023425D01*
X032140Y023578D01*
X032063Y023655D01*
X032140Y023809D02*
X031833Y024116D01*
X031756Y024116D01*
X032140Y024116D02*
X032140Y023809D01*
X032629Y023769D02*
X032629Y023462D01*
X032859Y023462D01*
X032783Y023616D01*
X032783Y023692D01*
X032859Y023769D01*
X033013Y023769D01*
X033090Y023692D01*
X033090Y023539D01*
X033013Y023462D01*
X033090Y023309D02*
X033090Y023002D01*
X032783Y023309D01*
X032706Y023309D01*
X032629Y023232D01*
X032629Y023078D01*
X032706Y023002D01*
X032706Y022848D02*
X032859Y022848D01*
X032936Y022771D01*
X032936Y022541D01*
X033090Y022541D02*
X032629Y022541D01*
X032629Y022771D01*
X032706Y022848D01*
X032936Y022695D02*
X033090Y022848D01*
X032140Y023041D02*
X032140Y023195D01*
X032140Y023118D02*
X031679Y023118D01*
X031679Y023041D02*
X031679Y023195D01*
X031680Y021752D02*
X031450Y021521D01*
X031757Y021521D01*
X031680Y021291D02*
X031680Y021752D01*
X031297Y021675D02*
X031220Y021752D01*
X031067Y021752D01*
X030990Y021675D01*
X030836Y021675D02*
X030836Y021521D01*
X030760Y021445D01*
X030530Y021445D01*
X030683Y021445D02*
X030836Y021291D01*
X030990Y021291D02*
X031297Y021598D01*
X031297Y021675D01*
X031297Y021291D02*
X030990Y021291D01*
X030836Y021675D02*
X030760Y021752D01*
X030530Y021752D01*
X030530Y021291D01*
X030530Y020752D02*
X030760Y020752D01*
X030836Y020675D01*
X030836Y020521D01*
X030760Y020445D01*
X030530Y020445D01*
X030683Y020445D02*
X030836Y020291D01*
X030990Y020291D02*
X031297Y020598D01*
X031297Y020675D01*
X031220Y020752D01*
X031067Y020752D01*
X030990Y020675D01*
X030990Y020291D02*
X031297Y020291D01*
X031450Y020368D02*
X031527Y020291D01*
X031680Y020291D01*
X031757Y020368D01*
X031757Y020445D01*
X031680Y020521D01*
X031604Y020521D01*
X031680Y020521D02*
X031757Y020598D01*
X031757Y020675D01*
X031680Y020752D01*
X031527Y020752D01*
X031450Y020675D01*
X030530Y020752D02*
X030530Y020291D01*
X030530Y019752D02*
X030760Y019752D01*
X030836Y019675D01*
X030836Y019521D01*
X030760Y019445D01*
X030530Y019445D01*
X030683Y019445D02*
X030836Y019291D01*
X030990Y019291D02*
X031297Y019598D01*
X031297Y019675D01*
X031220Y019752D01*
X031067Y019752D01*
X030990Y019675D01*
X030990Y019291D02*
X031297Y019291D01*
X031450Y019291D02*
X031757Y019598D01*
X031757Y019675D01*
X031680Y019752D01*
X031527Y019752D01*
X031450Y019675D01*
X031450Y019291D02*
X031757Y019291D01*
X030530Y019291D02*
X030530Y019752D01*
X029168Y019871D02*
X028861Y019871D01*
X029091Y020102D01*
X029091Y019641D01*
X028707Y019718D02*
X028630Y019641D01*
X028400Y019641D01*
X028400Y020102D01*
X028630Y020102D01*
X028707Y020025D01*
X028707Y019718D01*
X028247Y019641D02*
X027940Y019641D01*
X027940Y020102D01*
X028247Y020102D01*
X028093Y019871D02*
X027940Y019871D01*
X027786Y019641D02*
X027480Y019641D01*
X027480Y020102D01*
X027240Y020120D02*
X026933Y020427D01*
X026856Y020427D01*
X026779Y020351D01*
X026779Y020197D01*
X026856Y020120D01*
X026856Y019967D02*
X027009Y019967D01*
X027086Y019890D01*
X027086Y019660D01*
X027240Y019660D02*
X026779Y019660D01*
X026779Y019890D01*
X026856Y019967D01*
X027086Y019814D02*
X027240Y019967D01*
X027240Y020120D02*
X027240Y020427D01*
X027163Y020581D02*
X027240Y020658D01*
X027240Y020811D01*
X027163Y020888D01*
X027086Y020888D01*
X027009Y020811D01*
X027009Y020581D01*
X027163Y020581D01*
X027009Y020581D02*
X026856Y020734D01*
X026779Y020888D01*
X027480Y020891D02*
X027786Y020891D01*
X027940Y020891D02*
X028247Y020891D01*
X028400Y020891D02*
X028630Y020891D01*
X028707Y020968D01*
X028707Y021275D01*
X028630Y021352D01*
X028400Y021352D01*
X028400Y020891D01*
X028093Y021121D02*
X027940Y021121D01*
X027940Y020891D02*
X027940Y021352D01*
X028247Y021352D01*
X028861Y021352D02*
X028861Y021121D01*
X029014Y021198D01*
X029091Y021198D01*
X029168Y021121D01*
X029168Y020968D01*
X029091Y020891D01*
X028937Y020891D01*
X028861Y020968D01*
X028861Y021352D02*
X029168Y021352D01*
X029091Y022141D02*
X029168Y022218D01*
X029168Y022295D01*
X029091Y022371D01*
X028861Y022371D01*
X028861Y022218D01*
X028937Y022141D01*
X029091Y022141D01*
X028861Y022371D02*
X029014Y022525D01*
X029168Y022602D01*
X028707Y022525D02*
X028630Y022602D01*
X028400Y022602D01*
X028400Y022141D01*
X028630Y022141D01*
X028707Y022218D01*
X028707Y022525D01*
X028247Y022602D02*
X027940Y022602D01*
X027940Y022141D01*
X028247Y022141D01*
X028093Y022371D02*
X027940Y022371D01*
X027786Y022141D02*
X027480Y022141D01*
X027480Y022602D01*
X027480Y021352D02*
X027480Y020891D01*
X033152Y020824D02*
X033766Y020824D01*
X033690Y020901D02*
X033613Y020977D01*
X033536Y020977D01*
X033459Y020901D01*
X033459Y020747D01*
X033383Y020670D01*
X033306Y020670D01*
X033229Y020747D01*
X033229Y020901D01*
X033306Y020977D01*
X033229Y021131D02*
X033459Y021131D01*
X033383Y021284D01*
X033383Y021361D01*
X033459Y021438D01*
X033613Y021438D01*
X033690Y021361D01*
X033690Y021208D01*
X033613Y021131D01*
X033690Y020901D02*
X033690Y020747D01*
X033613Y020670D01*
X033613Y020517D02*
X033229Y020517D01*
X033229Y020210D02*
X033613Y020210D01*
X033690Y020287D01*
X033690Y020440D01*
X033613Y020517D01*
X033229Y021131D02*
X033229Y021438D01*
X028841Y015649D02*
X028534Y015649D01*
X028380Y015649D02*
X028380Y015266D01*
X028303Y015189D01*
X028150Y015189D01*
X028073Y015266D01*
X028073Y015649D01*
X028534Y015266D02*
X028534Y015189D01*
X028534Y015266D02*
X028841Y015573D01*
X028841Y015649D01*
X032140Y011517D02*
X032140Y011210D01*
X032140Y011364D02*
X031679Y011364D01*
X031833Y011210D01*
X031756Y011057D02*
X031679Y010980D01*
X031679Y010826D01*
X031756Y010750D01*
X032063Y010750D01*
X032140Y010826D01*
X032140Y010980D01*
X032063Y011057D01*
X032140Y010596D02*
X032140Y010443D01*
X032140Y010520D02*
X031679Y010520D01*
X031679Y010596D02*
X031679Y010443D01*
X032629Y010557D02*
X033090Y010557D01*
X033090Y010710D02*
X033090Y010403D01*
X033090Y010250D02*
X032936Y010096D01*
X032936Y010173D02*
X032936Y009943D01*
X033090Y009943D02*
X032629Y009943D01*
X032629Y010173D01*
X032706Y010250D01*
X032859Y010250D01*
X032936Y010173D01*
X032783Y010403D02*
X032629Y010557D01*
X032706Y010864D02*
X032629Y010940D01*
X032629Y011094D01*
X032706Y011171D01*
X032783Y011171D01*
X033090Y010864D01*
X033090Y011171D01*
X031604Y009153D02*
X031604Y008693D01*
X031757Y008693D02*
X031450Y008693D01*
X031297Y008693D02*
X030990Y008693D01*
X031143Y008693D02*
X031143Y009153D01*
X030990Y009000D01*
X030836Y009076D02*
X030760Y009153D01*
X030530Y009153D01*
X030530Y008693D01*
X030530Y008846D02*
X030760Y008846D01*
X030836Y008923D01*
X030836Y009076D01*
X030683Y008846D02*
X030836Y008693D01*
X030760Y008153D02*
X030836Y008076D01*
X030836Y007923D01*
X030760Y007846D01*
X030530Y007846D01*
X030683Y007846D02*
X030836Y007693D01*
X030990Y007693D02*
X031297Y007693D01*
X031143Y007693D02*
X031143Y008153D01*
X030990Y008000D01*
X030760Y008153D02*
X030530Y008153D01*
X030530Y007693D01*
X031450Y007770D02*
X031757Y008076D01*
X031757Y007770D01*
X031680Y007693D01*
X031527Y007693D01*
X031450Y007770D01*
X031450Y008076D01*
X031527Y008153D01*
X031680Y008153D01*
X031757Y008076D01*
X031450Y009000D02*
X031604Y009153D01*
X033229Y008686D02*
X033690Y008686D01*
X033690Y008839D02*
X033690Y008532D01*
X033613Y008379D02*
X033536Y008379D01*
X033459Y008302D01*
X033459Y008149D01*
X033383Y008072D01*
X033306Y008072D01*
X033229Y008149D01*
X033229Y008302D01*
X033306Y008379D01*
X033383Y008532D02*
X033229Y008686D01*
X033152Y008226D02*
X033766Y008226D01*
X033690Y008302D02*
X033613Y008379D01*
X033690Y008302D02*
X033690Y008149D01*
X033613Y008072D01*
X033613Y007919D02*
X033229Y007919D01*
X033229Y007612D02*
X033613Y007612D01*
X033690Y007688D01*
X033690Y007842D01*
X033613Y007919D01*
X031297Y007076D02*
X031220Y007153D01*
X031067Y007153D01*
X030990Y007076D01*
X030990Y007000D01*
X031067Y006923D01*
X031297Y006923D01*
X031297Y006770D02*
X031297Y007076D01*
X031297Y006770D02*
X031220Y006693D01*
X031067Y006693D01*
X030990Y006770D01*
X030836Y006693D02*
X030683Y006846D01*
X030760Y006846D02*
X030530Y006846D01*
X030530Y006693D02*
X030530Y007153D01*
X030760Y007153D01*
X030836Y007076D01*
X030836Y006923D01*
X030760Y006846D01*
X029168Y007043D02*
X028861Y007043D01*
X029014Y007043D02*
X029014Y007503D01*
X028861Y007350D01*
X028707Y007426D02*
X028630Y007503D01*
X028400Y007503D01*
X028400Y007043D01*
X028630Y007043D01*
X028707Y007120D01*
X028707Y007426D01*
X028247Y007503D02*
X027940Y007503D01*
X027940Y007043D01*
X028247Y007043D01*
X028093Y007273D02*
X027940Y007273D01*
X027786Y007043D02*
X027480Y007043D01*
X027480Y007503D01*
X027240Y007522D02*
X027240Y007829D01*
X027240Y007676D02*
X026779Y007676D01*
X026933Y007522D01*
X027009Y007369D02*
X027086Y007292D01*
X027086Y007062D01*
X027086Y007215D02*
X027240Y007369D01*
X027009Y007369D02*
X026856Y007369D01*
X026779Y007292D01*
X026779Y007062D01*
X027240Y007062D01*
X027163Y007982D02*
X027240Y008059D01*
X027240Y008213D01*
X027163Y008289D01*
X027086Y008289D01*
X027009Y008213D01*
X027009Y008136D01*
X027009Y008213D02*
X026933Y008289D01*
X026856Y008289D01*
X026779Y008213D01*
X026779Y008059D01*
X026856Y007982D01*
X027480Y008293D02*
X027786Y008293D01*
X027940Y008293D02*
X028247Y008293D01*
X028400Y008293D02*
X028630Y008293D01*
X028707Y008370D01*
X028707Y008676D01*
X028630Y008753D01*
X028400Y008753D01*
X028400Y008293D01*
X028093Y008523D02*
X027940Y008523D01*
X027940Y008753D02*
X027940Y008293D01*
X027940Y008753D02*
X028247Y008753D01*
X028861Y008676D02*
X028937Y008753D01*
X029091Y008753D01*
X029168Y008676D01*
X029168Y008600D01*
X028861Y008293D01*
X029168Y008293D01*
X029091Y009543D02*
X028937Y009543D01*
X028861Y009620D01*
X028707Y009620D02*
X028707Y009926D01*
X028630Y010003D01*
X028400Y010003D01*
X028400Y009543D01*
X028630Y009543D01*
X028707Y009620D01*
X028861Y009926D02*
X028937Y010003D01*
X029091Y010003D01*
X029168Y009926D01*
X029168Y009850D01*
X029091Y009773D01*
X029168Y009696D01*
X029168Y009620D01*
X029091Y009543D01*
X029091Y009773D02*
X029014Y009773D01*
X028247Y009543D02*
X027940Y009543D01*
X027940Y010003D01*
X028247Y010003D01*
X028093Y009773D02*
X027940Y009773D01*
X027786Y009543D02*
X027480Y009543D01*
X027480Y010003D01*
X027480Y008753D02*
X027480Y008293D01*
X028073Y003051D02*
X028073Y002667D01*
X028150Y002590D01*
X028303Y002590D01*
X028380Y002667D01*
X028380Y003051D01*
X028534Y002974D02*
X028610Y003051D01*
X028764Y003051D01*
X028841Y002974D01*
X028841Y002897D01*
X028764Y002821D01*
X028841Y002744D01*
X028841Y002667D01*
X028764Y002590D01*
X028610Y002590D01*
X028534Y002667D01*
X028687Y002821D02*
X028764Y002821D01*
X019626Y003270D02*
X019626Y003576D01*
X019549Y003653D01*
X019319Y003653D01*
X019319Y003193D01*
X019549Y003193D01*
X019626Y003270D01*
X019166Y003193D02*
X019166Y003653D01*
X018859Y003653D02*
X019166Y003193D01*
X018859Y003193D02*
X018859Y003653D01*
X018705Y003576D02*
X018629Y003653D01*
X018475Y003653D01*
X018398Y003576D01*
X018398Y003270D01*
X018475Y003193D01*
X018629Y003193D01*
X018705Y003270D01*
X018705Y003423D01*
X018552Y003423D01*
X018705Y004193D02*
X018859Y004346D01*
X018859Y004653D01*
X019012Y004500D02*
X019089Y004500D01*
X019089Y004193D01*
X019012Y004193D02*
X019166Y004193D01*
X019319Y004193D02*
X019319Y004500D01*
X019549Y004500D01*
X019626Y004423D01*
X019626Y004193D01*
X019089Y004653D02*
X019089Y004730D01*
X018552Y004653D02*
X018552Y004346D01*
X018705Y004193D01*
X018629Y015791D02*
X018705Y015868D01*
X018705Y016021D01*
X018552Y016021D01*
X018398Y015868D02*
X018475Y015791D01*
X018629Y015791D01*
X018859Y015791D02*
X018859Y016252D01*
X019166Y015791D01*
X019166Y016252D01*
X019319Y016252D02*
X019319Y015791D01*
X019549Y015791D01*
X019626Y015868D01*
X019626Y016175D01*
X019549Y016252D01*
X019319Y016252D01*
X018705Y016175D02*
X018629Y016252D01*
X018475Y016252D01*
X018398Y016175D01*
X018398Y015868D01*
X018705Y016791D02*
X018552Y016945D01*
X018552Y017252D01*
X018859Y017252D02*
X018859Y016945D01*
X018705Y016791D01*
X019012Y016791D02*
X019166Y016791D01*
X019089Y016791D02*
X019089Y017098D01*
X019012Y017098D01*
X019089Y017252D02*
X019089Y017328D01*
X019319Y017098D02*
X019549Y017098D01*
X019626Y017021D01*
X019626Y016791D01*
X019319Y016791D02*
X019319Y017098D01*
D12*
X021663Y016100D02*
X021663Y015853D01*
X021725Y015792D01*
X021848Y015792D01*
X021910Y015853D01*
X022032Y015792D02*
X022278Y016039D01*
X022278Y016100D01*
X022217Y016162D01*
X022093Y016162D01*
X022032Y016100D01*
X021910Y016100D02*
X021848Y016162D01*
X021725Y016162D01*
X021663Y016100D01*
X022032Y015792D02*
X022278Y015792D01*
X022400Y015977D02*
X022647Y015977D01*
X022585Y016162D02*
X022400Y015977D01*
X022585Y015792D02*
X022585Y016162D01*
X024363Y015400D02*
X024363Y015153D01*
X024425Y015092D01*
X024548Y015092D01*
X024610Y015153D01*
X024732Y015153D02*
X024793Y015092D01*
X024917Y015092D01*
X024978Y015153D01*
X024978Y015215D01*
X024917Y015277D01*
X024855Y015277D01*
X024917Y015277D02*
X024978Y015339D01*
X024978Y015400D01*
X024917Y015462D01*
X024793Y015462D01*
X024732Y015400D01*
X024610Y015400D02*
X024548Y015462D01*
X024425Y015462D01*
X024363Y015400D01*
X025100Y015277D02*
X025347Y015277D01*
X025285Y015462D02*
X025100Y015277D01*
X025285Y015092D02*
X025285Y015462D01*
X025813Y015250D02*
X025813Y015003D01*
X025875Y014942D01*
X025998Y014942D01*
X026060Y015003D01*
X026182Y014942D02*
X026428Y015189D01*
X026428Y015250D01*
X026367Y015312D01*
X026243Y015312D01*
X026182Y015250D01*
X026060Y015250D02*
X025998Y015312D01*
X025875Y015312D01*
X025813Y015250D01*
X026182Y014942D02*
X026428Y014942D01*
X026550Y015003D02*
X026612Y014942D01*
X026735Y014942D01*
X026797Y015003D01*
X026797Y015065D01*
X026735Y015127D01*
X026550Y015127D01*
X026550Y015003D01*
X026550Y015127D02*
X026673Y015250D01*
X026797Y015312D01*
X025738Y017143D02*
X025491Y017143D01*
X025430Y017204D01*
X025430Y017328D01*
X025491Y017389D01*
X025491Y017511D02*
X025430Y017573D01*
X025430Y017696D01*
X025491Y017758D01*
X025553Y017758D01*
X025800Y017511D01*
X025800Y017758D01*
X025800Y017879D02*
X025738Y017879D01*
X025491Y018126D01*
X025430Y018126D01*
X025430Y017879D01*
X025738Y017389D02*
X025800Y017328D01*
X025800Y017204D01*
X025738Y017143D01*
X026393Y018981D02*
X026516Y018981D01*
X026578Y019042D01*
X026699Y018981D02*
X026946Y019228D01*
X026946Y019289D01*
X026884Y019351D01*
X026761Y019351D01*
X026699Y019289D01*
X026578Y019289D02*
X026516Y019351D01*
X026393Y019351D01*
X026331Y019289D01*
X026331Y019042D01*
X026393Y018981D01*
X026699Y018981D02*
X026946Y018981D01*
X027067Y019042D02*
X027129Y018981D01*
X027253Y018981D01*
X027314Y019042D01*
X027314Y019166D01*
X027253Y019228D01*
X027191Y019228D01*
X027067Y019166D01*
X027067Y019351D01*
X027314Y019351D01*
X024132Y021854D02*
X024132Y021916D01*
X024070Y021978D01*
X023885Y021978D01*
X023885Y021854D01*
X023947Y021793D01*
X024070Y021793D01*
X024132Y021854D01*
X024009Y022101D02*
X023885Y021978D01*
X023764Y021978D02*
X023517Y021978D01*
X023396Y022101D02*
X023396Y021854D01*
X023334Y021793D01*
X023210Y021793D01*
X023149Y021854D01*
X023149Y022101D01*
X023210Y022163D01*
X023334Y022163D01*
X023396Y022101D01*
X023027Y022163D02*
X022780Y022163D01*
X022780Y021793D01*
X023027Y021793D01*
X022904Y021978D02*
X022780Y021978D01*
X022659Y021793D02*
X022659Y022163D01*
X022412Y022163D02*
X022659Y021793D01*
X022412Y021793D02*
X022412Y022163D01*
X021922Y022039D02*
X021675Y021793D01*
X021554Y021854D02*
X021554Y021978D01*
X021492Y022039D01*
X021369Y022039D01*
X021307Y021978D01*
X021307Y021854D01*
X021369Y021793D01*
X021492Y021793D01*
X021554Y021854D01*
X021675Y022039D02*
X021922Y021793D01*
X021185Y021793D02*
X021062Y021793D01*
X021123Y021793D02*
X021123Y022163D01*
X021062Y022163D01*
X020878Y022039D02*
X020693Y022039D01*
X020572Y022039D02*
X020572Y021793D01*
X020387Y021793D01*
X020325Y021854D01*
X020325Y022039D01*
X020693Y022163D02*
X020693Y021793D01*
X020878Y021793D01*
X020940Y021854D01*
X020940Y021978D01*
X020878Y022039D01*
X024009Y022101D02*
X024132Y022163D01*
X025091Y024643D02*
X025338Y024643D01*
X025400Y024704D01*
X025400Y024828D01*
X025338Y024889D01*
X025338Y025011D02*
X025400Y025073D01*
X025400Y025196D01*
X025338Y025258D01*
X025277Y025258D01*
X025215Y025196D01*
X025215Y025134D01*
X025215Y025196D02*
X025153Y025258D01*
X025091Y025258D01*
X025030Y025196D01*
X025030Y025073D01*
X025091Y025011D01*
X025091Y024889D02*
X025030Y024828D01*
X025030Y024704D01*
X025091Y024643D01*
X025091Y025379D02*
X025030Y025441D01*
X025030Y025564D01*
X025091Y025626D01*
X025153Y025626D01*
X025215Y025564D01*
X025277Y025626D01*
X025338Y025626D01*
X025400Y025564D01*
X025400Y025441D01*
X025338Y025379D01*
X025215Y025503D02*
X025215Y025564D01*
X025875Y027540D02*
X025998Y027540D01*
X026060Y027602D01*
X026182Y027725D02*
X026428Y027725D01*
X026550Y027725D02*
X026735Y027725D01*
X026797Y027664D01*
X026797Y027602D01*
X026735Y027540D01*
X026612Y027540D01*
X026550Y027602D01*
X026550Y027725D01*
X026673Y027849D01*
X026797Y027911D01*
X026367Y027911D02*
X026182Y027725D01*
X026060Y027849D02*
X025998Y027911D01*
X025875Y027911D01*
X025813Y027849D01*
X025813Y027602D01*
X025875Y027540D01*
X026367Y027540D02*
X026367Y027911D01*
X025347Y027875D02*
X025100Y027875D01*
X025285Y028061D01*
X025285Y027690D01*
X024978Y027752D02*
X024978Y027875D01*
X024917Y027937D01*
X024855Y027937D01*
X024732Y027875D01*
X024732Y028061D01*
X024978Y028061D01*
X024978Y027752D02*
X024917Y027690D01*
X024793Y027690D01*
X024732Y027752D01*
X024610Y027752D02*
X024548Y027690D01*
X024425Y027690D01*
X024363Y027752D01*
X024363Y027999D01*
X024425Y028061D01*
X024548Y028061D01*
X024610Y027999D01*
X025491Y029741D02*
X025738Y029741D01*
X025800Y029803D01*
X025800Y029926D01*
X025738Y029988D01*
X025615Y030109D02*
X025615Y030356D01*
X025738Y030478D02*
X025491Y030724D01*
X025430Y030724D01*
X025430Y030478D01*
X025430Y030294D02*
X025615Y030109D01*
X025491Y029988D02*
X025430Y029926D01*
X025430Y029803D01*
X025491Y029741D01*
X025430Y030294D02*
X025800Y030294D01*
X025800Y030478D02*
X025738Y030478D01*
X026393Y031579D02*
X026516Y031579D01*
X026578Y031641D01*
X026699Y031764D02*
X026946Y031764D01*
X027067Y031764D02*
X027191Y031826D01*
X027253Y031826D01*
X027314Y031764D01*
X027314Y031641D01*
X027253Y031579D01*
X027129Y031579D01*
X027067Y031641D01*
X027067Y031764D02*
X027067Y031949D01*
X027314Y031949D01*
X026884Y031949D02*
X026699Y031764D01*
X026578Y031888D02*
X026516Y031949D01*
X026393Y031949D01*
X026331Y031888D01*
X026331Y031641D01*
X026393Y031579D01*
X026884Y031579D02*
X026884Y031949D01*
X024132Y034453D02*
X024132Y034514D01*
X024070Y034576D01*
X023885Y034576D01*
X023885Y034453D01*
X023947Y034391D01*
X024070Y034391D01*
X024132Y034453D01*
X024009Y034700D02*
X023885Y034576D01*
X023764Y034576D02*
X023517Y034576D01*
X023396Y034453D02*
X023396Y034700D01*
X023334Y034761D01*
X023210Y034761D01*
X023149Y034700D01*
X023149Y034453D01*
X023210Y034391D01*
X023334Y034391D01*
X023396Y034453D01*
X023027Y034391D02*
X022780Y034391D01*
X022780Y034761D01*
X023027Y034761D01*
X022904Y034576D02*
X022780Y034576D01*
X022659Y034391D02*
X022659Y034761D01*
X022412Y034761D02*
X022659Y034391D01*
X022412Y034391D02*
X022412Y034761D01*
X021922Y034638D02*
X021675Y034391D01*
X021554Y034453D02*
X021554Y034576D01*
X021492Y034638D01*
X021369Y034638D01*
X021307Y034576D01*
X021307Y034453D01*
X021369Y034391D01*
X021492Y034391D01*
X021554Y034453D01*
X021675Y034638D02*
X021922Y034391D01*
X021185Y034391D02*
X021062Y034391D01*
X021123Y034391D02*
X021123Y034761D01*
X021062Y034761D01*
X020878Y034638D02*
X020693Y034638D01*
X020572Y034638D02*
X020572Y034391D01*
X020387Y034391D01*
X020325Y034453D01*
X020325Y034638D01*
X020693Y034761D02*
X020693Y034391D01*
X020878Y034391D01*
X020940Y034453D01*
X020940Y034576D01*
X020878Y034638D01*
X024009Y034700D02*
X024132Y034761D01*
X025091Y037241D02*
X025338Y037241D01*
X025400Y037303D01*
X025400Y037426D01*
X025338Y037488D01*
X025338Y037609D02*
X025400Y037671D01*
X025400Y037794D01*
X025338Y037856D01*
X025215Y037856D01*
X025153Y037794D01*
X025153Y037733D01*
X025215Y037609D01*
X025030Y037609D01*
X025030Y037856D01*
X025091Y037978D02*
X025030Y038039D01*
X025030Y038163D01*
X025091Y038224D01*
X025153Y038224D01*
X025215Y038163D01*
X025277Y038224D01*
X025338Y038224D01*
X025400Y038163D01*
X025400Y038039D01*
X025338Y037978D01*
X025215Y038101D02*
X025215Y038163D01*
X025091Y037488D02*
X025030Y037426D01*
X025030Y037303D01*
X025091Y037241D01*
X028530Y037163D02*
X028591Y037224D01*
X028653Y037224D01*
X028715Y037163D01*
X028715Y037039D01*
X028653Y036978D01*
X028591Y036978D01*
X028530Y037039D01*
X028530Y037163D01*
X028715Y037163D02*
X028777Y037224D01*
X028838Y037224D01*
X028900Y037163D01*
X028900Y037039D01*
X028838Y036978D01*
X028777Y036978D01*
X028715Y037039D01*
X028715Y036856D02*
X028715Y036609D01*
X028530Y036794D01*
X028900Y036794D01*
X028838Y036488D02*
X028900Y036426D01*
X028900Y036303D01*
X028838Y036241D01*
X028591Y036241D01*
X028530Y036303D01*
X028530Y036426D01*
X028591Y036488D01*
X029530Y036426D02*
X029530Y036303D01*
X029591Y036241D01*
X029838Y036241D01*
X029900Y036303D01*
X029900Y036426D01*
X029838Y036488D01*
X029715Y036609D02*
X029715Y036856D01*
X029653Y036978D02*
X029715Y037039D01*
X029715Y037224D01*
X029838Y037224D02*
X029591Y037224D01*
X029530Y037163D01*
X029530Y037039D01*
X029591Y036978D01*
X029653Y036978D01*
X029838Y036978D02*
X029900Y037039D01*
X029900Y037163D01*
X029838Y037224D01*
X029900Y036794D02*
X029530Y036794D01*
X029715Y036609D01*
X029591Y036488D02*
X029530Y036426D01*
X033030Y036758D02*
X033401Y036758D01*
X033401Y036635D02*
X033401Y036882D01*
X033154Y036635D02*
X033030Y036758D01*
X034524Y037310D02*
X034709Y037310D01*
X034648Y037434D01*
X034648Y037495D01*
X034709Y037557D01*
X034833Y037557D01*
X034895Y037495D01*
X034895Y037372D01*
X034833Y037310D01*
X034524Y037310D02*
X034524Y037557D01*
X034709Y037679D02*
X034709Y037925D01*
X034524Y037864D02*
X034709Y037679D01*
X034524Y037864D02*
X034895Y037864D01*
X039564Y037864D02*
X039749Y037679D01*
X039749Y037925D01*
X039934Y037864D02*
X039564Y037864D01*
X039749Y037557D02*
X039749Y037310D01*
X039564Y037495D01*
X039934Y037495D01*
X041100Y036988D02*
X041100Y036865D01*
X041162Y036803D01*
X041285Y036682D02*
X041285Y036435D01*
X041100Y036620D01*
X041470Y036620D01*
X041408Y036803D02*
X041470Y036865D01*
X041470Y036988D01*
X041408Y037050D01*
X041347Y037050D01*
X041285Y036988D01*
X041285Y036926D01*
X041285Y036988D02*
X041223Y037050D01*
X041162Y037050D01*
X041100Y036988D01*
X032697Y031149D02*
X032697Y031087D01*
X032635Y031025D01*
X032697Y030964D01*
X032697Y030902D01*
X032635Y030840D01*
X032512Y030840D01*
X032450Y030902D01*
X032328Y031025D02*
X032082Y031025D01*
X032267Y031211D01*
X032267Y030840D01*
X031960Y030902D02*
X031898Y030840D01*
X031775Y030840D01*
X031713Y030902D01*
X031713Y031149D01*
X031775Y031211D01*
X031898Y031211D01*
X031960Y031149D01*
X032450Y031149D02*
X032512Y031211D01*
X032635Y031211D01*
X032697Y031149D01*
X032635Y031025D02*
X032573Y031025D01*
X033030Y029450D02*
X033092Y029326D01*
X033216Y029203D01*
X033216Y029388D01*
X033277Y029450D01*
X033339Y029450D01*
X033401Y029388D01*
X033401Y029265D01*
X033339Y029203D01*
X033216Y029203D01*
X033401Y029082D02*
X033401Y028835D01*
X033401Y028958D02*
X033030Y028958D01*
X033154Y028835D01*
X033134Y028099D02*
X032949Y027914D01*
X033196Y027914D01*
X033317Y028038D02*
X033379Y028099D01*
X033503Y028099D01*
X033564Y028038D01*
X033564Y027976D01*
X033317Y027729D01*
X033564Y027729D01*
X033134Y027729D02*
X033134Y028099D01*
X032828Y028038D02*
X032766Y028099D01*
X032643Y028099D01*
X032581Y028038D01*
X032581Y027791D01*
X032643Y027729D01*
X032766Y027729D01*
X032828Y027791D01*
X032564Y027679D02*
X032317Y027679D01*
X032441Y027679D02*
X032441Y028049D01*
X032317Y027926D01*
X032196Y027864D02*
X031949Y027864D01*
X032134Y028049D01*
X032134Y027679D01*
X031828Y027741D02*
X031766Y027679D01*
X031643Y027679D01*
X031581Y027741D01*
X031581Y027988D01*
X031643Y028049D01*
X031766Y028049D01*
X031828Y027988D01*
X034544Y028064D02*
X034914Y028064D01*
X034914Y027941D02*
X034914Y028188D01*
X034914Y028309D02*
X034852Y028309D01*
X034606Y028556D01*
X034544Y028556D01*
X034544Y028309D01*
X034544Y028064D02*
X034667Y027941D01*
X034709Y025327D02*
X034709Y025080D01*
X034524Y025265D01*
X034895Y025265D01*
X034833Y024959D02*
X034895Y024897D01*
X034895Y024774D01*
X034833Y024712D01*
X034709Y024712D02*
X034648Y024835D01*
X034648Y024897D01*
X034709Y024959D01*
X034833Y024959D01*
X034709Y024712D02*
X034524Y024712D01*
X034524Y024959D01*
X033401Y024283D02*
X033401Y024036D01*
X033401Y024160D02*
X033030Y024160D01*
X033154Y024036D01*
X029900Y024011D02*
X029653Y024258D01*
X029591Y024258D01*
X029530Y024196D01*
X029530Y024073D01*
X029591Y024011D01*
X029591Y023889D02*
X029530Y023828D01*
X029530Y023704D01*
X029591Y023643D01*
X029838Y023643D01*
X029900Y023704D01*
X029900Y023828D01*
X029838Y023889D01*
X029900Y024011D02*
X029900Y024258D01*
X029838Y024379D02*
X029900Y024441D01*
X029900Y024564D01*
X029838Y024626D01*
X029591Y024626D01*
X029530Y024564D01*
X029530Y024441D01*
X029591Y024379D01*
X029653Y024379D01*
X029715Y024441D01*
X029715Y024626D01*
X028900Y024564D02*
X028900Y024441D01*
X028838Y024379D01*
X028777Y024379D01*
X028715Y024441D01*
X028715Y024564D01*
X028777Y024626D01*
X028838Y024626D01*
X028900Y024564D01*
X028715Y024564D02*
X028653Y024626D01*
X028591Y024626D01*
X028530Y024564D01*
X028530Y024441D01*
X028591Y024379D01*
X028653Y024379D01*
X028715Y024441D01*
X028653Y024258D02*
X028591Y024258D01*
X028530Y024196D01*
X028530Y024073D01*
X028591Y024011D01*
X028591Y023889D02*
X028530Y023828D01*
X028530Y023704D01*
X028591Y023643D01*
X028838Y023643D01*
X028900Y023704D01*
X028900Y023828D01*
X028838Y023889D01*
X028900Y024011D02*
X028653Y024258D01*
X028900Y024258D02*
X028900Y024011D01*
X022585Y028390D02*
X022585Y028761D01*
X022400Y028575D01*
X022647Y028575D01*
X022278Y028575D02*
X022032Y028575D01*
X022217Y028761D01*
X022217Y028390D01*
X021910Y028452D02*
X021848Y028390D01*
X021725Y028390D01*
X021663Y028452D01*
X021663Y028699D01*
X021725Y028761D01*
X021848Y028761D01*
X021910Y028699D01*
X031775Y018612D02*
X031713Y018550D01*
X031713Y018303D01*
X031775Y018242D01*
X031898Y018242D01*
X031960Y018303D01*
X032082Y018242D02*
X032328Y018489D01*
X032328Y018550D01*
X032267Y018612D01*
X032143Y018612D01*
X032082Y018550D01*
X031960Y018550D02*
X031898Y018612D01*
X031775Y018612D01*
X032082Y018242D02*
X032328Y018242D01*
X032450Y018303D02*
X032512Y018242D01*
X032635Y018242D01*
X032697Y018303D01*
X032697Y018365D01*
X032635Y018427D01*
X032573Y018427D01*
X032635Y018427D02*
X032697Y018489D01*
X032697Y018550D01*
X032635Y018612D01*
X032512Y018612D01*
X032450Y018550D01*
X033030Y016851D02*
X033092Y016728D01*
X033216Y016605D01*
X033216Y016790D01*
X033277Y016851D01*
X033339Y016851D01*
X033401Y016790D01*
X033401Y016666D01*
X033339Y016605D01*
X033216Y016605D01*
X033401Y016483D02*
X033401Y016236D01*
X033401Y016360D02*
X033030Y016360D01*
X033154Y016236D01*
X033134Y015501D02*
X033011Y015501D01*
X032949Y015439D01*
X032828Y015439D02*
X032766Y015501D01*
X032643Y015501D01*
X032581Y015439D01*
X032581Y015192D01*
X032643Y015131D01*
X032766Y015131D01*
X032828Y015192D01*
X032949Y015131D02*
X033196Y015378D01*
X033196Y015439D01*
X033134Y015501D01*
X033317Y015439D02*
X033379Y015501D01*
X033503Y015501D01*
X033564Y015439D01*
X033564Y015378D01*
X033317Y015131D01*
X033564Y015131D01*
X033196Y015131D02*
X032949Y015131D01*
X032564Y015081D02*
X032317Y015081D01*
X032196Y015081D02*
X031949Y015081D01*
X032196Y015328D01*
X032196Y015389D01*
X032134Y015451D01*
X032011Y015451D01*
X031949Y015389D01*
X031828Y015389D02*
X031766Y015451D01*
X031643Y015451D01*
X031581Y015389D01*
X031581Y015142D01*
X031643Y015081D01*
X031766Y015081D01*
X031828Y015142D01*
X032317Y015328D02*
X032441Y015451D01*
X032441Y015081D01*
X034544Y015466D02*
X034667Y015343D01*
X034544Y015466D02*
X034914Y015466D01*
X034914Y015343D02*
X034914Y015589D01*
X034914Y015711D02*
X034852Y015711D01*
X034606Y015958D01*
X034544Y015958D01*
X034544Y015711D01*
X034709Y012729D02*
X034709Y012482D01*
X034524Y012667D01*
X034895Y012667D01*
X034833Y012360D02*
X034895Y012299D01*
X034895Y012175D01*
X034833Y012113D01*
X034709Y012113D02*
X034648Y012237D01*
X034648Y012299D01*
X034709Y012360D01*
X034833Y012360D01*
X034709Y012113D02*
X034524Y012113D01*
X034524Y012360D01*
X033401Y011685D02*
X033401Y011438D01*
X033401Y011561D02*
X033030Y011561D01*
X033154Y011438D01*
X029900Y011474D02*
X029900Y011598D01*
X029838Y011659D01*
X029591Y011659D01*
X029530Y011598D01*
X029530Y011474D01*
X029591Y011412D01*
X029653Y011412D01*
X029715Y011474D01*
X029715Y011659D01*
X029900Y011474D02*
X029838Y011412D01*
X029838Y011291D02*
X029900Y011229D01*
X029900Y011106D01*
X029838Y011044D01*
X029591Y011044D01*
X029530Y011106D01*
X029530Y011229D01*
X029591Y011291D01*
X028900Y011229D02*
X028838Y011291D01*
X028900Y011229D02*
X028900Y011106D01*
X028838Y011044D01*
X028591Y011044D01*
X028530Y011106D01*
X028530Y011229D01*
X028591Y011291D01*
X028591Y011412D02*
X028653Y011412D01*
X028715Y011474D01*
X028715Y011598D01*
X028777Y011659D01*
X028838Y011659D01*
X028900Y011598D01*
X028900Y011474D01*
X028838Y011412D01*
X028777Y011412D01*
X028715Y011474D01*
X028715Y011598D02*
X028653Y011659D01*
X028591Y011659D01*
X028530Y011598D01*
X028530Y011474D01*
X028591Y011412D01*
X025400Y012106D02*
X025400Y012229D01*
X025338Y012291D01*
X025400Y012412D02*
X025400Y012659D01*
X025400Y012536D02*
X025030Y012536D01*
X025153Y012412D01*
X025091Y012291D02*
X025030Y012229D01*
X025030Y012106D01*
X025091Y012044D01*
X025338Y012044D01*
X025400Y012106D01*
X025338Y012781D02*
X025400Y012842D01*
X025400Y012966D01*
X025338Y013028D01*
X025277Y013028D01*
X025215Y012966D01*
X025215Y012904D01*
X025215Y012966D02*
X025153Y013028D01*
X025091Y013028D01*
X025030Y012966D01*
X025030Y012842D01*
X025091Y012781D01*
X024132Y009564D02*
X024009Y009503D01*
X023885Y009379D01*
X024070Y009379D01*
X024132Y009318D01*
X024132Y009256D01*
X024070Y009194D01*
X023947Y009194D01*
X023885Y009256D01*
X023885Y009379D01*
X023764Y009379D02*
X023517Y009379D01*
X023396Y009256D02*
X023396Y009503D01*
X023334Y009564D01*
X023210Y009564D01*
X023149Y009503D01*
X023149Y009256D01*
X023210Y009194D01*
X023334Y009194D01*
X023396Y009256D01*
X023027Y009194D02*
X022780Y009194D01*
X022780Y009564D01*
X023027Y009564D01*
X022904Y009379D02*
X022780Y009379D01*
X022659Y009194D02*
X022659Y009564D01*
X022412Y009564D02*
X022659Y009194D01*
X022412Y009194D02*
X022412Y009564D01*
X021922Y009441D02*
X021675Y009194D01*
X021554Y009256D02*
X021554Y009379D01*
X021492Y009441D01*
X021369Y009441D01*
X021307Y009379D01*
X021307Y009256D01*
X021369Y009194D01*
X021492Y009194D01*
X021554Y009256D01*
X021675Y009441D02*
X021922Y009194D01*
X021185Y009194D02*
X021062Y009194D01*
X021123Y009194D02*
X021123Y009564D01*
X021062Y009564D01*
X020878Y009441D02*
X020693Y009441D01*
X020572Y009441D02*
X020572Y009194D01*
X020387Y009194D01*
X020325Y009256D01*
X020325Y009441D01*
X020693Y009564D02*
X020693Y009194D01*
X020878Y009194D01*
X020940Y009256D01*
X020940Y009379D01*
X020878Y009441D01*
X025430Y005159D02*
X025491Y005159D01*
X025738Y004912D01*
X025800Y004912D01*
X025738Y004791D02*
X025800Y004729D01*
X025800Y004606D01*
X025738Y004544D01*
X025491Y004544D01*
X025430Y004606D01*
X025430Y004729D01*
X025491Y004791D01*
X025430Y004912D02*
X025430Y005159D01*
X026393Y006382D02*
X026516Y006382D01*
X026578Y006444D01*
X026699Y006444D02*
X026761Y006382D01*
X026884Y006382D01*
X026946Y006444D01*
X026946Y006567D01*
X026884Y006629D01*
X026823Y006629D01*
X026699Y006567D01*
X026699Y006753D01*
X026946Y006753D01*
X026578Y006691D02*
X026516Y006753D01*
X026393Y006753D01*
X026331Y006691D01*
X026331Y006444D01*
X026393Y006382D01*
X022585Y003564D02*
X022585Y003193D01*
X022647Y003379D02*
X022400Y003379D01*
X022585Y003564D01*
X022278Y003502D02*
X022217Y003564D01*
X022093Y003564D01*
X022032Y003502D01*
X022032Y003255D01*
X022093Y003193D01*
X022217Y003193D01*
X022278Y003255D01*
X024363Y002802D02*
X024363Y002555D01*
X024425Y002493D01*
X024548Y002493D01*
X024610Y002555D01*
X024732Y002493D02*
X024978Y002493D01*
X024855Y002493D02*
X024855Y002864D01*
X024732Y002740D01*
X024610Y002802D02*
X024548Y002864D01*
X024425Y002864D01*
X024363Y002802D01*
X025100Y002679D02*
X025347Y002679D01*
X025285Y002864D02*
X025100Y002679D01*
X025285Y002864D02*
X025285Y002493D01*
X026182Y002405D02*
X026243Y002343D01*
X026367Y002343D01*
X026428Y002405D01*
X026550Y002405D02*
X026612Y002343D01*
X026735Y002343D01*
X026797Y002405D01*
X026797Y002467D01*
X026735Y002529D01*
X026550Y002529D01*
X026550Y002405D01*
X026550Y002529D02*
X026673Y002652D01*
X026797Y002714D01*
X026428Y002652D02*
X026367Y002714D01*
X026243Y002714D01*
X026182Y002652D01*
X026182Y002405D01*
X031581Y002544D02*
X031643Y002482D01*
X031766Y002482D01*
X031828Y002544D01*
X031949Y002482D02*
X032196Y002482D01*
X032073Y002482D02*
X032073Y002853D01*
X031949Y002729D01*
X031828Y002791D02*
X031766Y002853D01*
X031643Y002853D01*
X031581Y002791D01*
X031581Y002544D01*
X032581Y002594D02*
X032643Y002532D01*
X032766Y002532D01*
X032828Y002594D01*
X032949Y002532D02*
X033196Y002779D01*
X033196Y002841D01*
X033134Y002903D01*
X033011Y002903D01*
X032949Y002841D01*
X032828Y002841D02*
X032766Y002903D01*
X032643Y002903D01*
X032581Y002841D01*
X032581Y002594D01*
X032949Y002532D02*
X033196Y002532D01*
X033154Y003638D02*
X033030Y003761D01*
X033401Y003761D01*
X033401Y003638D02*
X033401Y003885D01*
X033339Y004006D02*
X033401Y004068D01*
X033401Y004191D01*
X033339Y004253D01*
X033277Y004253D01*
X033216Y004191D01*
X033216Y004006D01*
X033339Y004006D01*
X033216Y004006D02*
X033092Y004130D01*
X033030Y004253D01*
X032635Y005643D02*
X032512Y005643D01*
X032450Y005705D01*
X032328Y005705D02*
X032267Y005643D01*
X032143Y005643D01*
X032082Y005705D01*
X032082Y005952D01*
X032143Y006014D01*
X032267Y006014D01*
X032328Y005952D01*
X032450Y005952D02*
X032512Y006014D01*
X032635Y006014D01*
X032697Y005952D01*
X032697Y005890D01*
X032635Y005829D01*
X032697Y005767D01*
X032697Y005705D01*
X032635Y005643D01*
X032635Y005829D02*
X032573Y005829D01*
X034544Y003359D02*
X034606Y003359D01*
X034852Y003112D01*
X034914Y003112D01*
X034914Y002991D02*
X034914Y002744D01*
X034914Y002868D02*
X034544Y002868D01*
X034667Y002744D01*
X034544Y003112D02*
X034544Y003359D01*
X039583Y003300D02*
X039645Y003300D01*
X039892Y003053D01*
X039954Y003053D01*
X039954Y002932D02*
X039954Y002685D01*
X039707Y002932D01*
X039645Y002932D01*
X039583Y002870D01*
X039583Y002747D01*
X039645Y002685D01*
X039583Y003053D02*
X039583Y003300D01*
X041224Y003800D02*
X041286Y003738D01*
X041224Y003800D02*
X041224Y003923D01*
X041286Y003985D01*
X041348Y003985D01*
X041595Y003738D01*
X041595Y003985D01*
X041533Y004106D02*
X041471Y004106D01*
X041409Y004168D01*
X041409Y004291D01*
X041471Y004353D01*
X041533Y004353D01*
X041595Y004291D01*
X041595Y004168D01*
X041533Y004106D01*
X041409Y004168D02*
X041348Y004106D01*
X041286Y004106D01*
X041224Y004168D01*
X041224Y004291D01*
X041286Y004353D01*
X041348Y004353D01*
X041409Y004291D01*
X041285Y011238D02*
X041285Y011485D01*
X041408Y011606D02*
X041470Y011668D01*
X041470Y011791D01*
X041408Y011853D01*
X041347Y011853D01*
X041285Y011791D01*
X041285Y011730D01*
X041285Y011791D02*
X041223Y011853D01*
X041162Y011853D01*
X041100Y011791D01*
X041100Y011668D01*
X041162Y011606D01*
X041100Y011423D02*
X041285Y011238D01*
X041470Y011423D02*
X041100Y011423D01*
X039934Y012299D02*
X039564Y012299D01*
X039749Y012113D01*
X039749Y012360D01*
X039749Y012482D02*
X039564Y012667D01*
X039934Y012667D01*
X039749Y012729D02*
X039749Y012482D01*
X039645Y015284D02*
X039583Y015345D01*
X039583Y015469D01*
X039645Y015530D01*
X039707Y015530D01*
X039954Y015284D01*
X039954Y015530D01*
X039954Y015652D02*
X039892Y015652D01*
X039645Y015899D01*
X039583Y015899D01*
X039583Y015652D01*
X041224Y016398D02*
X041286Y016336D01*
X041224Y016398D02*
X041224Y016521D01*
X041286Y016583D01*
X041348Y016583D01*
X041595Y016336D01*
X041595Y016583D01*
X041533Y016705D02*
X041471Y016705D01*
X041409Y016766D01*
X041409Y016890D01*
X041471Y016951D01*
X041533Y016951D01*
X041595Y016890D01*
X041595Y016766D01*
X041533Y016705D01*
X041409Y016766D02*
X041348Y016705D01*
X041286Y016705D01*
X041224Y016766D01*
X041224Y016890D01*
X041286Y016951D01*
X041348Y016951D01*
X041409Y016890D01*
X041285Y023836D02*
X041285Y024083D01*
X041408Y024205D02*
X041470Y024266D01*
X041470Y024390D01*
X041408Y024451D01*
X041347Y024451D01*
X041285Y024390D01*
X041285Y024328D01*
X041285Y024390D02*
X041223Y024451D01*
X041162Y024451D01*
X041100Y024390D01*
X041100Y024266D01*
X041162Y024205D01*
X041100Y024021D02*
X041285Y023836D01*
X041470Y024021D02*
X041100Y024021D01*
X039934Y024897D02*
X039564Y024897D01*
X039749Y024712D01*
X039749Y024959D01*
X039749Y025080D02*
X039749Y025327D01*
X039934Y025265D02*
X039564Y025265D01*
X039749Y025080D01*
X039645Y027882D02*
X039583Y027944D01*
X039583Y028067D01*
X039645Y028129D01*
X039707Y028129D01*
X039954Y027882D01*
X039954Y028129D01*
X039954Y028250D02*
X039892Y028250D01*
X039645Y028497D01*
X039583Y028497D01*
X039583Y028250D01*
X041224Y028996D02*
X041286Y028935D01*
X041224Y028996D02*
X041224Y029120D01*
X041286Y029182D01*
X041348Y029182D01*
X041595Y028935D01*
X041595Y029182D01*
X041533Y029303D02*
X041471Y029303D01*
X041409Y029365D01*
X041409Y029488D01*
X041471Y029550D01*
X041533Y029550D01*
X041595Y029488D01*
X041595Y029365D01*
X041533Y029303D01*
X041409Y029365D02*
X041348Y029303D01*
X041286Y029303D01*
X041224Y029365D01*
X041224Y029488D01*
X041286Y029550D01*
X041348Y029550D01*
X041409Y029488D01*
D13*
X040853Y028686D02*
X040853Y036954D01*
X033766Y036954D01*
X033766Y028686D01*
X040853Y028686D01*
X042435Y026987D02*
X042435Y026536D01*
X042285Y026536D02*
X042585Y026536D01*
X042745Y026611D02*
X043045Y026912D01*
X043045Y026611D01*
X042970Y026536D01*
X042820Y026536D01*
X042745Y026611D01*
X042745Y026912D01*
X042820Y026987D01*
X042970Y026987D01*
X043045Y026912D01*
X042435Y026987D02*
X042285Y026837D01*
X041305Y025287D02*
X041305Y024836D01*
X041155Y024836D02*
X041456Y024836D01*
X041155Y025137D02*
X041305Y025287D01*
X040995Y025287D02*
X040995Y024986D01*
X040845Y024836D01*
X040695Y024986D01*
X040695Y025287D01*
X040535Y025212D02*
X040460Y025287D01*
X040310Y025287D01*
X040235Y025212D01*
X040235Y025137D01*
X040310Y025061D01*
X040460Y025061D01*
X040535Y024986D01*
X040535Y024911D01*
X040460Y024836D01*
X040310Y024836D01*
X040235Y024911D01*
X040853Y024355D02*
X040853Y016087D01*
X033766Y016087D01*
X033766Y024355D01*
X040853Y024355D01*
X033835Y026536D02*
X033535Y026536D01*
X033685Y026536D02*
X033685Y026987D01*
X033535Y026837D01*
X027674Y023372D02*
X027599Y023447D01*
X027449Y023447D01*
X027374Y023372D01*
X027214Y023447D02*
X026914Y023447D01*
X027064Y023447D02*
X027064Y022996D01*
X027374Y022996D02*
X027674Y023297D01*
X027674Y023372D01*
X027674Y022996D02*
X027374Y022996D01*
X023743Y025478D02*
X019940Y025478D01*
X019940Y019179D01*
X023743Y019179D01*
X023743Y025478D01*
X023743Y031778D02*
X019940Y031778D01*
X019940Y038077D01*
X023743Y038077D01*
X023743Y031778D01*
X027064Y035595D02*
X027064Y036045D01*
X026914Y036045D02*
X027214Y036045D01*
X027374Y035970D02*
X027449Y036045D01*
X027599Y036045D01*
X027674Y035970D01*
X027674Y035895D01*
X027599Y035820D01*
X027674Y035745D01*
X027674Y035670D01*
X027599Y035595D01*
X027449Y035595D01*
X027374Y035670D01*
X027524Y035820D02*
X027599Y035820D01*
X033535Y039135D02*
X033835Y039135D01*
X033685Y039135D02*
X033685Y039585D01*
X033535Y039435D01*
X040235Y037810D02*
X040235Y037735D01*
X040310Y037660D01*
X040460Y037660D01*
X040535Y037585D01*
X040535Y037510D01*
X040460Y037435D01*
X040310Y037435D01*
X040235Y037510D01*
X040235Y037810D02*
X040310Y037885D01*
X040460Y037885D01*
X040535Y037810D01*
X040695Y037885D02*
X040695Y037585D01*
X040845Y037435D01*
X040995Y037585D01*
X040995Y037885D01*
X041155Y037810D02*
X041230Y037885D01*
X041380Y037885D01*
X041456Y037810D01*
X041456Y037735D01*
X041380Y037660D01*
X041456Y037585D01*
X041456Y037510D01*
X041380Y037435D01*
X041230Y037435D01*
X041155Y037510D01*
X041305Y037660D02*
X041380Y037660D01*
X042285Y039135D02*
X042585Y039135D01*
X042435Y039135D02*
X042435Y039585D01*
X042285Y039435D01*
X042745Y039510D02*
X042745Y039210D01*
X043045Y039510D01*
X043045Y039210D01*
X042970Y039135D01*
X042820Y039135D01*
X042745Y039210D01*
X042745Y039510D02*
X042820Y039585D01*
X042970Y039585D01*
X043045Y039510D01*
X042970Y014388D02*
X043045Y014313D01*
X042745Y014013D01*
X042820Y013938D01*
X042970Y013938D01*
X043045Y014013D01*
X043045Y014313D01*
X042970Y014388D02*
X042820Y014388D01*
X042745Y014313D01*
X042745Y014013D01*
X042585Y013938D02*
X042285Y013938D01*
X042435Y013938D02*
X042435Y014388D01*
X042285Y014238D01*
X041380Y012688D02*
X041230Y012688D01*
X041155Y012613D01*
X040995Y012688D02*
X040995Y012388D01*
X040845Y012238D01*
X040695Y012388D01*
X040695Y012688D01*
X040535Y012613D02*
X040460Y012688D01*
X040310Y012688D01*
X040235Y012613D01*
X040235Y012538D01*
X040310Y012463D01*
X040460Y012463D01*
X040535Y012388D01*
X040535Y012313D01*
X040460Y012238D01*
X040310Y012238D01*
X040235Y012313D01*
X040853Y011757D02*
X040853Y003489D01*
X033766Y003489D01*
X033766Y011757D01*
X040853Y011757D01*
X041155Y012238D02*
X041456Y012538D01*
X041456Y012613D01*
X041380Y012688D01*
X041456Y012238D02*
X041155Y012238D01*
X033835Y013938D02*
X033535Y013938D01*
X033685Y013938D02*
X033685Y014388D01*
X033535Y014238D01*
X027524Y010848D02*
X027524Y010398D01*
X027374Y010398D02*
X027674Y010398D01*
X027374Y010698D02*
X027524Y010848D01*
X027214Y010848D02*
X026914Y010848D01*
X027064Y010848D02*
X027064Y010398D01*
X023743Y012880D02*
X019940Y012880D01*
X019940Y006581D01*
X023743Y006581D01*
X023743Y012880D01*
D14*
X020271Y012443D02*
X020273Y012462D01*
X020278Y012481D01*
X020288Y012497D01*
X020300Y012512D01*
X020315Y012524D01*
X020331Y012534D01*
X020350Y012539D01*
X020369Y012541D01*
X020388Y012539D01*
X020407Y012534D01*
X020423Y012524D01*
X020438Y012512D01*
X020450Y012497D01*
X020460Y012481D01*
X020465Y012462D01*
X020467Y012443D01*
X020465Y012424D01*
X020460Y012405D01*
X020450Y012389D01*
X020438Y012374D01*
X020423Y012362D01*
X020407Y012352D01*
X020388Y012347D01*
X020369Y012345D01*
X020350Y012347D01*
X020331Y012352D01*
X020315Y012362D01*
X020300Y012374D01*
X020288Y012389D01*
X020278Y012405D01*
X020273Y012424D01*
X020271Y012443D01*
X020271Y025041D02*
X020273Y025060D01*
X020278Y025079D01*
X020288Y025095D01*
X020300Y025110D01*
X020315Y025122D01*
X020331Y025132D01*
X020350Y025137D01*
X020369Y025139D01*
X020388Y025137D01*
X020407Y025132D01*
X020423Y025122D01*
X020438Y025110D01*
X020450Y025095D01*
X020460Y025079D01*
X020465Y025060D01*
X020467Y025041D01*
X020465Y025022D01*
X020460Y025003D01*
X020450Y024987D01*
X020438Y024972D01*
X020423Y024960D01*
X020407Y024950D01*
X020388Y024945D01*
X020369Y024943D01*
X020350Y024945D01*
X020331Y024950D01*
X020315Y024960D01*
X020300Y024972D01*
X020288Y024987D01*
X020278Y025003D01*
X020273Y025022D01*
X020271Y025041D01*
X020271Y037640D02*
X020273Y037659D01*
X020278Y037678D01*
X020288Y037694D01*
X020300Y037709D01*
X020315Y037721D01*
X020331Y037731D01*
X020350Y037736D01*
X020369Y037738D01*
X020388Y037736D01*
X020407Y037731D01*
X020423Y037721D01*
X020438Y037709D01*
X020450Y037694D01*
X020460Y037678D01*
X020465Y037659D01*
X020467Y037640D01*
X020465Y037621D01*
X020460Y037602D01*
X020450Y037586D01*
X020438Y037571D01*
X020423Y037559D01*
X020407Y037549D01*
X020388Y037544D01*
X020369Y037542D01*
X020350Y037544D01*
X020331Y037549D01*
X020315Y037559D01*
X020300Y037571D01*
X020288Y037586D01*
X020278Y037602D01*
X020273Y037621D01*
X020271Y037640D01*
D15*
X022525Y030710D02*
X022525Y030395D01*
X022525Y029844D02*
X022525Y029529D01*
X023077Y030120D02*
X023079Y030132D01*
X023084Y030143D01*
X023093Y030152D01*
X023104Y030157D01*
X023116Y030159D01*
X023128Y030157D01*
X023139Y030152D01*
X023148Y030143D01*
X023153Y030132D01*
X023155Y030120D01*
X023153Y030108D01*
X023148Y030097D01*
X023139Y030088D01*
X023128Y030083D01*
X023116Y030081D01*
X023104Y030083D01*
X023093Y030088D01*
X023084Y030097D01*
X023079Y030108D01*
X023077Y030120D01*
X024494Y030395D02*
X024494Y030710D01*
X024494Y029844D02*
X024494Y029529D01*
X027222Y030019D02*
X027222Y030157D01*
X027360Y030157D01*
X028659Y030157D02*
X028797Y030157D01*
X028797Y030019D01*
X030040Y030053D02*
X030040Y030289D01*
X030276Y030289D01*
X031206Y030263D02*
X031353Y030124D01*
X031379Y029187D02*
X031379Y028950D01*
X031143Y028950D01*
X030276Y028950D02*
X030040Y028950D01*
X030040Y029187D01*
X028797Y028720D02*
X028659Y028582D01*
X027360Y028582D02*
X027222Y028582D01*
X027222Y028720D01*
X024494Y018112D02*
X024494Y017797D01*
X024494Y017246D02*
X024494Y016931D01*
X023077Y017521D02*
X023079Y017533D01*
X023084Y017544D01*
X023093Y017553D01*
X023104Y017558D01*
X023116Y017560D01*
X023128Y017558D01*
X023139Y017553D01*
X023148Y017544D01*
X023153Y017533D01*
X023155Y017521D01*
X023153Y017509D01*
X023148Y017498D01*
X023139Y017489D01*
X023128Y017484D01*
X023116Y017482D01*
X023104Y017484D01*
X023093Y017489D01*
X023084Y017498D01*
X023079Y017509D01*
X023077Y017521D01*
X022525Y017246D02*
X022525Y016931D01*
X022525Y017797D02*
X022525Y018112D01*
X027222Y017559D02*
X027222Y017421D01*
X027222Y017559D02*
X027360Y017559D01*
X028659Y017559D02*
X028797Y017559D01*
X028797Y017421D01*
X030040Y017454D02*
X030040Y017691D01*
X030276Y017691D01*
X031206Y017665D02*
X031353Y017525D01*
X031379Y016588D02*
X031379Y016352D01*
X031143Y016352D01*
X030276Y016352D02*
X030040Y016352D01*
X030040Y016588D01*
X028797Y016122D02*
X028659Y015984D01*
X027360Y015984D02*
X027222Y015984D01*
X027222Y016122D01*
X024494Y005513D02*
X024494Y005198D01*
X024494Y004647D02*
X024494Y004332D01*
X023077Y004923D02*
X023079Y004935D01*
X023084Y004946D01*
X023093Y004955D01*
X023104Y004960D01*
X023116Y004962D01*
X023128Y004960D01*
X023139Y004955D01*
X023148Y004946D01*
X023153Y004935D01*
X023155Y004923D01*
X023153Y004911D01*
X023148Y004900D01*
X023139Y004891D01*
X023128Y004886D01*
X023116Y004884D01*
X023104Y004886D01*
X023093Y004891D01*
X023084Y004900D01*
X023079Y004911D01*
X023077Y004923D01*
X022525Y005198D02*
X022525Y005513D01*
X022525Y004647D02*
X022525Y004332D01*
X027222Y004822D02*
X027222Y004960D01*
X027360Y004960D01*
X028659Y004960D02*
X028797Y004960D01*
X028797Y004822D01*
X030040Y004856D02*
X030040Y005092D01*
X030276Y005092D01*
X031206Y005067D02*
X031353Y004927D01*
X031379Y003990D02*
X031379Y003754D01*
X031143Y003754D01*
X030276Y003754D02*
X030040Y003754D01*
X030040Y003990D01*
X028797Y003523D02*
X028659Y003385D01*
X027360Y003385D02*
X027222Y003385D01*
X027222Y003523D01*
D16*
X024267Y003918D02*
X024167Y003918D01*
X024217Y003918D02*
X024217Y004068D01*
X024167Y004018D01*
X024120Y004068D02*
X024120Y003943D01*
X024095Y003918D01*
X024045Y003918D01*
X024020Y003943D01*
X024020Y004068D01*
X024045Y016516D02*
X024095Y016516D01*
X024120Y016541D01*
X024120Y016666D01*
X024167Y016666D02*
X024167Y016591D01*
X024217Y016616D01*
X024242Y016616D01*
X024267Y016591D01*
X024267Y016541D01*
X024242Y016516D01*
X024192Y016516D01*
X024167Y016541D01*
X024045Y016516D02*
X024020Y016541D01*
X024020Y016666D01*
X024167Y016666D02*
X024267Y016666D01*
X024242Y029115D02*
X024267Y029140D01*
X024267Y029240D01*
X024242Y029265D01*
X024192Y029265D01*
X024167Y029240D01*
X024167Y029215D01*
X024192Y029190D01*
X024267Y029190D01*
X024242Y029115D02*
X024192Y029115D01*
X024167Y029140D01*
X024120Y029140D02*
X024120Y029265D01*
X024020Y029265D02*
X024020Y029140D01*
X024045Y029115D01*
X024095Y029115D01*
X024120Y029140D01*
D17*
X031469Y029467D02*
X031653Y029467D01*
X031690Y029503D01*
X031690Y029577D01*
X031653Y029614D01*
X031469Y029614D01*
X031543Y029688D02*
X031469Y029761D01*
X031690Y029761D01*
X031690Y029688D02*
X031690Y029834D01*
X031653Y029909D02*
X031506Y030055D01*
X031653Y030055D01*
X031690Y030019D01*
X031690Y029945D01*
X031653Y029909D01*
X031506Y029909D01*
X031469Y029945D01*
X031469Y030019D01*
X031506Y030055D01*
X031469Y017457D02*
X031506Y017384D01*
X031579Y017310D01*
X031579Y017420D01*
X031616Y017457D01*
X031653Y017457D01*
X031690Y017420D01*
X031690Y017347D01*
X031653Y017310D01*
X031579Y017310D01*
X031653Y017236D02*
X031469Y017236D01*
X031469Y017089D02*
X031653Y017089D01*
X031690Y017126D01*
X031690Y017199D01*
X031653Y017236D01*
X031690Y004859D02*
X031690Y004712D01*
X031543Y004859D01*
X031506Y004859D01*
X031469Y004822D01*
X031469Y004749D01*
X031506Y004712D01*
X031469Y004638D02*
X031653Y004638D01*
X031690Y004601D01*
X031690Y004528D01*
X031653Y004491D01*
X031469Y004491D01*
D18*
X027070Y010273D02*
X025930Y010273D01*
X025930Y010573D01*
X027070Y010573D01*
X027070Y010273D01*
X033210Y012813D02*
X034110Y012813D01*
X034210Y012913D01*
X034310Y012813D01*
X035110Y012813D01*
X035210Y012913D01*
X035310Y012813D01*
X036110Y012813D01*
X036210Y012913D01*
X036310Y012813D01*
X037110Y012813D01*
X037210Y012913D01*
X037310Y012813D01*
X038110Y012813D01*
X038210Y012913D01*
X038310Y012813D01*
X039110Y012813D01*
X039210Y012913D01*
X039310Y012813D01*
X040110Y012813D01*
X040210Y012913D01*
X040310Y012813D01*
X041110Y012813D01*
X041210Y012913D01*
X041310Y012813D01*
X042110Y012813D01*
X042210Y012913D01*
X042310Y012813D01*
X043210Y012813D01*
X043210Y013813D01*
X042310Y013813D01*
X042210Y013713D01*
X042110Y013813D01*
X041310Y013813D01*
X041210Y013713D01*
X041110Y013813D01*
X040310Y013813D01*
X040210Y013713D01*
X040110Y013813D01*
X039310Y013813D01*
X039210Y013713D01*
X039110Y013813D01*
X038310Y013813D01*
X038210Y013713D01*
X038110Y013813D01*
X037310Y013813D01*
X037210Y013713D01*
X037110Y013813D01*
X036310Y013813D01*
X036210Y013713D01*
X036110Y013813D01*
X035310Y013813D01*
X035210Y013713D01*
X035110Y013813D01*
X034310Y013813D01*
X034210Y013713D01*
X034110Y013813D01*
X033210Y013813D01*
X033210Y012813D01*
X021010Y015771D02*
X021010Y016271D01*
X020760Y016521D01*
X021010Y016771D01*
X021010Y017271D01*
X020760Y017521D01*
X020260Y017521D01*
X020010Y017271D01*
X020010Y016771D01*
X020260Y016521D01*
X020760Y016521D01*
X020260Y016521D02*
X020010Y016271D01*
X020010Y015771D01*
X020260Y015521D01*
X020760Y015521D01*
X021010Y015771D01*
X025930Y022871D02*
X025930Y023171D01*
X027070Y023171D01*
X027070Y022871D01*
X025930Y022871D01*
X020760Y028120D02*
X020260Y028120D01*
X020010Y028370D01*
X020010Y028870D01*
X020260Y029120D01*
X020010Y029370D01*
X020010Y029870D01*
X020260Y030120D01*
X020760Y030120D01*
X021010Y029870D01*
X021010Y029370D01*
X020760Y029120D01*
X021010Y028870D01*
X021010Y028370D01*
X020760Y028120D01*
X020760Y029120D02*
X020260Y029120D01*
X025930Y035470D02*
X025930Y035770D01*
X027070Y035770D01*
X027070Y035470D01*
X025930Y035470D01*
X033210Y038010D02*
X034110Y038010D01*
X034210Y038110D01*
X034310Y038010D01*
X035110Y038010D01*
X035210Y038110D01*
X035310Y038010D01*
X036110Y038010D01*
X036210Y038110D01*
X036310Y038010D01*
X037110Y038010D01*
X037210Y038110D01*
X037310Y038010D01*
X038110Y038010D01*
X038210Y038110D01*
X038310Y038010D01*
X039110Y038010D01*
X039210Y038110D01*
X039310Y038010D01*
X040110Y038010D01*
X040210Y038110D01*
X040310Y038010D01*
X041110Y038010D01*
X041210Y038110D01*
X041310Y038010D01*
X042110Y038010D01*
X042210Y038110D01*
X042310Y038010D01*
X043210Y038010D01*
X043210Y039010D01*
X042310Y039010D01*
X042210Y038910D01*
X042110Y039010D01*
X041310Y039010D01*
X041210Y038910D01*
X041110Y039010D01*
X040310Y039010D01*
X040210Y038910D01*
X040110Y039010D01*
X039310Y039010D01*
X039210Y038910D01*
X039110Y039010D01*
X038310Y039010D01*
X038210Y038910D01*
X038110Y039010D01*
X037310Y039010D01*
X037210Y038910D01*
X037110Y039010D01*
X036310Y039010D01*
X036210Y038910D01*
X036110Y039010D01*
X035310Y039010D01*
X035210Y038910D01*
X035110Y039010D01*
X034310Y039010D01*
X034210Y038910D01*
X034110Y039010D01*
X033210Y039010D01*
X033210Y038010D01*
X033210Y026411D02*
X034110Y026411D01*
X034210Y026311D01*
X034310Y026411D01*
X035110Y026411D01*
X035210Y026311D01*
X035310Y026411D01*
X036110Y026411D01*
X036210Y026311D01*
X036310Y026411D01*
X037110Y026411D01*
X037210Y026311D01*
X037310Y026411D01*
X038110Y026411D01*
X038210Y026311D01*
X038310Y026411D01*
X039110Y026411D01*
X039210Y026311D01*
X039310Y026411D01*
X040110Y026411D01*
X040210Y026311D01*
X040310Y026411D01*
X041110Y026411D01*
X041210Y026311D01*
X041310Y026411D01*
X042110Y026411D01*
X042210Y026311D01*
X042310Y026411D01*
X043210Y026411D01*
X043210Y025411D01*
X042310Y025411D01*
X042210Y025511D01*
X042110Y025411D01*
X041310Y025411D01*
X041210Y025511D01*
X041110Y025411D01*
X040310Y025411D01*
X040210Y025511D01*
X040110Y025411D01*
X039310Y025411D01*
X039210Y025511D01*
X039110Y025411D01*
X038310Y025411D01*
X038210Y025511D01*
X038110Y025411D01*
X037310Y025411D01*
X037210Y025511D01*
X037110Y025411D01*
X036310Y025411D01*
X036210Y025511D01*
X036110Y025411D01*
X035310Y025411D01*
X035210Y025511D01*
X035110Y025411D01*
X034310Y025411D01*
X034210Y025511D01*
X034110Y025411D01*
X033210Y025411D01*
X033210Y026411D01*
X020760Y004923D02*
X020260Y004923D01*
X020010Y004673D01*
X020010Y004173D01*
X020260Y003923D01*
X020760Y003923D01*
X021010Y004173D01*
X021010Y004673D01*
X020760Y004923D01*
X020760Y003923D02*
X021010Y003673D01*
X021010Y003173D01*
X020760Y002923D01*
X020260Y002923D01*
X020010Y003173D01*
X020010Y003673D01*
X020260Y003923D01*
D19*
X028220Y006673D03*
X028220Y007923D03*
X028220Y009173D03*
X028220Y019271D03*
X028220Y020521D03*
X028220Y021771D03*
X028220Y031870D03*
X028220Y033120D03*
X028220Y034370D03*
D20*
X031030Y037010D02*
X031030Y038430D01*
X032490Y038430D01*
X032490Y037010D01*
X031030Y037010D01*
X031030Y025831D02*
X031030Y024411D01*
X032490Y024411D01*
X032490Y025831D01*
X031030Y025831D01*
X031030Y013233D02*
X031030Y011813D01*
X032490Y011813D01*
X032490Y013233D01*
X031030Y013233D01*
M02*
