G75*
%MOIN*%
%OFA0B0*%
%FSLAX24Y24*%
%IPPOS*%
%LPD*%
%AMOC8*
5,1,8,0,0,1.08239X$1,22.5*
%
%ADD10C,0.0040*%
%ADD11C,0.0050*%
%ADD12C,0.0080*%
%ADD13C,0.0030*%
%ADD14C,0.0010*%
%ADD15C,0.0020*%
D10*
X024927Y007785D02*
X025388Y007785D01*
X025388Y008016D01*
X025311Y008092D01*
X025157Y008092D01*
X025081Y008016D01*
X025081Y007785D01*
X025081Y007939D02*
X024927Y008092D01*
X024927Y008246D02*
X025004Y008246D01*
X025311Y008553D01*
X025388Y008553D01*
X025388Y008246D01*
X033530Y011388D02*
X033530Y011542D01*
X033606Y011619D01*
X033760Y011619D01*
X033760Y011465D01*
X033913Y011312D02*
X033606Y011312D01*
X033530Y011388D01*
X033530Y011772D02*
X033990Y011772D01*
X033530Y012079D01*
X033990Y012079D01*
X033990Y012232D02*
X033990Y012463D01*
X033913Y012539D01*
X033606Y012539D01*
X033530Y012463D01*
X033530Y012232D01*
X033990Y012232D01*
X033913Y011619D02*
X033990Y011542D01*
X033990Y011388D01*
X033913Y011312D01*
X034530Y011213D02*
X034606Y011289D01*
X034913Y011289D01*
X034990Y011213D01*
X034990Y011059D01*
X034913Y010982D01*
X034606Y010982D01*
X034530Y011059D01*
X034530Y011213D01*
X034606Y010829D02*
X034913Y010829D01*
X034990Y010752D01*
X034990Y010522D01*
X034530Y010522D01*
X034530Y010752D01*
X034606Y010829D01*
X034990Y010369D02*
X034990Y010062D01*
X034990Y010215D02*
X034530Y010215D01*
X035530Y010369D02*
X035990Y010369D01*
X035990Y010522D02*
X035990Y010215D01*
X035990Y010676D02*
X035530Y010676D01*
X035530Y010906D01*
X035606Y010982D01*
X035913Y010982D01*
X035990Y010906D01*
X035990Y010676D01*
X035990Y011136D02*
X035990Y011289D01*
X035990Y011213D02*
X035530Y011213D01*
X035530Y011289D02*
X035530Y011136D01*
X036530Y011213D02*
X036530Y011059D01*
X036606Y010982D01*
X036530Y010829D02*
X036990Y010829D01*
X036836Y010676D01*
X036990Y010522D01*
X036530Y010522D01*
X036530Y010215D02*
X036990Y010215D01*
X036990Y010062D02*
X036990Y010369D01*
X037530Y010215D02*
X037990Y010215D01*
X037990Y010062D02*
X037990Y010369D01*
X037913Y010522D02*
X037990Y010599D01*
X037990Y010752D01*
X037913Y010829D01*
X037990Y010982D02*
X037530Y010982D01*
X037683Y010982D02*
X037990Y011289D01*
X037760Y011059D02*
X037530Y011289D01*
X037606Y010829D02*
X037530Y010752D01*
X037530Y010599D01*
X037606Y010522D01*
X037913Y010522D01*
X036990Y011059D02*
X036913Y010982D01*
X036836Y010982D01*
X036760Y011059D01*
X036760Y011213D01*
X036683Y011289D01*
X036606Y011289D01*
X036530Y011213D01*
X036913Y011289D02*
X036990Y011213D01*
X036990Y011059D01*
X038530Y011081D02*
X038530Y010928D01*
X038606Y010851D01*
X038760Y010928D02*
X038760Y011081D01*
X038683Y011158D01*
X038606Y011158D01*
X038530Y011081D01*
X038606Y011312D02*
X038530Y011388D01*
X038530Y011542D01*
X038606Y011619D01*
X038913Y011619D01*
X038990Y011542D01*
X038990Y011388D01*
X038913Y011312D01*
X038606Y011312D01*
X038913Y011158D02*
X038990Y011081D01*
X038990Y010928D01*
X038913Y010851D01*
X038836Y010851D01*
X038760Y010928D01*
X039530Y011312D02*
X039990Y011312D01*
X039990Y011542D01*
X039913Y011619D01*
X039760Y011619D01*
X039683Y011542D01*
X039683Y011312D01*
X039683Y011465D02*
X039530Y011619D01*
X039530Y011772D02*
X039990Y012079D01*
X039760Y012232D02*
X039530Y012539D01*
X039760Y012232D02*
X039990Y012539D01*
X040530Y012232D02*
X040760Y012539D01*
X040990Y012232D01*
X040990Y012079D02*
X040530Y011772D01*
X040530Y011465D02*
X040990Y011465D01*
X040990Y011312D02*
X040990Y011619D01*
X040990Y011772D02*
X040530Y012079D01*
X039990Y011772D02*
X039530Y012079D01*
X038990Y012002D02*
X038990Y011772D01*
X038530Y011772D01*
X038683Y011772D02*
X038683Y012002D01*
X038760Y012079D01*
X038913Y012079D01*
X038990Y012002D01*
X038913Y012232D02*
X038990Y012309D01*
X038990Y012463D01*
X038913Y012539D01*
X038836Y012539D01*
X038530Y012232D01*
X038530Y012539D01*
X041530Y012386D02*
X041990Y012386D01*
X041990Y012539D02*
X041990Y012232D01*
X041913Y012079D02*
X041990Y012002D01*
X041990Y011849D01*
X041913Y011772D01*
X041836Y011772D01*
X041760Y011849D01*
X041760Y012002D01*
X041683Y012079D01*
X041606Y012079D01*
X041530Y012002D01*
X041530Y011849D01*
X041606Y011772D01*
X041530Y011619D02*
X041683Y011465D01*
X041683Y011542D02*
X041683Y011312D01*
X041530Y011312D02*
X041990Y011312D01*
X041990Y011542D01*
X041913Y011619D01*
X041760Y011619D01*
X041683Y011542D01*
X041760Y011158D02*
X041530Y011158D01*
X041760Y011158D02*
X041836Y011081D01*
X041836Y010851D01*
X041530Y010851D01*
X042530Y011388D02*
X042606Y011312D01*
X042530Y011388D02*
X042530Y011542D01*
X042606Y011619D01*
X042683Y011619D01*
X042760Y011542D01*
X042760Y011465D01*
X042760Y011542D02*
X042836Y011619D01*
X042913Y011619D01*
X042990Y011542D01*
X042990Y011388D01*
X042913Y011312D01*
X042836Y011772D02*
X042530Y011926D01*
X042836Y012079D01*
X042913Y012232D02*
X042990Y012309D01*
X042990Y012463D01*
X042913Y012539D01*
X042836Y012539D01*
X042760Y012463D01*
X042683Y012539D01*
X042606Y012539D01*
X042530Y012463D01*
X042530Y012309D01*
X042606Y012232D01*
X042760Y012386D02*
X042760Y012463D01*
X043361Y013193D02*
X043438Y013193D01*
X043438Y013270D01*
X043361Y013270D01*
X043361Y013193D01*
X043591Y013193D02*
X043821Y013193D01*
X043898Y013270D01*
X043898Y013423D01*
X043821Y013500D01*
X043591Y013500D01*
X043591Y013116D01*
X043668Y013039D01*
X043744Y013039D01*
X044051Y013193D02*
X044051Y013500D01*
X044051Y013193D02*
X044282Y013193D01*
X044358Y013270D01*
X044358Y013500D01*
X044512Y013423D02*
X044589Y013500D01*
X044819Y013500D01*
X044819Y013653D02*
X044819Y013193D01*
X044589Y013193D01*
X044512Y013270D01*
X044512Y013423D01*
X044972Y013423D02*
X045049Y013500D01*
X045202Y013500D01*
X045279Y013423D01*
X045279Y013270D01*
X045202Y013193D01*
X045049Y013193D01*
X044972Y013346D02*
X045279Y013346D01*
X045433Y013270D02*
X045433Y013576D01*
X045509Y013653D01*
X045740Y013653D01*
X045740Y013193D01*
X045509Y013193D01*
X045433Y013270D01*
X044972Y013346D02*
X044972Y013423D01*
X043438Y013423D02*
X043438Y013500D01*
X043361Y013500D01*
X043361Y013423D01*
X043438Y013423D01*
X038630Y017410D02*
X038170Y017410D01*
X038323Y017410D02*
X038323Y017640D01*
X038400Y017717D01*
X038553Y017717D01*
X038630Y017640D01*
X038630Y017410D01*
X038323Y017564D02*
X038170Y017717D01*
X038170Y017870D02*
X038170Y018177D01*
X038170Y018024D02*
X038630Y018024D01*
X038476Y017870D01*
X038400Y018331D02*
X038400Y018561D01*
X038323Y018638D01*
X038246Y018638D01*
X038170Y018561D01*
X038170Y018408D01*
X038246Y018331D01*
X038400Y018331D01*
X038553Y018484D01*
X038630Y018638D01*
X038569Y019071D02*
X038262Y019071D01*
X038109Y019071D02*
X038109Y019148D01*
X037802Y019455D01*
X037802Y019532D01*
X038109Y019532D01*
X038416Y019532D02*
X038416Y019071D01*
X038723Y019071D02*
X038876Y019225D01*
X038799Y019225D02*
X039030Y019225D01*
X039030Y019071D02*
X039030Y019532D01*
X038799Y019532D01*
X038723Y019455D01*
X038723Y019301D01*
X038799Y019225D01*
X038569Y019378D02*
X038416Y019532D01*
X038436Y019861D02*
X038436Y020322D01*
X038589Y020168D01*
X038743Y020245D02*
X038743Y020091D01*
X038819Y020015D01*
X039050Y020015D01*
X039050Y019861D02*
X039050Y020322D01*
X038819Y020322D01*
X038743Y020245D01*
X038896Y020015D02*
X038743Y019861D01*
X038589Y019861D02*
X038282Y019861D01*
X038129Y020091D02*
X037822Y020091D01*
X037899Y019861D02*
X037899Y020322D01*
X038129Y020091D01*
X037321Y020095D02*
X037090Y020095D01*
X037014Y020171D01*
X037014Y020325D01*
X037090Y020402D01*
X037321Y020402D01*
X037321Y019941D01*
X037167Y020095D02*
X037014Y019941D01*
X036860Y019941D02*
X036553Y019941D01*
X036707Y019941D02*
X036707Y020402D01*
X036860Y020248D01*
X036400Y020248D02*
X036323Y020171D01*
X036093Y020171D01*
X036093Y020018D02*
X036093Y020325D01*
X036170Y020402D01*
X036323Y020402D01*
X036400Y020325D01*
X036400Y020248D01*
X036400Y020018D02*
X036323Y019941D01*
X036170Y019941D01*
X036093Y020018D01*
X036170Y019602D02*
X036093Y019525D01*
X036093Y019448D01*
X036170Y019371D01*
X036323Y019371D01*
X036400Y019448D01*
X036400Y019525D01*
X036323Y019602D01*
X036170Y019602D01*
X036170Y019371D02*
X036093Y019295D01*
X036093Y019218D01*
X036170Y019141D01*
X036323Y019141D01*
X036400Y019218D01*
X036400Y019295D01*
X036323Y019371D01*
X036553Y019141D02*
X036860Y019141D01*
X036707Y019141D02*
X036707Y019602D01*
X036860Y019448D01*
X037014Y019371D02*
X037090Y019295D01*
X037321Y019295D01*
X037321Y019141D02*
X037321Y019602D01*
X037090Y019602D01*
X037014Y019525D01*
X037014Y019371D01*
X037167Y019295D02*
X037014Y019141D01*
X036990Y018484D02*
X036530Y018484D01*
X036530Y018331D02*
X036530Y018638D01*
X036836Y018331D02*
X036990Y018484D01*
X036913Y018177D02*
X036990Y018101D01*
X036990Y017947D01*
X036913Y017870D01*
X036913Y017717D02*
X036760Y017717D01*
X036683Y017640D01*
X036683Y017410D01*
X036530Y017410D02*
X036990Y017410D01*
X036990Y017640D01*
X036913Y017717D01*
X036683Y017564D02*
X036530Y017717D01*
X036530Y017870D02*
X036836Y018177D01*
X036913Y018177D01*
X036530Y018177D02*
X036530Y017870D01*
X037370Y017870D02*
X037370Y018177D01*
X037370Y018024D02*
X037830Y018024D01*
X037676Y017870D01*
X037600Y017717D02*
X037523Y017640D01*
X037523Y017410D01*
X037370Y017410D02*
X037830Y017410D01*
X037830Y017640D01*
X037753Y017717D01*
X037600Y017717D01*
X037523Y017564D02*
X037370Y017717D01*
X037446Y018331D02*
X037370Y018408D01*
X037370Y018561D01*
X037446Y018638D01*
X037600Y018638D01*
X037676Y018561D01*
X037676Y018484D01*
X037600Y018331D01*
X037830Y018331D01*
X037830Y018638D01*
X037990Y022660D02*
X037990Y022967D01*
X037990Y022814D02*
X037530Y022814D01*
X037606Y023120D02*
X037530Y023197D01*
X037530Y023351D01*
X037606Y023427D01*
X037530Y023581D02*
X037990Y023581D01*
X037913Y023427D02*
X037990Y023351D01*
X037990Y023197D01*
X037913Y023120D01*
X037606Y023120D01*
X037683Y023581D02*
X037990Y023888D01*
X037760Y023658D02*
X037530Y023888D01*
X036990Y023811D02*
X036990Y023658D01*
X036913Y023581D01*
X036836Y023581D01*
X036760Y023658D01*
X036760Y023811D01*
X036683Y023888D01*
X036606Y023888D01*
X036530Y023811D01*
X036530Y023658D01*
X036606Y023581D01*
X036530Y023427D02*
X036990Y023427D01*
X036836Y023274D01*
X036990Y023120D01*
X036530Y023120D01*
X036530Y022814D02*
X036990Y022814D01*
X036990Y022967D02*
X036990Y022660D01*
X035990Y022814D02*
X035990Y023120D01*
X035990Y022967D02*
X035530Y022967D01*
X035530Y023274D02*
X035530Y023504D01*
X035606Y023581D01*
X035913Y023581D01*
X035990Y023504D01*
X035990Y023274D01*
X035530Y023274D01*
X035530Y023734D02*
X035530Y023888D01*
X035530Y023811D02*
X035990Y023811D01*
X035990Y023734D02*
X035990Y023888D01*
X036913Y023888D02*
X036990Y023811D01*
X038530Y023680D02*
X038530Y023526D01*
X038606Y023450D01*
X038760Y023526D02*
X038836Y023450D01*
X038913Y023450D01*
X038990Y023526D01*
X038990Y023680D01*
X038913Y023757D01*
X038913Y023910D02*
X038606Y023910D01*
X038530Y023987D01*
X038530Y024140D01*
X038606Y024217D01*
X038913Y024217D01*
X038990Y024140D01*
X038990Y023987D01*
X038913Y023910D01*
X038683Y023757D02*
X038606Y023757D01*
X038530Y023680D01*
X038683Y023757D02*
X038760Y023680D01*
X038760Y023526D01*
X038683Y024370D02*
X038683Y024601D01*
X038760Y024677D01*
X038913Y024677D01*
X038990Y024601D01*
X038990Y024370D01*
X038530Y024370D01*
X038530Y024831D02*
X038836Y025138D01*
X038913Y025138D01*
X038990Y025061D01*
X038990Y024908D01*
X038913Y024831D01*
X038530Y024831D02*
X038530Y025138D01*
X039530Y025138D02*
X039760Y024831D01*
X039990Y025138D01*
X039990Y024677D02*
X039530Y024370D01*
X039530Y024217D02*
X039683Y024064D01*
X039683Y024140D02*
X039683Y023910D01*
X039530Y023910D02*
X039990Y023910D01*
X039990Y024140D01*
X039913Y024217D01*
X039760Y024217D01*
X039683Y024140D01*
X039990Y024370D02*
X039530Y024677D01*
X040530Y024677D02*
X040990Y024370D01*
X040990Y024217D02*
X040990Y023910D01*
X040990Y024064D02*
X040530Y024064D01*
X040530Y024370D02*
X040990Y024677D01*
X040990Y024831D02*
X040760Y025138D01*
X040530Y024831D01*
X041530Y024984D02*
X041990Y024984D01*
X041990Y024831D02*
X041990Y025138D01*
X041913Y024677D02*
X041990Y024601D01*
X041990Y024447D01*
X041913Y024370D01*
X041836Y024370D01*
X041760Y024447D01*
X041760Y024601D01*
X041683Y024677D01*
X041606Y024677D01*
X041530Y024601D01*
X041530Y024447D01*
X041606Y024370D01*
X041530Y024217D02*
X041683Y024064D01*
X041683Y024140D02*
X041683Y023910D01*
X041530Y023910D02*
X041990Y023910D01*
X041990Y024140D01*
X041913Y024217D01*
X041760Y024217D01*
X041683Y024140D01*
X041760Y023757D02*
X041530Y023757D01*
X041760Y023757D02*
X041836Y023680D01*
X041836Y023450D01*
X041530Y023450D01*
X042530Y023987D02*
X042606Y023910D01*
X042530Y023987D02*
X042530Y024140D01*
X042606Y024217D01*
X042683Y024217D01*
X042760Y024140D01*
X042760Y024064D01*
X042760Y024140D02*
X042836Y024217D01*
X042913Y024217D01*
X042990Y024140D01*
X042990Y023987D01*
X042913Y023910D01*
X042836Y024370D02*
X042530Y024524D01*
X042836Y024677D01*
X042913Y024831D02*
X042990Y024908D01*
X042990Y025061D01*
X042913Y025138D01*
X042836Y025138D01*
X042760Y025061D01*
X042683Y025138D01*
X042606Y025138D01*
X042530Y025061D01*
X042530Y024908D01*
X042606Y024831D01*
X042760Y024984D02*
X042760Y025061D01*
X043361Y025791D02*
X043438Y025791D01*
X043438Y025868D01*
X043361Y025868D01*
X043361Y025791D01*
X043591Y025791D02*
X043821Y025791D01*
X043898Y025868D01*
X043898Y026021D01*
X043821Y026098D01*
X043591Y026098D01*
X043591Y025715D01*
X043668Y025638D01*
X043744Y025638D01*
X044051Y025791D02*
X044051Y026098D01*
X044051Y025791D02*
X044282Y025791D01*
X044358Y025868D01*
X044358Y026098D01*
X044512Y026021D02*
X044589Y026098D01*
X044819Y026098D01*
X044819Y026252D02*
X044819Y025791D01*
X044589Y025791D01*
X044512Y025868D01*
X044512Y026021D01*
X044972Y026021D02*
X044972Y025945D01*
X045279Y025945D01*
X045279Y026021D02*
X045202Y026098D01*
X045049Y026098D01*
X044972Y026021D01*
X045049Y025791D02*
X045202Y025791D01*
X045279Y025868D01*
X045279Y026021D01*
X045433Y025868D02*
X045433Y026175D01*
X045509Y026252D01*
X045740Y026252D01*
X045740Y025791D01*
X045509Y025791D01*
X045433Y025868D01*
X043438Y026021D02*
X043438Y026098D01*
X043361Y026098D01*
X043361Y026021D01*
X043438Y026021D01*
X038630Y030009D02*
X038630Y030239D01*
X038553Y030315D01*
X038400Y030315D01*
X038323Y030239D01*
X038323Y030009D01*
X038323Y030162D02*
X038170Y030315D01*
X038170Y030469D02*
X038476Y030776D01*
X038553Y030776D01*
X038630Y030699D01*
X038630Y030546D01*
X038553Y030469D01*
X038170Y030469D02*
X038170Y030776D01*
X038246Y030929D02*
X038170Y031006D01*
X038170Y031159D01*
X038246Y031236D01*
X038553Y031236D01*
X038630Y031159D01*
X038630Y031006D01*
X038553Y030929D01*
X038476Y030929D01*
X038400Y031006D01*
X038400Y031236D01*
X038339Y031670D02*
X038492Y031670D01*
X038569Y031746D01*
X038723Y031670D02*
X038876Y031823D01*
X038799Y031823D02*
X039030Y031823D01*
X039030Y031670D02*
X039030Y032130D01*
X038799Y032130D01*
X038723Y032053D01*
X038723Y031900D01*
X038799Y031823D01*
X038569Y032053D02*
X038492Y032130D01*
X038339Y032130D01*
X038262Y032053D01*
X038262Y031977D01*
X038339Y031900D01*
X038262Y031823D01*
X038262Y031746D01*
X038339Y031670D01*
X038339Y031900D02*
X038416Y031900D01*
X038109Y032053D02*
X038032Y032130D01*
X037879Y032130D01*
X037802Y032053D01*
X038109Y031746D01*
X038032Y031670D01*
X037879Y031670D01*
X037802Y031746D01*
X037802Y032053D01*
X038109Y032053D02*
X038109Y031746D01*
X037753Y031236D02*
X037676Y031236D01*
X037600Y031159D01*
X037600Y031006D01*
X037676Y030929D01*
X037753Y030929D01*
X037830Y031006D01*
X037830Y031159D01*
X037753Y031236D01*
X037600Y031159D02*
X037523Y031236D01*
X037446Y031236D01*
X037370Y031159D01*
X037370Y031006D01*
X037446Y030929D01*
X037523Y030929D01*
X037600Y031006D01*
X037676Y030776D02*
X037753Y030776D01*
X037830Y030699D01*
X037830Y030546D01*
X037753Y030469D01*
X037753Y030315D02*
X037600Y030315D01*
X037523Y030239D01*
X037523Y030009D01*
X037523Y030162D02*
X037370Y030315D01*
X037370Y030469D02*
X037676Y030776D01*
X037370Y030776D02*
X037370Y030469D01*
X036990Y030546D02*
X036990Y030699D01*
X036913Y030776D01*
X036836Y030776D01*
X036760Y030699D01*
X036683Y030776D01*
X036606Y030776D01*
X036530Y030699D01*
X036530Y030546D01*
X036606Y030469D01*
X036530Y030315D02*
X036683Y030162D01*
X036683Y030239D02*
X036683Y030009D01*
X036530Y030009D02*
X036990Y030009D01*
X036990Y030239D01*
X036913Y030315D01*
X036760Y030315D01*
X036683Y030239D01*
X036913Y030469D02*
X036990Y030546D01*
X036760Y030622D02*
X036760Y030699D01*
X036760Y030929D02*
X036760Y031236D01*
X036990Y031159D02*
X036760Y030929D01*
X036530Y031159D02*
X036990Y031159D01*
X037753Y030315D02*
X037830Y030239D01*
X037830Y030009D01*
X037370Y030009D01*
X038170Y030009D02*
X038630Y030009D01*
X037321Y031740D02*
X037321Y032200D01*
X037090Y032200D01*
X037014Y032123D01*
X037014Y031970D01*
X037090Y031893D01*
X037321Y031893D01*
X037167Y031893D02*
X037014Y031740D01*
X036860Y031816D02*
X036784Y031740D01*
X036630Y031740D01*
X036553Y031816D01*
X036553Y031893D01*
X036630Y031970D01*
X036707Y031970D01*
X036630Y031970D02*
X036553Y032047D01*
X036553Y032123D01*
X036630Y032200D01*
X036784Y032200D01*
X036860Y032123D01*
X036784Y032540D02*
X036630Y032540D01*
X036553Y032616D01*
X036553Y032693D01*
X036630Y032770D01*
X036707Y032770D01*
X036630Y032770D02*
X036553Y032847D01*
X036553Y032923D01*
X036630Y033000D01*
X036784Y033000D01*
X036860Y032923D01*
X037014Y032923D02*
X037014Y032770D01*
X037090Y032693D01*
X037321Y032693D01*
X037321Y032540D02*
X037321Y033000D01*
X037090Y033000D01*
X037014Y032923D01*
X037167Y032693D02*
X037014Y032540D01*
X036860Y032616D02*
X036784Y032540D01*
X036400Y032540D02*
X036093Y032847D01*
X036093Y032923D01*
X036170Y033000D01*
X036323Y033000D01*
X036400Y032923D01*
X036400Y032540D02*
X036093Y032540D01*
X036246Y032200D02*
X036246Y031740D01*
X036093Y031740D02*
X036400Y031740D01*
X036400Y032047D02*
X036246Y032200D01*
X037822Y032843D02*
X038129Y032536D01*
X038129Y032460D01*
X038282Y032460D02*
X038589Y032460D01*
X038282Y032767D01*
X038282Y032843D01*
X038359Y032920D01*
X038512Y032920D01*
X038589Y032843D01*
X038743Y032843D02*
X038743Y032690D01*
X038819Y032613D01*
X039050Y032613D01*
X039050Y032460D02*
X039050Y032920D01*
X038819Y032920D01*
X038743Y032843D01*
X038896Y032613D02*
X038743Y032460D01*
X038129Y032920D02*
X037822Y032920D01*
X037822Y032843D01*
X037990Y035259D02*
X037990Y035565D01*
X037990Y035412D02*
X037530Y035412D01*
X037606Y035719D02*
X037530Y035796D01*
X037530Y035949D01*
X037606Y036026D01*
X037530Y036179D02*
X037990Y036179D01*
X037913Y036026D02*
X037990Y035949D01*
X037990Y035796D01*
X037913Y035719D01*
X037606Y035719D01*
X037683Y036179D02*
X037990Y036486D01*
X037760Y036256D02*
X037530Y036486D01*
X036990Y036409D02*
X036990Y036256D01*
X036913Y036179D01*
X036836Y036179D01*
X036760Y036256D01*
X036760Y036409D01*
X036683Y036486D01*
X036606Y036486D01*
X036530Y036409D01*
X036530Y036256D01*
X036606Y036179D01*
X036530Y036026D02*
X036990Y036026D01*
X036836Y035872D01*
X036990Y035719D01*
X036530Y035719D01*
X036530Y035412D02*
X036990Y035412D01*
X036990Y035259D02*
X036990Y035565D01*
X036990Y036409D02*
X036913Y036486D01*
X035990Y036486D02*
X035990Y036333D01*
X035990Y036409D02*
X035530Y036409D01*
X035530Y036333D02*
X035530Y036486D01*
X035606Y036179D02*
X035530Y036103D01*
X035530Y035872D01*
X035990Y035872D01*
X035990Y036103D01*
X035913Y036179D01*
X035606Y036179D01*
X035990Y035719D02*
X035990Y035412D01*
X035990Y035565D02*
X035530Y035565D01*
X034990Y035565D02*
X034990Y035259D01*
X034990Y035412D02*
X034530Y035412D01*
X034530Y035719D02*
X034530Y035949D01*
X034606Y036026D01*
X034913Y036026D01*
X034990Y035949D01*
X034990Y035719D01*
X034530Y035719D01*
X034606Y036179D02*
X034530Y036256D01*
X034530Y036409D01*
X034606Y036486D01*
X034913Y036486D01*
X034990Y036409D01*
X034990Y036256D01*
X034913Y036179D01*
X034606Y036179D01*
X033990Y036585D02*
X033913Y036509D01*
X033606Y036509D01*
X033530Y036585D01*
X033530Y036739D01*
X033606Y036815D01*
X033760Y036815D01*
X033760Y036662D01*
X033913Y036815D02*
X033990Y036739D01*
X033990Y036585D01*
X033990Y036969D02*
X033530Y037276D01*
X033990Y037276D01*
X033990Y037429D02*
X033530Y037429D01*
X033530Y037659D01*
X033606Y037736D01*
X033913Y037736D01*
X033990Y037659D01*
X033990Y037429D01*
X033990Y036969D02*
X033530Y036969D01*
X038530Y036969D02*
X038990Y036969D01*
X038990Y037199D01*
X038913Y037276D01*
X038760Y037276D01*
X038683Y037199D01*
X038683Y036969D01*
X038606Y036815D02*
X038913Y036815D01*
X038990Y036739D01*
X038990Y036585D01*
X038913Y036509D01*
X038606Y036509D01*
X038530Y036585D01*
X038530Y036739D01*
X038606Y036815D01*
X038606Y036355D02*
X038530Y036278D01*
X038530Y036125D01*
X038606Y036048D01*
X038760Y036125D02*
X038760Y036278D01*
X038683Y036355D01*
X038606Y036355D01*
X038760Y036125D02*
X038836Y036048D01*
X038913Y036048D01*
X038990Y036125D01*
X038990Y036278D01*
X038913Y036355D01*
X039530Y036509D02*
X039990Y036509D01*
X039990Y036739D01*
X039913Y036815D01*
X039760Y036815D01*
X039683Y036739D01*
X039683Y036509D01*
X039683Y036662D02*
X039530Y036815D01*
X039530Y036969D02*
X039990Y037276D01*
X039760Y037429D02*
X039530Y037736D01*
X039760Y037429D02*
X039990Y037736D01*
X040530Y037429D02*
X040760Y037736D01*
X040990Y037429D01*
X040990Y037276D02*
X040530Y036969D01*
X040530Y037276D02*
X040990Y036969D01*
X040990Y036815D02*
X040990Y036509D01*
X040990Y036662D02*
X040530Y036662D01*
X039990Y036969D02*
X039530Y037276D01*
X038990Y037506D02*
X038913Y037429D01*
X038990Y037506D02*
X038990Y037659D01*
X038913Y037736D01*
X038836Y037736D01*
X038530Y037429D01*
X038530Y037736D01*
X041530Y037583D02*
X041990Y037583D01*
X041990Y037736D02*
X041990Y037429D01*
X041913Y037276D02*
X041990Y037199D01*
X041990Y037046D01*
X041913Y036969D01*
X041836Y036969D01*
X041760Y037046D01*
X041760Y037199D01*
X041683Y037276D01*
X041606Y037276D01*
X041530Y037199D01*
X041530Y037046D01*
X041606Y036969D01*
X041530Y036815D02*
X041683Y036662D01*
X041683Y036739D02*
X041683Y036509D01*
X041530Y036509D02*
X041990Y036509D01*
X041990Y036739D01*
X041913Y036815D01*
X041760Y036815D01*
X041683Y036739D01*
X041760Y036355D02*
X041530Y036355D01*
X041760Y036355D02*
X041836Y036278D01*
X041836Y036048D01*
X041530Y036048D01*
X042530Y036585D02*
X042606Y036509D01*
X042530Y036585D02*
X042530Y036739D01*
X042606Y036815D01*
X042683Y036815D01*
X042760Y036739D01*
X042760Y036662D01*
X042760Y036739D02*
X042836Y036815D01*
X042913Y036815D01*
X042990Y036739D01*
X042990Y036585D01*
X042913Y036509D01*
X042836Y036969D02*
X042530Y037122D01*
X042836Y037276D01*
X042913Y037429D02*
X042990Y037506D01*
X042990Y037659D01*
X042913Y037736D01*
X042836Y037736D01*
X042760Y037659D01*
X042683Y037736D01*
X042606Y037736D01*
X042530Y037659D01*
X042530Y037506D01*
X042606Y037429D01*
X042760Y037583D02*
X042760Y037659D01*
X043591Y038313D02*
X043591Y038697D01*
X043821Y038697D01*
X043898Y038620D01*
X043898Y038466D01*
X043821Y038390D01*
X043591Y038390D01*
X043591Y038313D02*
X043668Y038236D01*
X043744Y038236D01*
X043438Y038390D02*
X043438Y038466D01*
X043361Y038466D01*
X043361Y038390D01*
X043438Y038390D01*
X043438Y038620D02*
X043438Y038697D01*
X043361Y038697D01*
X043361Y038620D01*
X043438Y038620D01*
X044051Y038697D02*
X044051Y038390D01*
X044282Y038390D01*
X044358Y038466D01*
X044358Y038697D01*
X044512Y038620D02*
X044589Y038697D01*
X044819Y038697D01*
X044819Y038850D02*
X044819Y038390D01*
X044589Y038390D01*
X044512Y038466D01*
X044512Y038620D01*
X044972Y038620D02*
X044972Y038543D01*
X045279Y038543D01*
X045279Y038466D02*
X045279Y038620D01*
X045202Y038697D01*
X045049Y038697D01*
X044972Y038620D01*
X045049Y038390D02*
X045202Y038390D01*
X045279Y038466D01*
X045433Y038466D02*
X045433Y038773D01*
X045509Y038850D01*
X045740Y038850D01*
X045740Y038390D01*
X045509Y038390D01*
X045433Y038466D01*
X033913Y025138D02*
X033606Y025138D01*
X033530Y025061D01*
X033530Y024831D01*
X033990Y024831D01*
X033990Y025061D01*
X033913Y025138D01*
X033990Y024677D02*
X033530Y024677D01*
X033990Y024370D01*
X033530Y024370D01*
X033606Y024217D02*
X033760Y024217D01*
X033760Y024064D01*
X033913Y024217D02*
X033990Y024140D01*
X033990Y023987D01*
X033913Y023910D01*
X033606Y023910D01*
X033530Y023987D01*
X033530Y024140D01*
X033606Y024217D01*
X034530Y023811D02*
X034606Y023888D01*
X034913Y023888D01*
X034990Y023811D01*
X034990Y023658D01*
X034913Y023581D01*
X034606Y023581D01*
X034530Y023658D01*
X034530Y023811D01*
X034606Y023427D02*
X034913Y023427D01*
X034990Y023351D01*
X034990Y023120D01*
X034530Y023120D01*
X034530Y023351D01*
X034606Y023427D01*
X034990Y022967D02*
X034990Y022660D01*
X034990Y022814D02*
X034530Y022814D01*
X025388Y021535D02*
X025311Y021611D01*
X025004Y021305D01*
X024927Y021381D01*
X024927Y021535D01*
X025004Y021611D01*
X025311Y021611D01*
X025388Y021535D02*
X025388Y021381D01*
X025311Y021305D01*
X025004Y021305D01*
X024927Y021151D02*
X024927Y020844D01*
X025234Y021151D01*
X025311Y021151D01*
X025388Y021074D01*
X025388Y020921D01*
X025311Y020844D01*
X025311Y020691D02*
X025157Y020691D01*
X025081Y020614D01*
X025081Y020384D01*
X025081Y020537D02*
X024927Y020691D01*
X024927Y020384D02*
X025388Y020384D01*
X025388Y020614D01*
X025311Y020691D01*
X025388Y032982D02*
X024927Y032982D01*
X025081Y032982D02*
X025081Y033212D01*
X025157Y033289D01*
X025311Y033289D01*
X025388Y033212D01*
X025388Y032982D01*
X025081Y033136D02*
X024927Y033289D01*
X025004Y033443D02*
X024927Y033519D01*
X024927Y033673D01*
X025004Y033750D01*
X025081Y033750D01*
X025157Y033673D01*
X025157Y033596D01*
X025157Y033673D02*
X025234Y033750D01*
X025311Y033750D01*
X025388Y033673D01*
X025388Y033519D01*
X025311Y033443D01*
X025311Y033903D02*
X025388Y033980D01*
X025388Y034133D01*
X025311Y034210D01*
X025234Y034210D01*
X025157Y034133D01*
X025081Y034210D01*
X025004Y034210D01*
X024927Y034133D01*
X024927Y033980D01*
X025004Y033903D01*
X025157Y034056D02*
X025157Y034133D01*
X036093Y007803D02*
X036400Y007803D01*
X036400Y007573D01*
X036246Y007650D01*
X036170Y007650D01*
X036093Y007573D01*
X036093Y007420D01*
X036170Y007343D01*
X036323Y007343D01*
X036400Y007420D01*
X036553Y007343D02*
X036707Y007496D01*
X036630Y007496D02*
X036860Y007496D01*
X036860Y007343D02*
X036860Y007803D01*
X036630Y007803D01*
X036553Y007726D01*
X036553Y007573D01*
X036630Y007496D01*
X036630Y007003D02*
X036553Y006926D01*
X036553Y006773D01*
X036630Y006696D01*
X036860Y006696D01*
X036707Y006696D02*
X036553Y006543D01*
X036400Y006773D02*
X036093Y006773D01*
X036170Y006543D02*
X036170Y007003D01*
X036400Y006773D01*
X036630Y007003D02*
X036860Y007003D01*
X036860Y006543D01*
X036836Y006039D02*
X036760Y005963D01*
X036760Y005809D01*
X036836Y005732D01*
X036913Y005732D01*
X036990Y005809D01*
X036990Y005963D01*
X036913Y006039D01*
X036836Y006039D01*
X036760Y005963D02*
X036683Y006039D01*
X036606Y006039D01*
X036530Y005963D01*
X036530Y005809D01*
X036606Y005732D01*
X036683Y005732D01*
X036760Y005809D01*
X036760Y005579D02*
X036683Y005502D01*
X036683Y005272D01*
X036530Y005272D02*
X036990Y005272D01*
X036990Y005502D01*
X036913Y005579D01*
X036760Y005579D01*
X036683Y005426D02*
X036530Y005579D01*
X037370Y005579D02*
X037523Y005426D01*
X037523Y005502D02*
X037523Y005272D01*
X037370Y005272D02*
X037830Y005272D01*
X037830Y005502D01*
X037753Y005579D01*
X037600Y005579D01*
X037523Y005502D01*
X037370Y005732D02*
X037676Y006039D01*
X037753Y006039D01*
X037830Y005963D01*
X037830Y005809D01*
X037753Y005732D01*
X037370Y005732D02*
X037370Y006039D01*
X038170Y005963D02*
X038170Y005809D01*
X038246Y005732D01*
X038170Y005579D02*
X038323Y005426D01*
X038323Y005502D02*
X038323Y005272D01*
X038170Y005272D02*
X038630Y005272D01*
X038630Y005502D01*
X038553Y005579D01*
X038400Y005579D01*
X038323Y005502D01*
X038553Y005732D02*
X038630Y005809D01*
X038630Y005963D01*
X038553Y006039D01*
X038476Y006039D01*
X038400Y005963D01*
X038323Y006039D01*
X038246Y006039D01*
X038170Y005963D01*
X038400Y005963D02*
X038400Y005886D01*
X038339Y006473D02*
X038262Y006550D01*
X038262Y006626D01*
X038339Y006703D01*
X038569Y006703D01*
X038569Y006550D01*
X038492Y006473D01*
X038339Y006473D01*
X038569Y006703D02*
X038416Y006856D01*
X038262Y006933D01*
X038282Y007263D02*
X038589Y007263D01*
X038436Y007263D02*
X038436Y007723D01*
X038589Y007570D01*
X038743Y007646D02*
X038743Y007493D01*
X038819Y007416D01*
X039050Y007416D01*
X039050Y007263D02*
X039050Y007723D01*
X038819Y007723D01*
X038743Y007646D01*
X038896Y007416D02*
X038743Y007263D01*
X038799Y006933D02*
X038723Y006856D01*
X038723Y006703D01*
X038799Y006626D01*
X039030Y006626D01*
X039030Y006473D02*
X039030Y006933D01*
X038799Y006933D01*
X038876Y006626D02*
X038723Y006473D01*
D11*
X024887Y002713D02*
X024889Y002728D01*
X024894Y002742D01*
X024903Y002755D01*
X024914Y002765D01*
X024928Y002772D01*
X024942Y002776D01*
X024958Y002776D01*
X024972Y002772D01*
X024986Y002765D01*
X024997Y002755D01*
X025006Y002742D01*
X025011Y002728D01*
X025013Y002713D01*
X025011Y002698D01*
X025006Y002684D01*
X024997Y002671D01*
X024986Y002661D01*
X024972Y002654D01*
X024958Y002650D01*
X024942Y002650D01*
X024928Y002654D01*
X024914Y002661D01*
X024903Y002671D01*
X024894Y002684D01*
X024889Y002698D01*
X024887Y002713D01*
X024887Y015311D02*
X024889Y015326D01*
X024894Y015340D01*
X024903Y015353D01*
X024914Y015363D01*
X024928Y015370D01*
X024942Y015374D01*
X024958Y015374D01*
X024972Y015370D01*
X024986Y015363D01*
X024997Y015353D01*
X025006Y015340D01*
X025011Y015326D01*
X025013Y015311D01*
X025011Y015296D01*
X025006Y015282D01*
X024997Y015269D01*
X024986Y015259D01*
X024972Y015252D01*
X024958Y015248D01*
X024942Y015248D01*
X024928Y015252D01*
X024914Y015259D01*
X024903Y015269D01*
X024894Y015282D01*
X024889Y015296D01*
X024887Y015311D01*
X024887Y027910D02*
X024889Y027925D01*
X024894Y027939D01*
X024903Y027952D01*
X024914Y027962D01*
X024928Y027969D01*
X024942Y027973D01*
X024958Y027973D01*
X024972Y027969D01*
X024986Y027962D01*
X024997Y027952D01*
X025006Y027939D01*
X025011Y027925D01*
X025013Y027910D01*
X025011Y027895D01*
X025006Y027881D01*
X024997Y027868D01*
X024986Y027858D01*
X024972Y027851D01*
X024958Y027847D01*
X024942Y027847D01*
X024928Y027851D01*
X024914Y027858D01*
X024903Y027868D01*
X024894Y027881D01*
X024889Y027895D01*
X024887Y027910D01*
X024682Y040694D02*
X024682Y041203D01*
X024581Y041304D01*
X024379Y041101D02*
X023972Y041101D01*
X023972Y040897D02*
X024379Y040897D01*
X024581Y040999D02*
X024784Y040999D01*
X024985Y040897D02*
X024985Y041304D01*
X024985Y040897D02*
X025188Y040694D01*
X025392Y040897D01*
X025392Y041304D01*
X026200Y041101D02*
X026607Y040694D01*
X026200Y040694D01*
X026200Y041101D02*
X026607Y041101D01*
X026808Y040999D02*
X027215Y040999D01*
X027215Y040694D02*
X027215Y041304D01*
X027416Y041304D02*
X027416Y040694D01*
X027823Y040694D02*
X027823Y041304D01*
X027619Y041101D01*
X027416Y041304D01*
X026808Y041304D02*
X026808Y040694D01*
X028023Y040796D02*
X028125Y040694D01*
X028329Y040694D01*
X028430Y040796D01*
X028430Y040999D02*
X028227Y041101D01*
X028125Y041101D01*
X028023Y040999D01*
X028023Y040796D01*
X028430Y040999D02*
X028430Y041304D01*
X028023Y041304D01*
X028631Y041304D02*
X028631Y041203D01*
X029038Y040796D01*
X029038Y040694D01*
X029239Y040796D02*
X029341Y040694D01*
X029544Y040694D01*
X029646Y040796D01*
X029646Y040999D02*
X029442Y041101D01*
X029341Y041101D01*
X029239Y040999D01*
X029239Y040796D01*
X029646Y040999D02*
X029646Y041304D01*
X029239Y041304D01*
X029038Y041304D02*
X028631Y041304D01*
X029847Y040694D02*
X030254Y040694D01*
X030050Y040694D02*
X030050Y041304D01*
X030254Y041101D01*
X030454Y041101D02*
X030861Y041101D01*
X031062Y041101D02*
X031367Y041101D01*
X031469Y040999D01*
X031469Y040796D01*
X031367Y040694D01*
X031062Y040694D01*
X030861Y040897D02*
X030454Y040897D01*
X031670Y041304D02*
X032077Y041304D01*
X032077Y040694D01*
X032077Y040999D02*
X031873Y040999D01*
X032887Y040999D02*
X032988Y040999D01*
X032988Y041101D01*
X032887Y041101D01*
X032887Y040999D01*
X032887Y040796D02*
X032887Y040694D01*
X032988Y040694D01*
X032988Y040796D01*
X032887Y040796D01*
X033189Y040897D02*
X033494Y040897D01*
X033596Y040796D01*
X033494Y040694D01*
X033189Y040694D01*
X033189Y040999D01*
X033291Y041101D01*
X033494Y041101D01*
X033797Y040999D02*
X033797Y040694D01*
X033797Y040999D02*
X033899Y041101D01*
X034204Y041101D01*
X034204Y040694D01*
X034404Y040694D02*
X034404Y040999D01*
X034506Y041101D01*
X034812Y041101D01*
X034812Y040694D01*
X035012Y040897D02*
X035419Y040897D01*
X035419Y040796D02*
X035419Y040999D01*
X035317Y041101D01*
X035114Y041101D01*
X035012Y040999D01*
X035012Y040897D01*
X035114Y040694D02*
X035317Y040694D01*
X035419Y040796D01*
X035621Y040694D02*
X035723Y040796D01*
X035723Y041203D01*
X035824Y041101D02*
X035621Y041101D01*
X036025Y040999D02*
X036025Y040694D01*
X036025Y040999D02*
X036127Y041101D01*
X036432Y041101D01*
X036432Y040694D01*
X036633Y040694D02*
X036938Y040694D01*
X037040Y040796D01*
X036938Y040897D01*
X036633Y040897D01*
X036633Y040999D02*
X036633Y040694D01*
X036633Y040999D02*
X036735Y041101D01*
X036938Y041101D01*
X037849Y041101D02*
X038053Y041101D01*
X037951Y041203D02*
X037951Y040796D01*
X037849Y040694D01*
X038253Y040796D02*
X038355Y040897D01*
X038559Y040897D01*
X038660Y040999D01*
X038559Y041101D01*
X038253Y041101D01*
X038253Y040796D02*
X038355Y040694D01*
X038660Y040694D01*
X038861Y040897D02*
X039268Y040897D01*
X039268Y040796D02*
X039268Y040999D01*
X039166Y041101D01*
X038963Y041101D01*
X038861Y040999D01*
X038861Y040897D01*
X038963Y040694D02*
X039166Y040694D01*
X039268Y040796D01*
X039470Y040694D02*
X039572Y040796D01*
X039572Y041203D01*
X039673Y041101D02*
X039470Y041101D01*
X040482Y040999D02*
X040482Y040897D01*
X040889Y040897D01*
X040889Y040796D02*
X040889Y040999D01*
X040787Y041101D01*
X040583Y041101D01*
X040482Y040999D01*
X040583Y040694D02*
X040787Y040694D01*
X040889Y040796D01*
X041090Y040694D02*
X041294Y040694D01*
X041192Y040694D02*
X041192Y041304D01*
X041294Y041304D01*
X041596Y041101D02*
X041800Y041101D01*
X041902Y040999D01*
X041902Y040796D01*
X041800Y040694D01*
X041596Y040694D01*
X041495Y040796D01*
X041495Y040999D01*
X041596Y041101D01*
X042102Y040999D02*
X042102Y040796D01*
X042204Y040694D01*
X042509Y040694D01*
X042711Y040694D02*
X042914Y040694D01*
X042813Y040694D02*
X042813Y041101D01*
X042914Y041101D01*
X043115Y041101D02*
X043420Y041101D01*
X043522Y040999D01*
X043522Y040796D01*
X043420Y040694D01*
X043115Y040694D01*
X043115Y041304D01*
X042813Y041304D02*
X042813Y041406D01*
X042509Y041101D02*
X042204Y041101D01*
X042102Y040999D01*
X042509Y041101D02*
X042509Y040490D01*
X044331Y040796D02*
X044432Y040694D01*
X044636Y040694D01*
X044738Y040796D01*
X044636Y040999D02*
X044432Y040999D01*
X044331Y040897D01*
X044331Y040796D01*
X044636Y040999D02*
X044738Y041101D01*
X044738Y041203D01*
X044636Y041304D01*
X044432Y041304D01*
X044331Y041203D01*
X044938Y041203D02*
X044938Y040999D01*
X045040Y040897D01*
X045345Y040897D01*
X045345Y040694D02*
X045345Y041304D01*
X045040Y041304D01*
X044938Y041203D01*
X045546Y041203D02*
X045648Y041304D01*
X045851Y041304D01*
X045953Y041203D01*
X045953Y040796D01*
X045851Y040694D01*
X045648Y040694D01*
X045546Y040796D01*
X045546Y040999D01*
X045750Y040999D01*
X023771Y040796D02*
X023670Y040694D01*
X023466Y040694D01*
X023364Y040796D01*
X023364Y041203D01*
X023771Y040796D01*
X023771Y041203D01*
X023670Y041304D01*
X023466Y041304D01*
X023364Y041203D01*
X023164Y040796D02*
X023164Y040694D01*
X023062Y040694D01*
X023062Y040796D01*
X023164Y040796D01*
X022860Y040796D02*
X022860Y040897D01*
X022758Y040999D01*
X022554Y040999D01*
X022453Y040897D01*
X022453Y040796D01*
X022554Y040694D01*
X022758Y040694D01*
X022860Y040796D01*
X022758Y040999D02*
X022860Y041101D01*
X022860Y041203D01*
X022758Y041304D01*
X022554Y041304D01*
X022453Y041203D01*
X022453Y041101D01*
X022554Y040999D01*
X022252Y040999D02*
X022048Y041101D01*
X021947Y041101D01*
X021845Y040999D01*
X021845Y040796D01*
X021947Y040694D01*
X022150Y040694D01*
X022252Y040796D01*
X022252Y040999D02*
X022252Y041304D01*
X021845Y041304D01*
X019821Y041304D02*
X019821Y040694D01*
X019414Y040694D01*
X019213Y040694D02*
X018806Y040694D01*
X018606Y040999D02*
X018199Y040999D01*
X017998Y041304D02*
X017591Y041304D01*
X017794Y041304D02*
X017794Y040694D01*
X017390Y040796D02*
X017390Y040999D01*
X017288Y041101D01*
X017085Y041101D01*
X016983Y040999D01*
X016983Y040897D01*
X017390Y040897D01*
X017390Y040796D02*
X017288Y040694D01*
X017085Y040694D01*
X016783Y040796D02*
X016681Y040694D01*
X016375Y040694D01*
X016175Y040694D02*
X016175Y041304D01*
X016073Y041101D02*
X015870Y041101D01*
X015768Y040999D01*
X015768Y040694D01*
X015567Y040694D02*
X015567Y041101D01*
X015262Y041101D01*
X015160Y040999D01*
X015160Y040694D01*
X014959Y040694D02*
X014756Y040694D01*
X014858Y040694D02*
X014858Y041101D01*
X014959Y041101D01*
X014858Y041304D02*
X014858Y041406D01*
X014452Y041101D02*
X014554Y040999D01*
X014554Y040796D01*
X014452Y040694D01*
X014249Y040694D01*
X014147Y040796D01*
X014147Y040999D01*
X014249Y041101D01*
X014452Y041101D01*
X013946Y041101D02*
X013946Y040694D01*
X013539Y040694D02*
X013539Y040999D01*
X013641Y041101D01*
X013946Y041101D01*
X013339Y040999D02*
X012932Y040999D01*
X012731Y040999D02*
X012324Y040999D01*
X012123Y041101D02*
X012022Y040999D01*
X011818Y040999D01*
X011716Y040897D01*
X011716Y040796D01*
X011818Y040694D01*
X012022Y040694D01*
X012123Y040796D01*
X012324Y040694D02*
X012324Y041304D01*
X012123Y041203D02*
X012123Y041101D01*
X012123Y041203D02*
X012022Y041304D01*
X011818Y041304D01*
X011716Y041203D01*
X011516Y041304D02*
X011516Y040694D01*
X011210Y040694D01*
X011109Y040796D01*
X011109Y041203D01*
X011210Y041304D01*
X011516Y041304D01*
X010908Y041203D02*
X010908Y041101D01*
X010806Y040999D01*
X010603Y040999D01*
X010501Y040897D01*
X010501Y040796D01*
X010603Y040694D01*
X010806Y040694D01*
X010908Y040796D01*
X010908Y041203D02*
X010806Y041304D01*
X010603Y041304D01*
X010501Y041203D01*
X010300Y041304D02*
X010300Y040694D01*
X009893Y040694D01*
X009692Y040999D02*
X009285Y040999D01*
X009085Y040897D02*
X008779Y040897D01*
X008678Y040999D01*
X008678Y041203D01*
X008779Y041304D01*
X009085Y041304D01*
X009085Y040694D01*
X008881Y040897D02*
X008678Y040694D01*
X008477Y040796D02*
X008375Y040694D01*
X008070Y040694D01*
X008070Y040999D01*
X008172Y041101D01*
X008375Y041101D01*
X008375Y040897D02*
X008070Y040897D01*
X007869Y040999D02*
X007666Y040999D01*
X007464Y041101D02*
X007362Y041101D01*
X007362Y040694D01*
X007261Y040694D02*
X007464Y040694D01*
X007768Y040694D02*
X007768Y041203D01*
X007666Y041304D01*
X007362Y041304D02*
X007362Y041406D01*
X006451Y041304D02*
X006044Y041304D01*
X006248Y041304D02*
X006248Y040694D01*
X005844Y040796D02*
X005742Y040897D01*
X005437Y040897D01*
X005437Y040999D02*
X005437Y040694D01*
X005742Y040694D01*
X005844Y040796D01*
X005742Y041101D02*
X005538Y041101D01*
X005437Y040999D01*
X005236Y041101D02*
X005236Y040796D01*
X005134Y040694D01*
X004829Y040694D01*
X004829Y041101D01*
X004628Y041101D02*
X004323Y041101D01*
X004221Y040999D01*
X004221Y040796D01*
X004323Y040694D01*
X004628Y040694D01*
X004628Y041304D01*
X004020Y040999D02*
X003613Y040999D01*
X003413Y040694D02*
X003413Y041304D01*
X003006Y040694D01*
X003006Y041304D01*
X002805Y041101D02*
X002703Y041101D01*
X002703Y040694D01*
X002805Y040694D02*
X002601Y040694D01*
X002400Y040796D02*
X002298Y040694D01*
X001993Y040694D01*
X001792Y040694D02*
X001792Y041304D01*
X001993Y041101D02*
X002298Y041101D01*
X002400Y040999D01*
X002400Y040796D01*
X002703Y041304D02*
X002703Y041406D01*
X001792Y040897D02*
X001487Y041101D01*
X001792Y040897D02*
X001487Y040694D01*
X000678Y040694D02*
X000678Y041304D01*
X000576Y040999D02*
X000271Y040694D01*
X000070Y040796D02*
X-000032Y040694D01*
X-000337Y040694D01*
X-000337Y041101D01*
X-000537Y040999D02*
X-000639Y041101D01*
X-000843Y041101D01*
X-000944Y040999D01*
X-000944Y040694D01*
X-001145Y040694D02*
X-001349Y040694D01*
X-001247Y040694D02*
X-001247Y041304D01*
X-001145Y041304D01*
X-001550Y041101D02*
X-001652Y041101D01*
X-001652Y040694D01*
X-001550Y040694D02*
X-001754Y040694D01*
X-001955Y040694D02*
X-001955Y041304D01*
X-001652Y041304D02*
X-001652Y041406D01*
X-001955Y040897D02*
X-002261Y041101D01*
X-001955Y040897D02*
X-002261Y040694D01*
X-000537Y040694D02*
X-000537Y041304D01*
X000070Y041101D02*
X000070Y040796D01*
X000271Y041304D02*
X000678Y040897D01*
X008375Y040897D02*
X008477Y040796D01*
X012731Y040694D02*
X012731Y041304D01*
X016073Y041101D02*
X016175Y040999D01*
X016375Y041101D02*
X016681Y041101D01*
X016783Y040999D01*
X016783Y040796D01*
X018806Y041304D02*
X019213Y041304D01*
X019213Y040694D01*
X019213Y040999D02*
X019010Y040999D01*
X019414Y041304D02*
X019821Y041304D01*
X019821Y040999D02*
X019618Y040999D01*
D12*
X020470Y037270D02*
X023050Y037270D01*
X023050Y035970D01*
X020470Y035970D01*
X020470Y037270D01*
X026510Y037633D02*
X026510Y032870D01*
X026785Y032870D01*
X027848Y032870D02*
X029029Y032870D01*
X030092Y032870D02*
X032021Y032870D01*
X032021Y038067D01*
X031116Y038893D02*
X031084Y038894D01*
X031053Y038890D01*
X031022Y038883D01*
X030992Y038872D01*
X030964Y038858D01*
X030938Y038840D01*
X030914Y038819D01*
X030893Y038795D01*
X030875Y038769D01*
X030861Y038741D01*
X030850Y038711D01*
X030843Y038680D01*
X030839Y038649D01*
X030840Y038617D01*
X031116Y038893D02*
X031431Y038893D01*
X030841Y038618D02*
X030838Y038580D01*
X030832Y038542D01*
X030822Y038505D01*
X030808Y038469D01*
X030792Y038434D01*
X030772Y038402D01*
X030749Y038371D01*
X030723Y038342D01*
X030694Y038316D01*
X030663Y038293D01*
X030631Y038273D01*
X030596Y038257D01*
X030560Y038243D01*
X030523Y038233D01*
X030485Y038227D01*
X030447Y038224D01*
X027139Y038224D01*
X026350Y029854D02*
X025169Y029854D01*
X025169Y029815D01*
X025169Y029421D02*
X025169Y029303D01*
X025169Y028909D02*
X025169Y028830D01*
X025169Y028437D02*
X025169Y028319D01*
X025169Y027925D02*
X025169Y027885D01*
X026350Y027885D01*
X026350Y027925D01*
X026350Y028319D02*
X026350Y028437D01*
X026350Y028830D02*
X026350Y028909D01*
X026350Y029303D02*
X026350Y029421D01*
X026350Y029815D02*
X026350Y029854D01*
X030447Y025625D02*
X030485Y025628D01*
X030523Y025634D01*
X030560Y025644D01*
X030596Y025658D01*
X030631Y025674D01*
X030663Y025694D01*
X030694Y025717D01*
X030723Y025743D01*
X030749Y025772D01*
X030772Y025803D01*
X030792Y025835D01*
X030808Y025870D01*
X030822Y025906D01*
X030832Y025943D01*
X030838Y025981D01*
X030841Y026019D01*
X030840Y026019D02*
X030839Y026051D01*
X030843Y026082D01*
X030850Y026113D01*
X030861Y026143D01*
X030875Y026171D01*
X030893Y026197D01*
X030914Y026221D01*
X030938Y026242D01*
X030964Y026260D01*
X030992Y026274D01*
X031022Y026285D01*
X031053Y026292D01*
X031084Y026296D01*
X031116Y026295D01*
X031431Y026295D01*
X032021Y025468D02*
X032021Y020271D01*
X030092Y020271D01*
X029029Y020271D02*
X027848Y020271D01*
X026785Y020271D02*
X026510Y020271D01*
X026510Y025035D01*
X027139Y025626D02*
X030447Y025626D01*
X023050Y024671D02*
X023050Y023371D01*
X020470Y023371D01*
X020470Y024671D01*
X023050Y024671D01*
X025169Y017256D02*
X025169Y017216D01*
X025169Y017256D02*
X026350Y017256D01*
X026350Y017216D01*
X026350Y016822D02*
X026350Y016704D01*
X026350Y016311D02*
X026350Y016232D01*
X026350Y015838D02*
X026350Y015720D01*
X026350Y015326D02*
X026350Y015287D01*
X025169Y015287D01*
X025169Y015326D01*
X025169Y015720D02*
X025169Y015838D01*
X025169Y016232D02*
X025169Y016311D01*
X025169Y016704D02*
X025169Y016822D01*
X027139Y013027D02*
X030447Y013027D01*
X030485Y013030D01*
X030523Y013036D01*
X030560Y013046D01*
X030596Y013060D01*
X030631Y013076D01*
X030663Y013096D01*
X030694Y013119D01*
X030723Y013145D01*
X030749Y013174D01*
X030772Y013205D01*
X030792Y013237D01*
X030808Y013272D01*
X030822Y013308D01*
X030832Y013345D01*
X030838Y013383D01*
X030841Y013421D01*
X030840Y013421D02*
X030839Y013453D01*
X030843Y013484D01*
X030850Y013515D01*
X030861Y013545D01*
X030875Y013573D01*
X030893Y013599D01*
X030914Y013623D01*
X030938Y013644D01*
X030964Y013662D01*
X030992Y013676D01*
X031022Y013687D01*
X031053Y013694D01*
X031084Y013698D01*
X031116Y013697D01*
X031116Y013696D02*
X031431Y013696D01*
X032021Y012870D02*
X032021Y007673D01*
X030092Y007673D01*
X029029Y007673D02*
X027848Y007673D01*
X026785Y007673D02*
X026510Y007673D01*
X026510Y012437D01*
X023050Y012073D02*
X023050Y010773D01*
X020470Y010773D01*
X020470Y012073D01*
X023050Y012073D01*
X025169Y004657D02*
X025169Y004618D01*
X025169Y004657D02*
X026350Y004657D01*
X026350Y004618D01*
X026350Y004224D02*
X026350Y004106D01*
X026350Y003712D02*
X026350Y003633D01*
X026350Y003240D02*
X026350Y003122D01*
X026350Y002728D02*
X026350Y002689D01*
X025169Y002689D01*
X025169Y002728D01*
X025169Y003122D02*
X025169Y003240D01*
X025169Y003633D02*
X025169Y003712D01*
X025169Y004106D02*
X025169Y004224D01*
D13*
X019284Y007593D02*
X019222Y007655D01*
X019222Y007779D01*
X019284Y007840D01*
X019346Y007840D01*
X019469Y007779D01*
X019469Y007964D01*
X019222Y007964D01*
X019284Y007593D02*
X019407Y007593D01*
X019469Y007655D01*
X019591Y007593D02*
X019837Y007593D01*
X019714Y007593D02*
X019714Y007964D01*
X019837Y007840D01*
X019959Y007902D02*
X020021Y007964D01*
X020144Y007964D01*
X020206Y007902D01*
X020206Y007655D01*
X020144Y007593D01*
X020021Y007593D01*
X019959Y007655D01*
X020021Y008693D02*
X019959Y008755D01*
X020021Y008693D02*
X020144Y008693D01*
X020206Y008755D01*
X020206Y009002D01*
X020144Y009064D01*
X020021Y009064D01*
X019959Y009002D01*
X019837Y008940D02*
X019714Y009064D01*
X019714Y008693D01*
X019837Y008693D02*
X019591Y008693D01*
X019469Y008755D02*
X019407Y008693D01*
X019284Y008693D01*
X019222Y008755D01*
X019222Y008817D01*
X019284Y008879D01*
X019469Y008879D01*
X019469Y008755D01*
X019469Y008879D02*
X019346Y009002D01*
X019222Y009064D01*
X023155Y005841D02*
X023155Y005594D01*
X023216Y005532D01*
X023340Y005532D01*
X023402Y005594D01*
X023523Y005532D02*
X023770Y005532D01*
X023646Y005532D02*
X023646Y005903D01*
X023770Y005779D01*
X023891Y005841D02*
X023953Y005903D01*
X024076Y005903D01*
X024138Y005841D01*
X024138Y005594D01*
X024076Y005532D01*
X023953Y005532D01*
X023891Y005594D01*
X023402Y005779D02*
X023340Y005717D01*
X023155Y005717D01*
X023155Y005841D02*
X023216Y005903D01*
X023340Y005903D01*
X023402Y005841D01*
X023402Y005779D01*
X023534Y007593D02*
X023657Y007593D01*
X023719Y007655D01*
X023719Y007717D01*
X023657Y007779D01*
X023534Y007779D01*
X023472Y007717D01*
X023472Y007655D01*
X023534Y007593D01*
X023534Y007779D02*
X023472Y007840D01*
X023472Y007902D01*
X023534Y007964D01*
X023657Y007964D01*
X023719Y007902D01*
X023719Y007840D01*
X023657Y007779D01*
X023841Y007593D02*
X024087Y007593D01*
X023964Y007593D02*
X023964Y007964D01*
X024087Y007840D01*
X024209Y007902D02*
X024271Y007964D01*
X024394Y007964D01*
X024456Y007902D01*
X024456Y007655D01*
X024394Y007593D01*
X024271Y007593D01*
X024209Y007655D01*
X024203Y008782D02*
X024141Y008844D01*
X024203Y008782D02*
X024326Y008782D01*
X024388Y008844D01*
X024388Y009091D01*
X024326Y009153D01*
X024203Y009153D01*
X024141Y009091D01*
X024020Y009029D02*
X023896Y009153D01*
X023896Y008782D01*
X023773Y008782D02*
X024020Y008782D01*
X023652Y008782D02*
X023652Y008844D01*
X023405Y009091D01*
X023405Y009153D01*
X023652Y009153D01*
X029212Y010188D02*
X029405Y010188D01*
X029308Y010188D02*
X029308Y010478D01*
X029405Y010381D01*
X029506Y010333D02*
X029555Y010285D01*
X029700Y010285D01*
X029700Y010188D02*
X029700Y010478D01*
X029555Y010478D01*
X029506Y010430D01*
X029506Y010333D01*
X029801Y010478D02*
X029898Y010478D01*
X029849Y010478D02*
X029849Y010236D01*
X029898Y010188D01*
X029946Y010188D01*
X029995Y010236D01*
X024138Y015442D02*
X024076Y015381D01*
X023953Y015381D01*
X023891Y015442D01*
X023770Y015566D02*
X023523Y015566D01*
X023402Y015689D02*
X023340Y015751D01*
X023216Y015751D01*
X023155Y015689D01*
X023402Y015442D01*
X023340Y015381D01*
X023216Y015381D01*
X023155Y015442D01*
X023155Y015689D01*
X023402Y015689D02*
X023402Y015442D01*
X023585Y015381D02*
X023585Y015751D01*
X023770Y015566D01*
X023891Y015689D02*
X023953Y015751D01*
X024076Y015751D01*
X024138Y015689D01*
X024138Y015442D01*
X024076Y018131D02*
X023953Y018131D01*
X023891Y018192D01*
X023770Y018192D02*
X023708Y018131D01*
X023585Y018131D01*
X023523Y018192D01*
X023523Y018254D01*
X023585Y018316D01*
X023646Y018316D01*
X023585Y018316D02*
X023523Y018378D01*
X023523Y018439D01*
X023585Y018501D01*
X023708Y018501D01*
X023770Y018439D01*
X023891Y018439D02*
X023953Y018501D01*
X024076Y018501D01*
X024138Y018439D01*
X024138Y018192D01*
X024076Y018131D01*
X023402Y018192D02*
X023340Y018131D01*
X023216Y018131D01*
X023155Y018192D01*
X023155Y018439D01*
X023216Y018501D01*
X023340Y018501D01*
X023402Y018439D01*
X023402Y018378D01*
X023340Y018316D01*
X023155Y018316D01*
X023534Y020192D02*
X023657Y020192D01*
X023719Y020253D01*
X023719Y020315D01*
X023657Y020377D01*
X023534Y020377D01*
X023472Y020315D01*
X023472Y020253D01*
X023534Y020192D01*
X023534Y020377D02*
X023472Y020439D01*
X023472Y020500D01*
X023534Y020562D01*
X023657Y020562D01*
X023719Y020500D01*
X023719Y020439D01*
X023657Y020377D01*
X023841Y020439D02*
X023902Y020377D01*
X023841Y020315D01*
X023841Y020253D01*
X023902Y020192D01*
X024026Y020192D01*
X024087Y020253D01*
X024209Y020253D02*
X024271Y020192D01*
X024394Y020192D01*
X024456Y020253D01*
X024456Y020500D01*
X024394Y020562D01*
X024271Y020562D01*
X024209Y020500D01*
X024087Y020500D02*
X024026Y020562D01*
X023902Y020562D01*
X023841Y020500D01*
X023841Y020439D01*
X023902Y020377D02*
X023964Y020377D01*
X023958Y021381D02*
X023835Y021381D01*
X023773Y021442D01*
X023773Y021504D01*
X023835Y021566D01*
X023896Y021566D01*
X023835Y021566D02*
X023773Y021628D01*
X023773Y021689D01*
X023835Y021751D01*
X023958Y021751D01*
X024020Y021689D01*
X024141Y021689D02*
X024203Y021751D01*
X024326Y021751D01*
X024388Y021689D01*
X024388Y021442D01*
X024326Y021381D01*
X024203Y021381D01*
X024141Y021442D01*
X024020Y021442D02*
X023958Y021381D01*
X023652Y021381D02*
X023652Y021442D01*
X023405Y021689D01*
X023405Y021751D01*
X023652Y021751D01*
X020206Y021600D02*
X020206Y021353D01*
X020144Y021292D01*
X020021Y021292D01*
X019959Y021353D01*
X019837Y021353D02*
X019776Y021292D01*
X019652Y021292D01*
X019591Y021353D01*
X019591Y021415D01*
X019652Y021477D01*
X019714Y021477D01*
X019652Y021477D02*
X019591Y021539D01*
X019591Y021600D01*
X019652Y021662D01*
X019776Y021662D01*
X019837Y021600D01*
X019959Y021600D02*
X020021Y021662D01*
X020144Y021662D01*
X020206Y021600D01*
X019469Y021477D02*
X019284Y021477D01*
X019222Y021415D01*
X019222Y021353D01*
X019284Y021292D01*
X019407Y021292D01*
X019469Y021353D01*
X019469Y021477D01*
X019346Y021600D01*
X019222Y021662D01*
X019222Y020562D02*
X019469Y020562D01*
X019469Y020377D01*
X019346Y020439D01*
X019284Y020439D01*
X019222Y020377D01*
X019222Y020253D01*
X019284Y020192D01*
X019407Y020192D01*
X019469Y020253D01*
X019591Y020253D02*
X019652Y020192D01*
X019776Y020192D01*
X019837Y020253D01*
X019959Y020253D02*
X020021Y020192D01*
X020144Y020192D01*
X020206Y020253D01*
X020206Y020500D01*
X020144Y020562D01*
X020021Y020562D01*
X019959Y020500D01*
X019837Y020500D02*
X019776Y020562D01*
X019652Y020562D01*
X019591Y020500D01*
X019591Y020439D01*
X019652Y020377D01*
X019591Y020315D01*
X019591Y020253D01*
X019652Y020377D02*
X019714Y020377D01*
X023216Y027979D02*
X023340Y027979D01*
X023402Y028041D01*
X023155Y028288D01*
X023155Y028041D01*
X023216Y027979D01*
X023402Y028041D02*
X023402Y028288D01*
X023340Y028349D01*
X023216Y028349D01*
X023155Y028288D01*
X023523Y028349D02*
X023646Y028288D01*
X023770Y028164D01*
X023585Y028164D01*
X023523Y028103D01*
X023523Y028041D01*
X023585Y027979D01*
X023708Y027979D01*
X023770Y028041D01*
X023770Y028164D01*
X023891Y028041D02*
X023953Y027979D01*
X024076Y027979D01*
X024138Y028041D01*
X024138Y028288D01*
X024076Y028349D01*
X023953Y028349D01*
X023891Y028288D01*
X023953Y030729D02*
X023891Y030791D01*
X023953Y030729D02*
X024076Y030729D01*
X024138Y030791D01*
X024138Y031038D01*
X024076Y031099D01*
X023953Y031099D01*
X023891Y031038D01*
X023770Y031099D02*
X023770Y030914D01*
X023646Y030976D01*
X023585Y030976D01*
X023523Y030914D01*
X023523Y030791D01*
X023585Y030729D01*
X023708Y030729D01*
X023770Y030791D01*
X023770Y031099D02*
X023523Y031099D01*
X023402Y031038D02*
X023402Y030976D01*
X023340Y030914D01*
X023155Y030914D01*
X023155Y030791D02*
X023155Y031038D01*
X023216Y031099D01*
X023340Y031099D01*
X023402Y031038D01*
X023402Y030791D02*
X023340Y030729D01*
X023216Y030729D01*
X023155Y030791D01*
X023534Y032790D02*
X023657Y032790D01*
X023719Y032852D01*
X023719Y032914D01*
X023657Y032975D01*
X023534Y032975D01*
X023472Y032914D01*
X023472Y032852D01*
X023534Y032790D01*
X023534Y032975D02*
X023472Y033037D01*
X023472Y033099D01*
X023534Y033161D01*
X023657Y033161D01*
X023719Y033099D01*
X023719Y033037D01*
X023657Y032975D01*
X023841Y032975D02*
X023841Y032852D01*
X023902Y032790D01*
X024026Y032790D01*
X024087Y032852D01*
X024209Y032852D02*
X024271Y032790D01*
X024394Y032790D01*
X024456Y032852D01*
X024456Y033099D01*
X024394Y033161D01*
X024271Y033161D01*
X024209Y033099D01*
X024087Y033161D02*
X024087Y032975D01*
X023964Y033037D01*
X023902Y033037D01*
X023841Y032975D01*
X023841Y033161D02*
X024087Y033161D01*
X024203Y033979D02*
X024141Y034041D01*
X024203Y033979D02*
X024326Y033979D01*
X024388Y034041D01*
X024388Y034288D01*
X024326Y034349D01*
X024203Y034349D01*
X024141Y034288D01*
X024020Y034349D02*
X024020Y034164D01*
X023896Y034226D01*
X023835Y034226D01*
X023773Y034164D01*
X023773Y034041D01*
X023835Y033979D01*
X023958Y033979D01*
X024020Y034041D01*
X024020Y034349D02*
X023773Y034349D01*
X023652Y034349D02*
X023405Y034349D01*
X023405Y034288D01*
X023652Y034041D01*
X023652Y033979D01*
X020206Y033952D02*
X020144Y033890D01*
X020021Y033890D01*
X019959Y033952D01*
X019837Y033952D02*
X019776Y033890D01*
X019652Y033890D01*
X019591Y033952D01*
X019591Y034075D01*
X019652Y034137D01*
X019714Y034137D01*
X019837Y034075D01*
X019837Y034261D01*
X019591Y034261D01*
X019469Y034075D02*
X019284Y034075D01*
X019222Y034014D01*
X019222Y033952D01*
X019284Y033890D01*
X019407Y033890D01*
X019469Y033952D01*
X019469Y034075D01*
X019346Y034199D01*
X019222Y034261D01*
X019959Y034199D02*
X020021Y034261D01*
X020144Y034261D01*
X020206Y034199D01*
X020206Y033952D01*
X020144Y033161D02*
X020206Y033099D01*
X020206Y032852D01*
X020144Y032790D01*
X020021Y032790D01*
X019959Y032852D01*
X019837Y032852D02*
X019776Y032790D01*
X019652Y032790D01*
X019591Y032852D01*
X019591Y032975D01*
X019652Y033037D01*
X019714Y033037D01*
X019837Y032975D01*
X019837Y033161D01*
X019591Y033161D01*
X019469Y033161D02*
X019469Y032975D01*
X019346Y033037D01*
X019284Y033037D01*
X019222Y032975D01*
X019222Y032852D01*
X019284Y032790D01*
X019407Y032790D01*
X019469Y032852D01*
X019469Y033161D02*
X019222Y033161D01*
X019959Y033099D02*
X020021Y033161D01*
X020144Y033161D01*
X029212Y035627D02*
X029405Y035433D01*
X029405Y035385D01*
X029506Y035530D02*
X029555Y035481D01*
X029700Y035481D01*
X029700Y035385D02*
X029700Y035675D01*
X029555Y035675D01*
X029506Y035627D01*
X029506Y035530D01*
X029405Y035675D02*
X029212Y035675D01*
X029212Y035627D01*
X029801Y035675D02*
X029898Y035675D01*
X029849Y035675D02*
X029849Y035433D01*
X029898Y035385D01*
X029946Y035385D01*
X029995Y035433D01*
X037655Y033664D02*
X037902Y033664D01*
X037778Y033664D02*
X037778Y034035D01*
X037902Y033911D01*
X038023Y033849D02*
X038023Y033726D01*
X038085Y033664D01*
X038208Y033664D01*
X038270Y033726D01*
X038391Y033726D02*
X038453Y033664D01*
X038576Y033664D01*
X038638Y033726D01*
X038638Y033973D01*
X038576Y034035D01*
X038453Y034035D01*
X038391Y033973D01*
X038270Y034035D02*
X038270Y033849D01*
X038146Y033911D01*
X038085Y033911D01*
X038023Y033849D01*
X038023Y034035D02*
X038270Y034035D01*
X040411Y034414D02*
X040657Y034414D01*
X040411Y034661D01*
X040411Y034723D01*
X040472Y034785D01*
X040596Y034785D01*
X040657Y034723D01*
X040779Y034785D02*
X041026Y034785D01*
X041026Y034599D01*
X040902Y034661D01*
X040841Y034661D01*
X040779Y034599D01*
X040779Y034476D01*
X040841Y034414D01*
X040964Y034414D01*
X041026Y034476D01*
X041147Y034476D02*
X041209Y034414D01*
X041332Y034414D01*
X041394Y034476D01*
X041394Y034723D01*
X041332Y034785D01*
X041209Y034785D01*
X041147Y034723D01*
X041043Y035400D02*
X041105Y035462D01*
X041043Y035400D02*
X040919Y035400D01*
X040858Y035462D01*
X040858Y035586D01*
X040919Y035647D01*
X040981Y035647D01*
X041105Y035586D01*
X041105Y035771D01*
X040858Y035771D01*
X040736Y035709D02*
X040736Y035462D01*
X040489Y035709D01*
X040489Y035462D01*
X040551Y035400D01*
X040675Y035400D01*
X040736Y035462D01*
X040736Y035709D02*
X040675Y035771D01*
X040551Y035771D01*
X040489Y035709D01*
X041226Y035709D02*
X041288Y035771D01*
X041411Y035771D01*
X041473Y035709D01*
X041473Y035462D01*
X041411Y035400D01*
X041288Y035400D01*
X041226Y035462D01*
X041288Y023172D02*
X041411Y023172D01*
X041473Y023111D01*
X041473Y022864D01*
X041411Y022802D01*
X041288Y022802D01*
X041226Y022864D01*
X041105Y022864D02*
X041043Y022802D01*
X040919Y022802D01*
X040858Y022864D01*
X040858Y022925D01*
X040919Y022987D01*
X040981Y022987D01*
X040919Y022987D02*
X040858Y023049D01*
X040858Y023111D01*
X040919Y023172D01*
X041043Y023172D01*
X041105Y023111D01*
X041226Y023111D02*
X041288Y023172D01*
X040736Y023111D02*
X040736Y022864D01*
X040489Y023111D01*
X040489Y022864D01*
X040551Y022802D01*
X040675Y022802D01*
X040736Y022864D01*
X040736Y023111D02*
X040675Y023172D01*
X040551Y023172D01*
X040489Y023111D01*
X040472Y022186D02*
X040596Y022186D01*
X040657Y022124D01*
X040779Y022124D02*
X040779Y022063D01*
X040841Y022001D01*
X040779Y021939D01*
X040779Y021878D01*
X040841Y021816D01*
X040964Y021816D01*
X041026Y021878D01*
X041147Y021878D02*
X041209Y021816D01*
X041332Y021816D01*
X041394Y021878D01*
X041394Y022124D01*
X041332Y022186D01*
X041209Y022186D01*
X041147Y022124D01*
X041026Y022124D02*
X040964Y022186D01*
X040841Y022186D01*
X040779Y022124D01*
X040841Y022001D02*
X040902Y022001D01*
X040657Y021816D02*
X040411Y022063D01*
X040411Y022124D01*
X040472Y022186D01*
X040411Y021816D02*
X040657Y021816D01*
X038638Y021374D02*
X038638Y021128D01*
X038576Y021066D01*
X038453Y021066D01*
X038391Y021128D01*
X038270Y021128D02*
X038208Y021066D01*
X038085Y021066D01*
X038023Y021128D01*
X038023Y021189D01*
X038085Y021251D01*
X038146Y021251D01*
X038085Y021251D02*
X038023Y021313D01*
X038023Y021374D01*
X038085Y021436D01*
X038208Y021436D01*
X038270Y021374D01*
X038391Y021374D02*
X038453Y021436D01*
X038576Y021436D01*
X038638Y021374D01*
X037902Y021313D02*
X037778Y021436D01*
X037778Y021066D01*
X037655Y021066D02*
X037902Y021066D01*
X029995Y022835D02*
X029946Y022786D01*
X029898Y022786D01*
X029849Y022835D01*
X029849Y023077D01*
X029801Y023077D02*
X029898Y023077D01*
X029700Y023077D02*
X029700Y022786D01*
X029700Y022883D02*
X029555Y022883D01*
X029506Y022931D01*
X029506Y023028D01*
X029555Y023077D01*
X029700Y023077D01*
X029405Y022931D02*
X029260Y023077D01*
X029260Y022786D01*
X029212Y022931D02*
X029405Y022931D01*
X040551Y010574D02*
X040489Y010512D01*
X040736Y010265D01*
X040675Y010204D01*
X040551Y010204D01*
X040489Y010265D01*
X040489Y010512D01*
X040551Y010574D02*
X040675Y010574D01*
X040736Y010512D01*
X040736Y010265D01*
X040858Y010204D02*
X041105Y010204D01*
X040981Y010204D02*
X040981Y010574D01*
X041105Y010450D01*
X041226Y010512D02*
X041288Y010574D01*
X041411Y010574D01*
X041473Y010512D01*
X041473Y010265D01*
X041411Y010204D01*
X041288Y010204D01*
X041226Y010265D01*
X041209Y009588D02*
X041332Y009588D01*
X041394Y009526D01*
X041394Y009279D01*
X041332Y009217D01*
X041209Y009217D01*
X041147Y009279D01*
X041026Y009217D02*
X040779Y009217D01*
X040657Y009217D02*
X040411Y009464D01*
X040411Y009526D01*
X040472Y009588D01*
X040596Y009588D01*
X040657Y009526D01*
X040902Y009588D02*
X040902Y009217D01*
X040657Y009217D02*
X040411Y009217D01*
X040902Y009588D02*
X041026Y009464D01*
X041147Y009526D02*
X041209Y009588D01*
X038638Y008776D02*
X038638Y008529D01*
X038576Y008467D01*
X038453Y008467D01*
X038391Y008529D01*
X038270Y008467D02*
X038023Y008467D01*
X037902Y008467D02*
X037655Y008467D01*
X037778Y008467D02*
X037778Y008838D01*
X037902Y008714D01*
X038146Y008838D02*
X038146Y008467D01*
X038270Y008714D02*
X038146Y008838D01*
X038391Y008776D02*
X038453Y008838D01*
X038576Y008838D01*
X038638Y008776D01*
X024138Y003091D02*
X024138Y002844D01*
X024076Y002782D01*
X023953Y002782D01*
X023891Y002844D01*
X023770Y002782D02*
X023523Y003029D01*
X023523Y003091D01*
X023585Y003153D01*
X023708Y003153D01*
X023770Y003091D01*
X023891Y003091D02*
X023953Y003153D01*
X024076Y003153D01*
X024138Y003091D01*
X023770Y002782D02*
X023523Y002782D01*
X023402Y002844D02*
X023155Y003091D01*
X023155Y002844D01*
X023216Y002782D01*
X023340Y002782D01*
X023402Y002844D01*
X023402Y003091D01*
X023340Y003153D01*
X023216Y003153D01*
X023155Y003091D01*
D14*
X020230Y011061D02*
X020105Y011061D01*
X020080Y011086D01*
X020080Y011136D01*
X020105Y011161D01*
X020230Y011161D01*
X020205Y011208D02*
X020230Y011233D01*
X020230Y011283D01*
X020205Y011308D01*
X020155Y011283D02*
X020155Y011233D01*
X020180Y011208D01*
X020205Y011208D01*
X020255Y011258D02*
X020054Y011258D01*
X020080Y011233D02*
X020080Y011283D01*
X020105Y011308D01*
X020130Y011308D01*
X020155Y011283D01*
X020155Y011356D02*
X020155Y011456D01*
X020230Y011431D02*
X020155Y011356D01*
X020080Y011431D02*
X020230Y011431D01*
X020080Y011233D02*
X020105Y011208D01*
X025865Y012732D02*
X025865Y012757D01*
X025890Y012782D01*
X026015Y012782D01*
X026015Y012757D02*
X026015Y012807D01*
X026015Y012854D02*
X026015Y012929D01*
X025990Y012954D01*
X025940Y012954D01*
X025915Y012929D01*
X025915Y012854D01*
X025865Y012854D02*
X026015Y012854D01*
X025990Y013001D02*
X026015Y013027D01*
X026015Y013077D01*
X025990Y013102D01*
X025965Y013102D01*
X025865Y013001D01*
X025865Y013102D01*
X025865Y012732D02*
X025890Y012707D01*
X020230Y023659D02*
X020105Y023659D01*
X020080Y023684D01*
X020080Y023734D01*
X020105Y023759D01*
X020230Y023759D01*
X020205Y023807D02*
X020230Y023832D01*
X020230Y023882D01*
X020205Y023907D01*
X020205Y023954D02*
X020180Y023954D01*
X020155Y023979D01*
X020155Y024029D01*
X020130Y024054D01*
X020105Y024054D01*
X020080Y024029D01*
X020080Y023979D01*
X020105Y023954D01*
X020130Y023954D01*
X020155Y023979D01*
X020155Y024029D02*
X020180Y024054D01*
X020205Y024054D01*
X020230Y024029D01*
X020230Y023979D01*
X020205Y023954D01*
X020155Y023882D02*
X020155Y023832D01*
X020180Y023807D01*
X020205Y023807D01*
X020255Y023857D02*
X020054Y023857D01*
X020080Y023882D02*
X020105Y023907D01*
X020130Y023907D01*
X020155Y023882D01*
X020080Y023882D02*
X020080Y023832D01*
X020105Y023807D01*
X025865Y025330D02*
X025865Y025355D01*
X025890Y025380D01*
X026015Y025380D01*
X026015Y025355D02*
X026015Y025405D01*
X026015Y025453D02*
X026015Y025528D01*
X025990Y025553D01*
X025940Y025553D01*
X025915Y025528D01*
X025915Y025453D01*
X025865Y025453D02*
X026015Y025453D01*
X026015Y025600D02*
X025940Y025600D01*
X025965Y025650D01*
X025965Y025675D01*
X025940Y025700D01*
X025890Y025700D01*
X025865Y025675D01*
X025865Y025625D01*
X025890Y025600D01*
X026015Y025600D02*
X026015Y025700D01*
X025865Y025330D02*
X025890Y025305D01*
X020230Y036110D02*
X020105Y036110D01*
X020080Y036135D01*
X020080Y036185D01*
X020105Y036210D01*
X020230Y036210D01*
X020205Y036258D02*
X020230Y036283D01*
X020230Y036333D01*
X020205Y036358D01*
X020180Y036405D02*
X020230Y036455D01*
X020080Y036455D01*
X020080Y036405D02*
X020080Y036505D01*
X020080Y036552D02*
X020180Y036652D01*
X020205Y036652D01*
X020230Y036627D01*
X020230Y036577D01*
X020205Y036552D01*
X020080Y036552D02*
X020080Y036652D01*
X020105Y036358D02*
X020130Y036358D01*
X020155Y036333D01*
X020155Y036283D01*
X020180Y036258D01*
X020205Y036258D01*
X020255Y036308D02*
X020054Y036308D01*
X020080Y036333D02*
X020105Y036358D01*
X020080Y036333D02*
X020080Y036283D01*
X020105Y036258D01*
X025865Y037929D02*
X025865Y037954D01*
X025890Y037979D01*
X026015Y037979D01*
X026015Y037954D02*
X026015Y038004D01*
X026015Y038051D02*
X026015Y038126D01*
X025990Y038151D01*
X025940Y038151D01*
X025915Y038126D01*
X025915Y038051D01*
X025865Y038051D02*
X026015Y038051D01*
X025990Y038198D02*
X025965Y038198D01*
X025940Y038223D01*
X025940Y038273D01*
X025915Y038298D01*
X025890Y038298D01*
X025865Y038273D01*
X025865Y038223D01*
X025890Y038198D01*
X025915Y038198D01*
X025940Y038223D01*
X025940Y038273D02*
X025965Y038298D01*
X025990Y038298D01*
X026015Y038273D01*
X026015Y038223D01*
X025990Y038198D01*
X025865Y037929D02*
X025890Y037904D01*
D15*
X025591Y027810D02*
X025591Y027693D01*
X025568Y027670D01*
X025521Y027670D01*
X025498Y027693D01*
X025498Y027810D01*
X025444Y027763D02*
X025397Y027810D01*
X025397Y027670D01*
X025351Y027670D02*
X025444Y027670D01*
X025297Y027670D02*
X025203Y027763D01*
X025203Y027786D01*
X025227Y027810D01*
X025273Y027810D01*
X025297Y027786D01*
X025297Y027670D02*
X025203Y027670D01*
X025227Y015211D02*
X025203Y015188D01*
X025203Y015165D01*
X025227Y015141D01*
X025273Y015141D01*
X025297Y015165D01*
X025297Y015188D01*
X025273Y015211D01*
X025227Y015211D01*
X025227Y015141D02*
X025203Y015118D01*
X025203Y015095D01*
X025227Y015071D01*
X025273Y015071D01*
X025297Y015095D01*
X025297Y015118D01*
X025273Y015141D01*
X025351Y015095D02*
X025351Y015211D01*
X025444Y015211D02*
X025444Y015095D01*
X025421Y015071D01*
X025374Y015071D01*
X025351Y015095D01*
X025351Y002613D02*
X025351Y002496D01*
X025374Y002473D01*
X025421Y002473D01*
X025444Y002496D01*
X025444Y002613D01*
X025297Y002543D02*
X025203Y002543D01*
X025227Y002613D02*
X025297Y002543D01*
X025227Y002473D02*
X025227Y002613D01*
M02*
