G75*
%MOIN*%
%OFA0B0*%
%FSLAX24Y24*%
%IPPOS*%
%LPD*%
%AMOC8*
5,1,8,0,0,1.08239X$1,22.5*
%
%ADD10R,0.2250X0.0750*%
%ADD11C,0.1181*%
%ADD12C,0.0454*%
%ADD13R,0.2900X0.6190*%
%ADD14R,3.9370X0.1575*%
%ADD15C,0.0230*%
%ADD16R,0.0395X0.0395*%
%ADD17R,0.0867X0.0867*%
%ADD18R,0.0671X0.0671*%
%ADD19R,0.0789X0.0395*%
%ADD20R,0.0277X0.0552*%
%ADD21R,0.0552X0.0277*%
%ADD22R,0.0190X0.0336*%
%ADD23R,0.0336X0.0190*%
%ADD24R,0.0395X0.0198*%
%ADD25R,0.0198X0.0395*%
%ADD26R,0.0394X0.0394*%
%ADD27R,0.0592X0.0710*%
%ADD28R,0.0710X0.0592*%
%ADD29C,0.0640*%
%ADD30R,0.0552X0.0552*%
%ADD31R,0.0474X0.0513*%
%ADD32R,0.0240X0.0560*%
%ADD33R,0.0513X0.0474*%
%ADD34OC8,0.1080*%
%ADD35C,0.0720*%
%ADD36R,0.0390X0.0430*%
%ADD37C,0.0410*%
D10*
X040185Y002698D03*
X040185Y015296D03*
X040185Y027895D03*
D11*
X012670Y032570D03*
X012670Y019971D03*
X012670Y007373D03*
D12*
X012665Y007370D03*
X012665Y019968D03*
X012665Y032567D03*
D13*
X044730Y032385D03*
X044730Y019786D03*
X044730Y007188D03*
D14*
X026445Y040756D03*
D15*
X026430Y039576D03*
X026680Y039576D03*
X026930Y039576D03*
X027180Y039576D03*
X027430Y039576D03*
X027680Y039576D03*
X027930Y039576D03*
X028180Y039576D03*
X028430Y039576D03*
X028680Y039576D03*
X028930Y039576D03*
X029180Y039576D03*
X029430Y039576D03*
X029680Y039576D03*
X029930Y039576D03*
X030180Y039576D03*
X030430Y039576D03*
X030680Y039576D03*
X030930Y039576D03*
X031180Y039576D03*
X031430Y039576D03*
X031680Y039576D03*
X031930Y039576D03*
X032180Y039576D03*
X032430Y039576D03*
X032680Y039576D03*
X032930Y039576D03*
X033180Y039576D03*
X033430Y039576D03*
X033680Y039576D03*
X033930Y039576D03*
X034180Y039576D03*
X034430Y039576D03*
X034680Y039576D03*
X034930Y039576D03*
X035180Y039576D03*
X035430Y039576D03*
X035680Y039576D03*
X035930Y039576D03*
X036180Y039576D03*
X036430Y039576D03*
X036680Y039576D03*
X036930Y039576D03*
X037180Y039576D03*
X037430Y039576D03*
X037680Y039576D03*
X037930Y039576D03*
X038180Y039576D03*
X038430Y039576D03*
X038680Y039576D03*
X038930Y039576D03*
X039180Y039576D03*
X039430Y039576D03*
X039680Y039576D03*
X039930Y039576D03*
X040180Y039576D03*
X040430Y039576D03*
X040680Y039576D03*
X040930Y039576D03*
X041180Y039576D03*
X041430Y039576D03*
X041680Y039576D03*
X041930Y039576D03*
X042180Y039576D03*
X042430Y039576D03*
X042680Y039576D03*
X042930Y039576D03*
X043180Y039576D03*
X043430Y039576D03*
X043680Y039576D03*
X043930Y039576D03*
X044180Y039576D03*
X044430Y039576D03*
X044680Y039576D03*
X044930Y039576D03*
X045180Y039576D03*
X045430Y039576D03*
X045680Y039576D03*
X045930Y039576D03*
X045930Y026978D03*
X045680Y026978D03*
X045430Y026978D03*
X045180Y026978D03*
X044930Y026978D03*
X044680Y026978D03*
X044430Y026978D03*
X044180Y026978D03*
X043930Y026978D03*
X043680Y026978D03*
X043430Y026978D03*
X043180Y026978D03*
X042930Y026978D03*
X042680Y026978D03*
X042430Y026978D03*
X042180Y026978D03*
X041930Y026978D03*
X041680Y026978D03*
X041430Y026978D03*
X041180Y026978D03*
X040930Y026978D03*
X040680Y026978D03*
X040430Y026978D03*
X040180Y026978D03*
X039930Y026978D03*
X039680Y026978D03*
X039430Y026978D03*
X039180Y026978D03*
X038930Y026978D03*
X038680Y026978D03*
X038430Y026978D03*
X038180Y026978D03*
X037930Y026978D03*
X037680Y026978D03*
X037430Y026978D03*
X037180Y026978D03*
X036930Y026978D03*
X036680Y026978D03*
X036430Y026978D03*
X036180Y026978D03*
X035930Y026978D03*
X035680Y026978D03*
X035430Y026978D03*
X035180Y026978D03*
X034930Y026978D03*
X034680Y026978D03*
X034430Y026978D03*
X034180Y026978D03*
X033930Y026978D03*
X033680Y026978D03*
X033430Y026978D03*
X033180Y026978D03*
X032930Y026978D03*
X032680Y026978D03*
X032430Y026978D03*
X032180Y026978D03*
X031930Y026978D03*
X031680Y026978D03*
X031430Y026978D03*
X031180Y026978D03*
X030930Y026978D03*
X030680Y026978D03*
X030430Y026978D03*
X030180Y026978D03*
X029930Y026978D03*
X029680Y026978D03*
X029430Y026978D03*
X029180Y026978D03*
X028930Y026978D03*
X028680Y026978D03*
X028430Y026978D03*
X028180Y026978D03*
X027930Y026978D03*
X027680Y026978D03*
X027430Y026978D03*
X027180Y026978D03*
X026930Y026978D03*
X026680Y026978D03*
X026430Y026978D03*
X026180Y026978D03*
X025930Y026978D03*
X025680Y026978D03*
X025430Y026978D03*
X025180Y026978D03*
X024930Y026978D03*
X024680Y026978D03*
X024430Y026978D03*
X024180Y026978D03*
X023930Y026978D03*
X023680Y026978D03*
X023430Y026978D03*
X023180Y026978D03*
X022930Y026978D03*
X022680Y026978D03*
X022430Y026978D03*
X022180Y026978D03*
X021930Y026978D03*
X021680Y026978D03*
X021430Y026978D03*
X021180Y026978D03*
X020930Y026978D03*
X020680Y026978D03*
X020430Y026978D03*
X020180Y026978D03*
X019930Y026978D03*
X019680Y026978D03*
X019430Y026978D03*
X019180Y026978D03*
X018930Y026978D03*
X018680Y026978D03*
X018430Y026978D03*
X018180Y026978D03*
X017930Y026978D03*
X017680Y026978D03*
X017430Y026978D03*
X017180Y026978D03*
X016930Y026978D03*
X016680Y026978D03*
X016430Y026978D03*
X016180Y026978D03*
X015930Y026978D03*
X015680Y026978D03*
X015430Y026978D03*
X015180Y026978D03*
X014930Y026978D03*
X014680Y026978D03*
X014430Y026978D03*
X014180Y026978D03*
X013930Y026978D03*
X013680Y026978D03*
X013430Y026978D03*
X013180Y026978D03*
X012930Y026978D03*
X012680Y026978D03*
X012430Y026978D03*
X012180Y026978D03*
X011930Y026978D03*
X011680Y026978D03*
X011430Y026978D03*
X011180Y026978D03*
X010930Y026978D03*
X010680Y026978D03*
X010430Y026978D03*
X010180Y026978D03*
X009930Y026978D03*
X009680Y026978D03*
X009430Y026978D03*
X009180Y026978D03*
X008930Y026978D03*
X008680Y026978D03*
X008430Y026978D03*
X008180Y026978D03*
X007930Y026978D03*
X007680Y026978D03*
X007430Y026978D03*
X007180Y026978D03*
X006930Y026978D03*
X006930Y039576D03*
X007180Y039576D03*
X007430Y039576D03*
X007680Y039576D03*
X007930Y039576D03*
X008180Y039576D03*
X008430Y039576D03*
X008680Y039576D03*
X008930Y039576D03*
X009180Y039576D03*
X009430Y039576D03*
X009680Y039576D03*
X009930Y039576D03*
X010180Y039576D03*
X010430Y039576D03*
X010680Y039576D03*
X010930Y039576D03*
X011180Y039576D03*
X011430Y039576D03*
X011680Y039576D03*
X011930Y039576D03*
X012180Y039576D03*
X012430Y039576D03*
X012680Y039576D03*
X012930Y039576D03*
X013180Y039576D03*
X013430Y039576D03*
X013680Y039576D03*
X013930Y039576D03*
X014180Y039576D03*
X014430Y039576D03*
X014680Y039576D03*
X014930Y039576D03*
X015180Y039576D03*
X015430Y039576D03*
X015680Y039576D03*
X015930Y039576D03*
X016180Y039576D03*
X016430Y039576D03*
X016680Y039576D03*
X016930Y039576D03*
X017180Y039576D03*
X017430Y039576D03*
X017680Y039576D03*
X017930Y039576D03*
X018180Y039576D03*
X018430Y039576D03*
X018680Y039576D03*
X018930Y039576D03*
X019180Y039576D03*
X019430Y039576D03*
X019680Y039576D03*
X019930Y039576D03*
X020180Y039576D03*
X020430Y039576D03*
X020680Y039576D03*
X020930Y039576D03*
X021180Y039576D03*
X021430Y039576D03*
X021680Y039576D03*
X021930Y039576D03*
X022180Y039576D03*
X022430Y039576D03*
X022680Y039576D03*
X022930Y039576D03*
X023180Y039576D03*
X023430Y039576D03*
X023680Y039576D03*
X023930Y039576D03*
X024180Y039576D03*
X024430Y039576D03*
X024680Y039576D03*
X024930Y039576D03*
X025180Y039576D03*
X025430Y039576D03*
X025680Y039576D03*
X025930Y039576D03*
X026180Y039576D03*
X026180Y014379D03*
X026430Y014379D03*
X026680Y014379D03*
X026930Y014379D03*
X027180Y014379D03*
X027430Y014379D03*
X027680Y014379D03*
X027930Y014379D03*
X028180Y014379D03*
X028430Y014379D03*
X028680Y014379D03*
X028930Y014379D03*
X029180Y014379D03*
X029430Y014379D03*
X029680Y014379D03*
X029930Y014379D03*
X030180Y014379D03*
X030430Y014379D03*
X030680Y014379D03*
X030930Y014379D03*
X031180Y014379D03*
X031430Y014379D03*
X031680Y014379D03*
X031930Y014379D03*
X032180Y014379D03*
X032430Y014379D03*
X032680Y014379D03*
X032930Y014379D03*
X033180Y014379D03*
X033430Y014379D03*
X033680Y014379D03*
X033930Y014379D03*
X034180Y014379D03*
X034430Y014379D03*
X034680Y014379D03*
X034930Y014379D03*
X035180Y014379D03*
X035430Y014379D03*
X035680Y014379D03*
X035930Y014379D03*
X036180Y014379D03*
X036430Y014379D03*
X036680Y014379D03*
X036930Y014379D03*
X037180Y014379D03*
X037430Y014379D03*
X037680Y014379D03*
X037930Y014379D03*
X038180Y014379D03*
X038430Y014379D03*
X038680Y014379D03*
X038930Y014379D03*
X039180Y014379D03*
X039430Y014379D03*
X039680Y014379D03*
X039930Y014379D03*
X040180Y014379D03*
X040430Y014379D03*
X040680Y014379D03*
X040930Y014379D03*
X041180Y014379D03*
X041430Y014379D03*
X041680Y014379D03*
X041930Y014379D03*
X042180Y014379D03*
X042430Y014379D03*
X042680Y014379D03*
X042930Y014379D03*
X043180Y014379D03*
X043430Y014379D03*
X043680Y014379D03*
X043930Y014379D03*
X044180Y014379D03*
X044430Y014379D03*
X044680Y014379D03*
X044930Y014379D03*
X045180Y014379D03*
X045430Y014379D03*
X045680Y014379D03*
X045930Y014379D03*
X025930Y014379D03*
X025680Y014379D03*
X025430Y014379D03*
X025180Y014379D03*
X024930Y014379D03*
X024680Y014379D03*
X024430Y014379D03*
X024180Y014379D03*
X023930Y014379D03*
X023680Y014379D03*
X023430Y014379D03*
X023180Y014379D03*
X022930Y014379D03*
X022680Y014379D03*
X022430Y014379D03*
X022180Y014379D03*
X021930Y014379D03*
X021680Y014379D03*
X021430Y014379D03*
X021180Y014379D03*
X020930Y014379D03*
X020680Y014379D03*
X020430Y014379D03*
X020180Y014379D03*
X019930Y014379D03*
X019680Y014379D03*
X019430Y014379D03*
X019180Y014379D03*
X018930Y014379D03*
X018680Y014379D03*
X018430Y014379D03*
X018180Y014379D03*
X017930Y014379D03*
X017680Y014379D03*
X017430Y014379D03*
X017180Y014379D03*
X016930Y014379D03*
X016680Y014379D03*
X016430Y014379D03*
X016180Y014379D03*
X015930Y014379D03*
X015680Y014379D03*
X015430Y014379D03*
X015180Y014379D03*
X014930Y014379D03*
X014680Y014379D03*
X014430Y014379D03*
X014180Y014379D03*
X013930Y014379D03*
X013680Y014379D03*
X013430Y014379D03*
X013180Y014379D03*
X012930Y014379D03*
X012680Y014379D03*
X012430Y014379D03*
X012180Y014379D03*
X011930Y014379D03*
X011680Y014379D03*
X011430Y014379D03*
X011180Y014379D03*
X010930Y014379D03*
X010680Y014379D03*
X010430Y014379D03*
X010180Y014379D03*
X009930Y014379D03*
X009680Y014379D03*
X009430Y014379D03*
X009180Y014379D03*
X008930Y014379D03*
X008680Y014379D03*
X008430Y014379D03*
X008180Y014379D03*
X007930Y014379D03*
X007680Y014379D03*
X007430Y014379D03*
X007180Y014379D03*
X006930Y014379D03*
D16*
X034150Y016469D03*
X034150Y016969D03*
X034150Y017469D03*
X034150Y017969D03*
X034150Y018469D03*
X034150Y018969D03*
X034150Y019469D03*
X034150Y019969D03*
X034150Y020469D03*
X034150Y020969D03*
X034150Y021469D03*
X034150Y021969D03*
X034150Y022469D03*
X034150Y022969D03*
X034150Y023469D03*
X034150Y023969D03*
X034810Y023971D03*
X035310Y023971D03*
X035810Y023971D03*
X036310Y023971D03*
X036810Y023971D03*
X037310Y023971D03*
X037810Y023971D03*
X038310Y023971D03*
X038810Y023971D03*
X039310Y023971D03*
X039810Y023971D03*
X040467Y023971D03*
X040467Y023471D03*
X040467Y022971D03*
X040467Y022471D03*
X040467Y021971D03*
X040467Y021471D03*
X040467Y020971D03*
X040467Y020471D03*
X040467Y019971D03*
X040467Y019471D03*
X040467Y018971D03*
X040467Y018471D03*
X040467Y017971D03*
X040467Y017471D03*
X040467Y016971D03*
X040467Y016471D03*
X039810Y016471D03*
X039310Y016471D03*
X038810Y016471D03*
X038310Y016471D03*
X037810Y016471D03*
X037310Y016471D03*
X036810Y016471D03*
X036310Y016471D03*
X035810Y016471D03*
X035310Y016471D03*
X034810Y016471D03*
X034810Y011373D03*
X035310Y011373D03*
X035810Y011373D03*
X036310Y011373D03*
X036810Y011373D03*
X037310Y011373D03*
X037810Y011373D03*
X038310Y011373D03*
X038810Y011373D03*
X039310Y011373D03*
X039810Y011373D03*
X040467Y011373D03*
X040467Y010873D03*
X040467Y010373D03*
X040467Y009873D03*
X040467Y009373D03*
X040467Y008873D03*
X040467Y008373D03*
X040467Y007873D03*
X040467Y007373D03*
X040467Y006873D03*
X040467Y006373D03*
X040467Y005873D03*
X040467Y005373D03*
X040467Y004873D03*
X040467Y004373D03*
X040467Y003873D03*
X039810Y003873D03*
X039310Y003873D03*
X038810Y003873D03*
X038310Y003873D03*
X037810Y003873D03*
X037310Y003873D03*
X036810Y003873D03*
X036310Y003873D03*
X035810Y003873D03*
X035310Y003873D03*
X034810Y003873D03*
X034150Y003871D03*
X034150Y004371D03*
X034150Y004871D03*
X034150Y005371D03*
X034150Y005871D03*
X034150Y006371D03*
X034150Y006871D03*
X034150Y007371D03*
X034150Y007871D03*
X034150Y008371D03*
X034150Y008871D03*
X034150Y009371D03*
X034150Y009871D03*
X034150Y010371D03*
X034150Y010871D03*
X034150Y011371D03*
X034150Y029068D03*
X034150Y029568D03*
X034150Y030068D03*
X034150Y030568D03*
X034150Y031068D03*
X034150Y031568D03*
X034150Y032068D03*
X034150Y032568D03*
X034150Y033068D03*
X034150Y033568D03*
X034150Y034068D03*
X034150Y034568D03*
X034150Y035068D03*
X034150Y035568D03*
X034150Y036068D03*
X034150Y036568D03*
X034810Y036570D03*
X035310Y036570D03*
X035810Y036570D03*
X036310Y036570D03*
X036810Y036570D03*
X037310Y036570D03*
X037810Y036570D03*
X038310Y036570D03*
X038810Y036570D03*
X039310Y036570D03*
X039810Y036570D03*
X040467Y036570D03*
X040467Y036070D03*
X040467Y035570D03*
X040467Y035070D03*
X040467Y034570D03*
X040467Y034070D03*
X040467Y033570D03*
X040467Y033070D03*
X040467Y032570D03*
X040467Y032070D03*
X040467Y031570D03*
X040467Y031070D03*
X040467Y030570D03*
X040467Y030070D03*
X040467Y029570D03*
X040467Y029070D03*
X039810Y029070D03*
X039310Y029070D03*
X038810Y029070D03*
X038310Y029070D03*
X037810Y029070D03*
X037310Y029070D03*
X036810Y029070D03*
X036310Y029070D03*
X035810Y029070D03*
X035310Y029070D03*
X034810Y029070D03*
D17*
X035538Y032229D03*
X036719Y032229D03*
X037900Y032229D03*
X037900Y033410D03*
X036719Y033410D03*
X035538Y033410D03*
X036719Y034591D03*
X037900Y034591D03*
X037900Y021993D03*
X036719Y021993D03*
X036719Y020812D03*
X037900Y020812D03*
X037900Y019631D03*
X036719Y019631D03*
X035538Y019631D03*
X035538Y020812D03*
X036719Y009394D03*
X036719Y008213D03*
X037900Y008213D03*
X037900Y009394D03*
X035538Y008213D03*
X035538Y007032D03*
X036719Y007032D03*
X037900Y007032D03*
D18*
X035636Y009296D03*
X035636Y021894D03*
X035636Y034493D03*
D19*
X024204Y035045D03*
X024204Y035478D03*
X024204Y035911D03*
X024204Y036344D03*
X024204Y036778D03*
X024204Y037211D03*
X024204Y037644D03*
X024204Y033864D03*
X024204Y033431D03*
X024204Y032998D03*
X024204Y032565D03*
X024204Y032132D03*
X019479Y032132D03*
X019479Y032565D03*
X019479Y032998D03*
X019479Y033431D03*
X019479Y033864D03*
X019479Y035045D03*
X019479Y035478D03*
X019479Y035911D03*
X019479Y036344D03*
X019479Y036778D03*
X019479Y037211D03*
X019479Y037644D03*
X019479Y025045D03*
X019479Y024612D03*
X019479Y024179D03*
X019479Y023746D03*
X019479Y023313D03*
X019479Y022880D03*
X019479Y022447D03*
X019479Y021266D03*
X019479Y020833D03*
X019479Y020400D03*
X019479Y019967D03*
X019479Y019533D03*
X024204Y019533D03*
X024204Y019967D03*
X024204Y020400D03*
X024204Y020833D03*
X024204Y021266D03*
X024204Y022447D03*
X024204Y022880D03*
X024204Y023313D03*
X024204Y023746D03*
X024204Y024179D03*
X024204Y024612D03*
X024204Y025045D03*
X024204Y012447D03*
X024204Y012014D03*
X024204Y011581D03*
X024204Y011148D03*
X024204Y010715D03*
X024204Y010281D03*
X024204Y009848D03*
X024204Y008667D03*
X024204Y008234D03*
X024204Y007801D03*
X024204Y007368D03*
X024204Y006935D03*
X019479Y006935D03*
X019479Y007368D03*
X019479Y007801D03*
X019479Y008234D03*
X019479Y008667D03*
X019479Y009848D03*
X019479Y010281D03*
X019479Y010715D03*
X019479Y011148D03*
X019479Y011581D03*
X019479Y012014D03*
X019479Y012447D03*
D20*
X022722Y017088D03*
X023037Y017088D03*
X023352Y017088D03*
X023667Y017088D03*
X023982Y017088D03*
X024297Y017088D03*
X024297Y017954D03*
X023982Y017954D03*
X023667Y017954D03*
X023352Y017954D03*
X023037Y017954D03*
X022722Y017954D03*
X022722Y029687D03*
X023037Y029687D03*
X023352Y029687D03*
X023667Y029687D03*
X023982Y029687D03*
X024297Y029687D03*
X024297Y030553D03*
X023982Y030553D03*
X023667Y030553D03*
X023352Y030553D03*
X023037Y030553D03*
X022722Y030553D03*
X022722Y005356D03*
X023037Y005356D03*
X023352Y005356D03*
X023667Y005356D03*
X023982Y005356D03*
X024297Y005356D03*
X024297Y004490D03*
X023982Y004490D03*
X023667Y004490D03*
X023352Y004490D03*
X023037Y004490D03*
X022722Y004490D03*
D21*
X022683Y004923D03*
X024336Y004923D03*
X024336Y017521D03*
X022683Y017521D03*
X022683Y030120D03*
X024336Y030120D03*
D22*
X030414Y030159D03*
X030611Y030159D03*
X030808Y030159D03*
X031005Y030159D03*
X031005Y029080D03*
X030808Y029080D03*
X030611Y029080D03*
X030414Y029080D03*
X030414Y017561D03*
X030611Y017561D03*
X030808Y017561D03*
X031005Y017561D03*
X031005Y016482D03*
X030808Y016482D03*
X030611Y016482D03*
X030414Y016482D03*
X030414Y004962D03*
X030611Y004962D03*
X030808Y004962D03*
X031005Y004962D03*
X031005Y003883D03*
X030808Y003883D03*
X030611Y003883D03*
X030414Y003883D03*
D23*
X030170Y004128D03*
X030170Y004324D03*
X030170Y004521D03*
X030170Y004718D03*
X031249Y004718D03*
X031249Y004521D03*
X031249Y004324D03*
X031249Y004128D03*
X031249Y016726D03*
X031249Y016923D03*
X031249Y017120D03*
X031249Y017317D03*
X030170Y017317D03*
X030170Y017120D03*
X030170Y016923D03*
X030170Y016726D03*
X030170Y029324D03*
X030170Y029521D03*
X030170Y029718D03*
X030170Y029915D03*
X031249Y029915D03*
X031249Y029718D03*
X031249Y029521D03*
X031249Y029324D03*
D24*
X028797Y029271D03*
X028797Y029074D03*
X028797Y028878D03*
X028797Y029468D03*
X028797Y029665D03*
X028797Y029862D03*
X027222Y029862D03*
X027222Y029665D03*
X027222Y029468D03*
X027222Y029271D03*
X027222Y029074D03*
X027222Y028878D03*
X027222Y017263D03*
X027222Y017067D03*
X027222Y016870D03*
X027222Y016673D03*
X027222Y016476D03*
X027222Y016279D03*
X028797Y016279D03*
X028797Y016476D03*
X028797Y016673D03*
X028797Y016870D03*
X028797Y017067D03*
X028797Y017263D03*
X028797Y004665D03*
X028797Y004468D03*
X028797Y004271D03*
X028797Y004074D03*
X028797Y003878D03*
X028797Y003681D03*
X027222Y003681D03*
X027222Y003878D03*
X027222Y004074D03*
X027222Y004271D03*
X027222Y004468D03*
X027222Y004665D03*
D25*
X027517Y004960D03*
X027714Y004960D03*
X027911Y004960D03*
X028108Y004960D03*
X028305Y004960D03*
X028502Y004960D03*
X028502Y003385D03*
X028305Y003385D03*
X028108Y003385D03*
X027911Y003385D03*
X027714Y003385D03*
X027517Y003385D03*
X027517Y015984D03*
X027714Y015984D03*
X027911Y015984D03*
X028108Y015984D03*
X028305Y015984D03*
X028502Y015984D03*
X028502Y017559D03*
X028305Y017559D03*
X028108Y017559D03*
X027911Y017559D03*
X027714Y017559D03*
X027517Y017559D03*
X027517Y028582D03*
X027714Y028582D03*
X027911Y028582D03*
X028108Y028582D03*
X028305Y028582D03*
X028502Y028582D03*
X028502Y030157D03*
X028305Y030157D03*
X028108Y030157D03*
X027911Y030157D03*
X027714Y030157D03*
X027517Y030157D03*
D26*
X028010Y029370D03*
X028010Y016771D03*
X028010Y004173D03*
D27*
X026903Y003123D03*
X026116Y003123D03*
X023903Y003423D03*
X023116Y003423D03*
X026116Y005923D03*
X026903Y005923D03*
X030316Y002973D03*
X031103Y002973D03*
X032016Y003423D03*
X032803Y003423D03*
X031103Y015571D03*
X032016Y016021D03*
X032803Y016021D03*
X030316Y015571D03*
X026903Y015721D03*
X026116Y015721D03*
X023903Y016021D03*
X023116Y016021D03*
X026116Y018521D03*
X026903Y018521D03*
X030316Y028170D03*
X031103Y028170D03*
X032016Y028620D03*
X032803Y028620D03*
X026903Y028320D03*
X026116Y028320D03*
X023903Y028620D03*
X023116Y028620D03*
X026116Y031120D03*
X026903Y031120D03*
D28*
X026260Y030263D03*
X026260Y029476D03*
X025010Y029263D03*
X025010Y028476D03*
X025760Y025415D03*
X025760Y024628D03*
X028760Y024878D03*
X029760Y024878D03*
X029760Y025665D03*
X028760Y025665D03*
X032460Y029576D03*
X032460Y030363D03*
X025760Y037226D03*
X025760Y038013D03*
X028760Y038263D03*
X028760Y037476D03*
X029760Y037476D03*
X029760Y038263D03*
X032460Y017765D03*
X032460Y016978D03*
X029760Y013067D03*
X028760Y013067D03*
X028760Y012279D03*
X029760Y012279D03*
X025760Y012029D03*
X025760Y012817D03*
X025010Y015878D03*
X025010Y016665D03*
X026260Y016878D03*
X026260Y017665D03*
X026260Y005067D03*
X026260Y004279D03*
X025010Y004067D03*
X025010Y003279D03*
X032460Y004379D03*
X032460Y005167D03*
D29*
X033710Y013033D02*
X033710Y013593D01*
X034710Y013593D02*
X034710Y013033D01*
X035710Y013033D02*
X035710Y013593D01*
X036710Y013593D02*
X036710Y013033D01*
X037710Y013033D02*
X037710Y013593D01*
X038710Y013593D02*
X038710Y013033D01*
X039710Y013033D02*
X039710Y013593D01*
X040710Y013593D02*
X040710Y013033D01*
X041710Y013033D02*
X041710Y013593D01*
X042710Y013593D02*
X042710Y013033D01*
X042710Y025631D02*
X042710Y026191D01*
X041710Y026191D02*
X041710Y025631D01*
X040710Y025631D02*
X040710Y026191D01*
X039710Y026191D02*
X039710Y025631D01*
X038710Y025631D02*
X038710Y026191D01*
X037710Y026191D02*
X037710Y025631D01*
X036710Y025631D02*
X036710Y026191D01*
X035710Y026191D02*
X035710Y025631D01*
X034710Y025631D02*
X034710Y026191D01*
X033710Y026191D02*
X033710Y025631D01*
X033710Y038230D02*
X033710Y038790D01*
X034710Y038790D02*
X034710Y038230D01*
X035710Y038230D02*
X035710Y038790D01*
X036710Y038790D02*
X036710Y038230D01*
X037710Y038230D02*
X037710Y038790D01*
X038710Y038790D02*
X038710Y038230D01*
X039710Y038230D02*
X039710Y038790D01*
X040710Y038790D02*
X040710Y038230D01*
X041710Y038230D02*
X041710Y038790D01*
X042710Y038790D02*
X042710Y038230D01*
D30*
X028673Y034370D03*
X027846Y034370D03*
X027846Y033120D03*
X028673Y033120D03*
X028673Y031870D03*
X027846Y031870D03*
X027846Y021771D03*
X028673Y021771D03*
X028673Y020521D03*
X027846Y020521D03*
X027846Y019271D03*
X028673Y019271D03*
X028673Y009173D03*
X027846Y009173D03*
X027846Y007923D03*
X028673Y007923D03*
X028673Y006673D03*
X027846Y006673D03*
D31*
X029425Y006923D03*
X030094Y006923D03*
X030094Y007923D03*
X029425Y007923D03*
X029425Y008923D03*
X030094Y008923D03*
X030094Y019521D03*
X029425Y019521D03*
X029425Y020521D03*
X030094Y020521D03*
X030094Y021521D03*
X029425Y021521D03*
X029425Y032120D03*
X030094Y032120D03*
X030094Y033120D03*
X029425Y033120D03*
X029425Y034120D03*
X030094Y034120D03*
D32*
X031260Y037090D03*
X031760Y037090D03*
X032260Y037090D03*
X032260Y038350D03*
X031760Y038350D03*
X031260Y038350D03*
X031260Y025751D03*
X031760Y025751D03*
X032260Y025751D03*
X032260Y024491D03*
X031760Y024491D03*
X031260Y024491D03*
X031260Y013153D03*
X031760Y013153D03*
X032260Y013153D03*
X032260Y011893D03*
X031760Y011893D03*
X031260Y011893D03*
D33*
X033110Y011588D03*
X033110Y012257D03*
X026510Y008507D03*
X026510Y007838D03*
X026510Y020437D03*
X026510Y021106D03*
X033110Y024187D03*
X033110Y024856D03*
X026510Y033035D03*
X026510Y033704D03*
X033110Y036785D03*
X033110Y037454D03*
D34*
X042510Y036120D03*
X042510Y023521D03*
X042510Y010923D03*
D35*
X020830Y016021D02*
X020190Y016021D01*
X020190Y017021D02*
X020830Y017021D01*
X020830Y028620D02*
X020190Y028620D01*
X020190Y029620D02*
X020830Y029620D01*
X020830Y004423D02*
X020190Y004423D01*
X020190Y003423D02*
X020830Y003423D01*
D36*
X026120Y010023D03*
X026880Y010023D03*
X026500Y010823D03*
X026880Y022621D03*
X026500Y023421D03*
X026120Y022621D03*
X026120Y035220D03*
X026880Y035220D03*
X026500Y036020D03*
D37*
X033710Y035570D03*
X033710Y035070D03*
X033710Y034070D03*
X033710Y033570D03*
X033710Y033070D03*
X033710Y032620D03*
X033710Y032020D03*
X033710Y031570D03*
X033710Y031070D03*
X035310Y028570D03*
X035810Y028570D03*
X036799Y028570D03*
X037271Y028570D03*
X037810Y028570D03*
X038310Y028570D03*
X041000Y032070D03*
X041010Y032570D03*
X041010Y033570D03*
X041010Y035070D03*
X041010Y036070D03*
X039810Y037120D03*
X037810Y037120D03*
X037310Y037120D03*
X036810Y037120D03*
X036310Y037120D03*
X035810Y037120D03*
X035310Y037120D03*
X034810Y037120D03*
X034360Y037120D03*
X034360Y024521D03*
X034810Y024521D03*
X035310Y024521D03*
X035810Y024521D03*
X036310Y024521D03*
X036810Y024521D03*
X037310Y024521D03*
X037810Y024521D03*
X039810Y024521D03*
X041010Y023471D03*
X041010Y022471D03*
X041010Y020971D03*
X041010Y019971D03*
X041000Y019471D03*
X038310Y015971D03*
X037810Y015971D03*
X037271Y015971D03*
X036799Y015971D03*
X035810Y015971D03*
X035310Y015971D03*
X033710Y018471D03*
X033710Y018971D03*
X033710Y019421D03*
X033710Y020021D03*
X033710Y020471D03*
X033710Y020971D03*
X033710Y021471D03*
X033710Y022471D03*
X033710Y022971D03*
X034360Y011923D03*
X034810Y011923D03*
X035310Y011923D03*
X035810Y011923D03*
X036310Y011923D03*
X036810Y011923D03*
X037310Y011923D03*
X037810Y011923D03*
X039810Y011923D03*
X041010Y010873D03*
X041010Y009873D03*
X041010Y008373D03*
X041010Y007373D03*
X041000Y006873D03*
X038310Y003373D03*
X037810Y003373D03*
X037271Y003373D03*
X036799Y003373D03*
X035810Y003373D03*
X035310Y003373D03*
X033710Y005873D03*
X033710Y006373D03*
X033710Y006823D03*
X033710Y007423D03*
X033710Y007873D03*
X033710Y008373D03*
X033710Y008873D03*
X033710Y009873D03*
X033710Y010373D03*
M02*
