%
M48
M72
T01C0.0100
T02C0.0150
T03C0.0170
T04C0.0320
T05C0.0374
T06C0.0400
T07C0.0520
%
T01
X43560Y8103
X43560Y20701
X43560Y33300
T02
X7217Y3182
X7717Y3682
X7217Y4182
X7717Y4682
X7217Y5182
X7717Y5682
X7217Y6182
X7717Y6682
X7217Y7182
X7717Y7682
X7217Y8182
X7717Y8682
X7217Y9182
X7717Y9682
X7217Y10182
X7717Y10682
X7217Y11182
X7717Y11682
X7217Y12182
X7717Y12682
X7217Y13182
X7717Y13682
X7680Y14379
X7930Y14379
X8180Y14379
X8430Y14379
X8680Y14379
X8930Y14379
X9180Y14379
X9430Y14379
X9680Y14379
X9930Y14379
X10180Y14379
X10430Y14379
X10680Y14379
X10930Y14379
X11180Y14379
X11430Y14379
X11680Y14379
X11930Y14379
X12180Y14379
X12430Y14379
X12680Y14379
X12930Y14379
X13180Y14379
X13430Y14379
X13680Y14379
X13930Y14379
X14180Y14379
X14430Y14379
X14680Y14379
X14930Y14379
X15180Y14379
X15430Y14379
X15680Y14379
X15930Y14379
X16180Y14379
X16430Y14379
X16680Y14379
X16930Y14379
X17180Y14379
X17430Y14379
X17680Y14379
X17930Y14379
X18180Y14379
X18430Y14379
X18680Y14379
X18930Y14379
X19180Y14379
X19430Y14379
X19680Y14379
X19930Y14379
X20180Y14379
X20430Y14379
X20680Y14379
X20930Y14379
X21180Y14379
X21430Y14379
X21680Y14379
X21930Y14379
X22180Y14379
X22430Y14379
X22680Y14379
X22930Y14379
X23180Y14379
X23430Y14379
X23680Y14379
X23930Y14379
X24180Y14379
X24430Y14379
X24680Y14379
X24930Y14379
X25180Y14379
X25430Y14379
X25680Y14379
X25930Y14379
X26180Y14379
X26430Y14379
X26680Y14379
X26930Y14379
X27180Y14379
X27430Y14379
X27680Y14379
X27930Y14379
X28180Y14379
X28430Y14379
X28680Y14379
X28930Y14379
X29180Y14379
X29430Y14379
X29680Y14379
X29930Y14379
X30180Y14379
X30430Y14379
X30680Y14379
X30930Y14379
X31180Y14379
X31430Y14379
X31680Y14379
X31930Y14379
X32180Y14379
X32430Y14379
X32680Y14379
X32930Y14379
X33180Y14379
X33430Y14379
X33680Y14379
X33930Y14379
X34180Y14379
X34430Y14379
X34680Y14379
X34930Y14379
X35180Y14379
X35430Y14379
X35680Y14379
X35930Y14379
X36180Y14379
X36430Y14379
X36680Y14379
X36930Y14379
X37180Y14379
X37430Y14379
X37680Y14379
X37930Y14379
X38180Y14379
X38430Y14379
X38680Y14379
X38930Y14379
X39180Y14379
X39430Y14379
X39680Y14379
X39930Y14379
X40180Y14379
X40430Y14379
X40680Y14379
X40930Y14379
X41180Y14379
X41430Y14379
X41680Y14379
X41930Y14379
X42180Y14379
X42430Y14379
X42680Y14379
X42930Y14379
X43180Y14379
X43430Y14379
X43680Y14379
X43930Y14379
X44180Y14379
X44430Y14379
X44680Y14379
X44930Y14379
X45180Y14379
X45430Y14379
X45680Y14379
X45930Y14379
X43040Y16761
X43040Y17061
X43040Y17361
X42740Y17561
X42440Y17561
X42140Y17561
X41840Y17561
X41540Y17561
X41240Y17561
X40940Y17561
X40940Y18381
X41240Y18381
X41540Y18381
X41840Y18381
X42140Y18381
X42440Y18381
X42740Y18381
X43040Y18581
X43040Y18881
X43040Y19181
X43040Y19481
X43040Y19781
X43040Y20081
X43040Y20381
X43040Y20681
X43040Y20981
X43040Y21281
X43040Y21581
X43040Y21881
X43040Y22181
X43040Y22481
X43040Y22771
X38010Y25121
X37260Y25271
X37180Y26978
X37430Y26978
X37680Y26978
X37930Y26978
X38180Y26978
X38430Y26978
X38680Y26978
X38930Y26978
X39180Y26978
X39430Y26978
X39680Y26978
X39930Y26978
X40180Y26978
X40430Y26978
X40680Y26978
X40930Y26978
X41180Y26978
X41430Y26978
X41680Y26978
X41930Y26978
X42180Y26978
X42430Y26978
X42680Y26978
X42930Y26978
X43180Y26978
X43430Y26978
X43680Y26978
X43930Y26978
X44180Y26978
X44430Y26978
X44680Y26978
X44930Y26978
X45180Y26978
X45430Y26978
X45680Y26978
X45930Y26978
X43040Y29360
X43040Y29660
X43040Y29960
X42740Y30160
X42440Y30160
X42140Y30160
X41840Y30160
X41540Y30160
X41240Y30160
X40940Y30160
X40940Y30980
X41240Y30980
X41540Y30980
X41840Y30980
X42140Y30980
X42440Y30980
X42740Y30980
X43040Y31180
X43040Y31480
X43040Y31780
X43040Y32080
X43040Y32380
X43040Y32680
X43040Y32980
X43040Y33280
X43040Y33580
X43040Y33880
X43040Y34180
X43040Y34480
X43040Y34780
X43040Y35080
X43040Y35370
X38010Y37720
X37260Y37870
X37180Y39576
X37430Y39576
X37680Y39576
X37930Y39576
X38180Y39576
X38430Y39576
X38680Y39576
X38930Y39576
X39180Y39576
X39430Y39576
X39680Y39576
X39930Y39576
X40180Y39576
X40430Y39576
X40680Y39576
X40930Y39576
X41180Y39576
X41430Y39576
X41680Y39576
X41930Y39576
X42180Y39576
X42430Y39576
X42680Y39576
X42930Y39576
X43180Y39576
X43430Y39576
X43680Y39576
X43930Y39576
X44180Y39576
X44430Y39576
X44680Y39576
X44930Y39576
X45180Y39576
X45430Y39576
X45680Y39576
X45930Y39576
X36930Y39576
X36680Y39576
X36430Y39576
X36180Y39576
X35930Y39576
X35680Y39576
X35430Y39576
X35180Y39576
X34930Y39576
X34680Y39576
X34430Y39576
X34180Y39576
X33930Y39576
X33680Y39576
X33430Y39576
X33180Y39576
X32930Y39576
X32680Y39576
X32430Y39576
X32180Y39576
X31930Y39576
X31680Y39576
X31430Y39576
X31180Y39576
X30930Y39576
X30680Y39576
X30430Y39576
X30180Y39576
X29930Y39576
X29680Y39576
X29430Y39576
X29180Y39576
X28930Y39576
X28680Y39576
X28430Y39576
X28180Y39576
X27930Y39576
X27680Y39576
X27430Y39576
X27180Y39576
X26930Y39576
X26680Y39576
X26430Y39576
X26180Y39576
X25930Y39576
X25680Y39576
X25430Y39576
X25180Y39576
X24930Y39576
X24680Y39576
X24430Y39576
X24180Y39576
X23930Y39576
X23680Y39576
X23430Y39576
X23180Y39576
X22930Y39576
X22680Y39576
X22430Y39576
X22180Y39576
X21930Y39576
X21680Y39576
X21430Y39576
X21180Y39576
X20930Y39576
X20680Y39576
X20430Y39576
X20180Y39576
X19930Y39576
X19680Y39576
X19430Y39576
X19180Y39576
X18930Y39576
X18680Y39576
X18430Y39576
X18180Y39576
X17930Y39576
X17680Y39576
X17430Y39576
X17180Y39576
X16930Y39576
X16680Y39576
X16430Y39576
X16180Y39576
X15930Y39576
X15680Y39576
X15430Y39576
X15180Y39576
X14930Y39576
X14680Y39576
X14430Y39576
X14180Y39576
X13930Y39576
X13680Y39576
X13430Y39576
X13180Y39576
X12930Y39576
X12680Y39576
X12430Y39576
X12180Y39576
X11930Y39576
X11680Y39576
X11430Y39576
X11180Y39576
X10930Y39576
X10680Y39576
X10430Y39576
X10180Y39576
X9930Y39576
X9680Y39576
X9430Y39576
X9180Y39576
X8930Y39576
X8680Y39576
X8430Y39576
X8180Y39576
X7930Y39576
X7680Y39576
X7430Y39576
X7180Y39576
X6930Y39576
X7717Y38879
X7217Y38379
X7717Y37879
X7217Y37379
X7717Y36879
X7217Y36379
X7717Y35879
X7217Y35379
X7717Y34879
X7217Y34379
X7717Y33879
X7217Y33379
X7717Y32879
X7217Y32379
X7717Y31879
X7217Y31379
X7717Y30879
X7217Y30379
X7717Y29879
X7217Y29379
X7717Y28879
X7217Y28379
X7717Y27879
X8717Y27879
X8680Y26978
X8930Y26978
X9180Y26978
X9430Y26978
X9680Y26978
X9930Y26978
X10180Y26978
X10430Y26978
X10680Y26978
X10930Y26978
X11180Y26978
X11430Y26978
X11680Y26978
X11930Y26978
X12180Y26978
X12430Y26978
X12680Y26978
X12930Y26978
X13180Y26978
X13430Y26978
X13680Y26978
X13930Y26978
X14180Y26978
X14430Y26978
X14680Y26978
X14930Y26978
X15180Y26978
X15430Y26978
X15680Y26978
X15930Y26978
X16180Y26978
X16430Y26978
X16680Y26978
X16930Y26978
X17180Y26978
X17430Y26978
X17680Y26978
X17930Y26978
X18180Y26978
X18430Y26978
X18680Y26978
X18930Y26978
X19180Y26978
X19430Y26978
X19680Y26978
X19930Y26978
X20180Y26978
X20430Y26978
X20680Y26978
X20930Y26978
X21180Y26978
X21430Y26978
X21680Y26978
X21930Y26978
X22180Y26978
X22430Y26978
X22680Y26978
X22930Y26978
X23180Y26978
X23430Y26978
X23680Y26978
X23930Y26978
X24180Y26978
X24430Y26978
X24680Y26978
X24930Y26978
X25180Y26978
X25430Y26978
X25680Y26978
X25930Y26978
X26180Y26978
X26430Y26978
X26680Y26978
X26930Y26978
X27180Y26978
X27430Y26978
X27680Y26978
X27930Y26978
X28180Y26978
X28430Y26978
X28680Y26978
X28930Y26978
X29180Y26978
X29430Y26978
X29680Y26978
X29930Y26978
X30180Y26978
X30430Y26978
X30680Y26978
X30930Y26978
X31180Y26978
X31430Y26978
X31680Y26978
X31930Y26978
X32180Y26978
X32430Y26978
X32680Y26978
X32930Y26978
X33180Y26978
X33430Y26978
X33680Y26978
X33930Y26978
X34180Y26978
X34430Y26978
X34680Y26978
X34930Y26978
X35180Y26978
X35430Y26978
X35680Y26978
X35930Y26978
X36180Y26978
X36430Y26978
X36680Y26978
X36930Y26978
X32760Y25271
X31210Y23821
X30260Y22971
X29610Y22921
X28760Y23871
X27510Y22771
X25760Y21771
X25260Y23293
X25260Y23771
X24510Y25771
X24010Y25771
X23510Y25771
X23010Y25771
X22510Y25771
X22260Y25521
X22510Y25271
X22260Y25021
X22510Y24771
X22010Y24771
X21760Y25021
X22010Y25271
X21760Y25521
X22010Y25771
X21510Y25771
X21260Y25521
X21510Y25271
X21260Y25021
X21510Y24771
X21010Y24771
X21010Y25271
X21010Y25771
X18860Y24171
X18217Y23780
X17717Y23280
X18217Y22780
X17717Y22280
X18217Y21780
X17717Y21280
X17717Y20396
X17217Y20396
X16717Y20396
X16217Y20396
X15717Y20396
X15217Y20396
X14717Y20396
X14217Y20396
X13717Y20396
X13217Y20646
X12467Y20780
X12717Y21280
X11717Y21280
X11717Y20530
X10717Y20280
X9717Y20280
X8717Y20280
X7717Y20280
X7217Y19780
X7717Y19280
X7217Y18780
X7717Y18280
X7217Y17780
X7717Y17280
X8717Y17280
X8717Y18280
X8717Y19280
X9717Y19280
X9717Y18280
X9717Y17280
X10717Y17280
X10717Y18280
X10717Y19280
X11717Y19280
X12467Y19030
X12717Y18280
X11717Y18280
X11717Y17280
X12717Y17280
X13717Y17280
X13717Y18280
X14217Y18780
X14717Y18280
X15217Y18780
X15717Y18280
X16217Y18780
X16717Y18280
X17217Y18780
X17717Y18280
X18217Y17780
X17717Y17280
X18217Y16780
X17717Y16280
X18217Y15780
X17717Y15280
X16717Y15280
X15717Y15280
X14717Y15280
X13717Y15280
X12717Y15280
X11717Y15280
X10717Y15280
X9717Y15280
X8717Y15280
X7717Y15280
X7217Y15780
X7717Y16280
X7217Y16780
X8717Y16280
X9717Y16280
X10717Y16280
X11717Y16280
X12717Y16280
X13717Y16280
X14717Y16280
X15717Y16280
X16717Y16280
X16717Y17280
X15717Y17280
X14717Y17280
X14717Y19530
X14217Y19530
X13717Y19530
X13217Y19280
X15217Y19530
X15717Y19530
X16217Y19530
X16717Y19530
X17217Y19530
X17717Y19530
X18217Y19530
X18217Y18780
X18217Y20396
X16717Y21280
X15717Y21280
X14717Y21280
X13717Y21280
X13717Y22280
X12717Y22280
X11717Y22280
X10717Y22280
X9717Y22280
X8717Y22280
X7717Y22280
X7217Y21780
X7717Y21280
X7217Y20780
X8717Y21280
X9717Y21280
X10717Y21280
X10717Y23280
X9717Y23280
X8717Y23280
X7717Y23280
X7217Y22780
X7217Y23780
X7717Y24280
X7217Y24780
X7717Y25280
X7217Y25780
X7717Y26280
X8717Y26280
X8430Y26978
X8180Y26978
X7930Y26978
X7680Y26978
X7430Y26978
X7180Y26978
X6930Y26978
X8717Y25280
X8717Y24280
X9717Y24280
X9717Y25280
X9717Y26280
X10717Y26280
X10717Y25280
X10717Y24280
X11717Y24280
X12717Y24280
X12717Y23280
X11717Y23280
X13717Y23280
X13717Y24280
X13717Y25280
X12717Y25280
X11717Y25280
X11717Y26280
X12717Y26280
X13717Y26280
X14717Y26280
X15717Y26280
X15717Y25280
X14717Y25280
X14717Y24280
X15717Y24280
X15717Y23280
X14717Y23280
X14717Y22280
X15717Y22280
X16717Y22280
X16717Y23280
X16717Y24280
X16717Y25280
X16717Y26280
X17717Y26280
X18217Y25780
X17717Y25280
X18217Y24780
X17717Y24280
X21260Y22121
X21760Y22121
X22260Y22121
X21760Y20971
X21760Y19771
X22260Y19771
X22260Y18771
X22710Y18771
X21260Y19771
X25010Y18271
X25010Y17621
X27010Y17571
X28510Y18071
X29210Y15871
X28760Y15521
X30060Y16171
X30710Y17021
X31660Y16971
X31660Y17371
X31410Y17821
X30760Y19521
X30760Y20521
X30760Y21521
X33060Y19621
X26510Y19771
X22310Y16421
X22510Y13173
X22260Y12923
X22510Y12673
X22260Y12423
X22510Y12173
X22010Y12173
X21760Y12423
X22010Y12673
X21760Y12923
X22010Y13173
X21510Y13173
X21260Y12923
X21510Y12673
X21260Y12423
X21510Y12173
X21010Y12173
X21010Y12673
X21010Y13173
X23010Y13173
X23510Y13173
X24010Y13173
X24510Y13173
X25260Y11173
X25260Y10694
X25760Y9173
X27510Y10173
X28760Y11273
X29610Y10323
X30260Y10373
X31210Y11223
X32760Y12673
X37260Y12673
X38010Y12523
X43040Y10173
X43040Y9883
X43040Y9583
X43040Y9283
X43040Y8983
X43040Y8683
X43040Y8383
X43040Y8083
X43040Y7783
X43040Y7483
X43040Y7183
X43040Y6883
X43040Y6583
X43040Y6283
X43040Y5983
X42740Y5783
X42440Y5783
X42140Y5783
X41840Y5783
X41540Y5783
X41240Y5783
X40940Y5783
X40940Y4963
X41240Y4963
X41540Y4963
X41840Y4963
X42140Y4963
X42440Y4963
X42740Y4963
X43040Y4763
X43040Y4463
X43040Y4163
X33060Y7023
X30760Y6923
X30760Y7923
X30760Y8923
X28510Y5473
X27010Y4973
X25010Y5023
X25010Y5673
X26510Y7173
X22710Y6173
X22260Y6173
X22260Y7173
X21760Y7173
X21260Y7173
X21760Y8373
X21760Y9523
X22260Y9523
X21260Y9523
X18217Y9182
X17717Y9682
X18217Y10182
X17717Y10682
X18217Y11182
X17717Y11682
X18217Y12182
X17717Y12682
X18217Y13182
X17717Y13682
X16717Y13682
X15717Y13682
X14717Y13682
X13717Y13682
X12717Y13682
X11717Y13682
X10717Y13682
X9717Y13682
X8717Y13682
X8717Y12682
X8717Y11682
X8717Y10682
X8717Y9682
X8717Y8682
X8717Y7682
X9717Y7682
X9717Y8682
X9717Y9682
X9717Y10682
X9717Y11682
X9717Y12682
X10717Y12682
X10717Y11682
X10717Y10682
X10717Y9682
X10717Y8682
X10717Y7682
X11717Y7932
X12467Y8182
X12717Y8682
X11717Y8682
X11717Y9682
X12717Y9682
X12717Y10682
X11717Y10682
X11717Y11682
X12717Y11682
X12717Y12682
X11717Y12682
X13717Y12682
X13717Y11682
X13717Y10682
X13717Y9682
X13717Y8682
X13217Y8048
X13717Y7798
X14217Y7798
X14717Y7798
X15217Y7798
X15717Y7798
X16217Y7798
X16717Y7798
X17217Y7798
X17717Y7798
X18217Y7798
X18217Y6932
X17717Y6932
X17217Y6932
X16717Y6932
X16217Y6932
X15717Y6932
X15217Y6932
X14717Y6932
X14217Y6932
X13717Y6932
X13217Y6682
X12467Y6432
X11717Y6682
X10717Y6682
X9717Y6682
X8717Y6682
X8717Y5682
X8717Y4682
X8717Y3682
X8717Y2682
X7717Y2682
X9717Y2682
X9717Y3682
X9717Y4682
X9717Y5682
X10717Y5682
X10717Y4682
X10717Y3682
X10717Y2682
X11717Y2682
X12717Y2682
X12717Y3682
X11717Y3682
X11717Y4682
X12717Y4682
X12717Y5682
X11717Y5682
X13717Y5682
X14217Y6182
X14717Y5682
X15217Y6182
X15717Y5682
X16217Y6182
X16717Y5682
X17217Y6182
X17717Y5682
X18217Y6182
X18217Y5182
X17717Y4682
X18217Y4182
X17717Y3682
X18217Y3182
X17717Y2682
X16717Y2682
X15717Y2682
X14717Y2682
X13717Y2682
X13717Y3682
X13717Y4682
X14717Y4682
X15717Y4682
X15717Y3682
X14717Y3682
X16717Y3682
X16717Y4682
X16717Y8682
X15717Y8682
X14717Y8682
X14717Y9682
X15717Y9682
X15717Y10682
X14717Y10682
X14717Y11682
X15717Y11682
X15717Y12682
X14717Y12682
X16717Y12682
X16717Y11682
X16717Y10682
X16717Y9682
X17717Y8682
X18860Y11573
X22310Y3823
X28760Y2923
X29210Y3273
X30060Y3573
X30710Y4423
X31410Y5223
X31660Y4773
X31660Y4373
X7430Y14379
X7180Y14379
X6930Y14379
X9717Y27879
X9717Y28879
X9717Y29879
X9717Y30879
X9717Y31879
X9717Y32879
X9717Y33879
X9717Y34879
X9717Y35879
X9717Y36879
X9717Y37879
X8717Y37879
X8717Y36879
X8717Y35879
X8717Y34879
X8717Y33879
X8717Y32879
X8717Y31879
X8717Y30879
X8717Y29879
X8717Y28879
X10717Y28879
X10717Y29879
X10717Y30879
X10717Y31879
X10717Y32879
X10717Y33879
X10717Y34879
X10717Y35879
X10717Y36879
X10717Y37879
X11717Y37879
X12717Y37879
X13717Y37879
X14717Y37879
X15717Y37879
X16717Y37879
X17717Y37879
X18217Y37379
X17717Y36879
X18217Y36379
X17717Y35879
X18217Y35379
X17717Y34879
X18217Y34379
X17717Y33879
X17717Y32995
X17217Y32995
X16717Y32995
X16217Y32995
X15717Y32995
X15217Y32995
X14717Y32995
X14217Y32995
X13717Y32995
X13217Y33245
X12467Y33379
X12717Y33879
X11717Y33879
X11717Y33129
X11717Y31879
X12467Y31629
X13217Y31879
X13717Y32129
X14217Y32129
X14717Y32129
X15217Y32129
X15717Y32129
X16217Y32129
X16717Y32129
X17217Y32129
X17717Y32129
X18217Y32129
X18217Y31379
X17717Y30879
X17217Y31379
X16717Y30879
X16217Y31379
X15717Y30879
X15217Y31379
X14717Y30879
X14217Y31379
X13717Y30879
X12717Y30879
X11717Y30879
X11717Y29879
X12717Y29879
X13717Y29879
X14717Y29879
X15717Y29879
X16717Y29879
X17717Y29879
X18217Y30379
X18217Y29379
X17717Y28879
X18217Y28379
X17717Y27879
X16717Y27879
X16717Y28879
X15717Y28879
X14717Y28879
X13717Y28879
X12717Y28879
X11717Y28879
X11717Y27879
X12717Y27879
X13717Y27879
X14717Y27879
X15717Y27879
X10717Y27879
X13717Y33879
X13717Y34879
X13717Y35879
X13717Y36879
X12717Y36879
X11717Y36879
X11717Y35879
X12717Y35879
X12717Y34879
X11717Y34879
X14717Y34879
X15717Y34879
X15717Y35879
X14717Y35879
X14717Y36879
X15717Y36879
X16717Y36879
X16717Y35879
X16717Y34879
X16717Y33879
X15717Y33879
X14717Y33879
X18217Y32995
X21260Y32370
X21760Y32370
X22260Y32370
X22260Y31370
X22710Y31370
X25010Y30870
X25010Y30220
X27010Y30170
X28510Y30670
X29210Y28470
X28760Y28120
X30060Y28770
X30710Y29620
X31660Y29570
X31660Y29970
X31410Y30420
X30760Y32120
X30760Y33120
X30760Y34120
X30260Y35570
X29610Y35520
X28760Y36470
X27510Y35370
X25760Y34370
X25260Y35891
X25260Y36370
X24510Y38370
X24010Y38370
X23510Y38370
X23010Y38370
X22510Y38370
X22260Y38120
X22510Y37870
X22260Y37620
X22510Y37370
X22010Y37370
X21760Y37620
X22010Y37870
X21760Y38120
X22010Y38370
X21510Y38370
X21260Y38120
X21510Y37870
X21260Y37620
X21510Y37370
X21010Y37370
X21010Y37870
X21010Y38370
X18860Y36770
X18217Y38379
X17717Y38879
X16717Y38879
X15717Y38879
X14717Y38879
X13717Y38879
X12717Y38879
X11717Y38879
X10717Y38879
X9717Y38879
X8717Y38879
X21260Y34720
X21760Y34720
X22260Y34720
X21760Y33570
X26510Y32370
X22310Y29020
X31210Y36420
X32760Y37870
X33060Y32220
X26838Y40165
X26002Y40165
T03
X33710Y35570
X33710Y35070
X33710Y34070
X33710Y33570
X33710Y33070
X33710Y32620
X33710Y32020
X33710Y31570
X33710Y31070
X35310Y28570
X35810Y28570
X36799Y28570
X37271Y28570
X37810Y28570
X38310Y28570
X41000Y32070
X41010Y32570
X41010Y33570
X41010Y35070
X41010Y36070
X39810Y37120
X37810Y37120
X37310Y37120
X36810Y37120
X36310Y37120
X35810Y37120
X35310Y37120
X34810Y37120
X34360Y37120
X34360Y24521
X34810Y24521
X35310Y24521
X35810Y24521
X36310Y24521
X36810Y24521
X37310Y24521
X37810Y24521
X39810Y24521
X41010Y23471
X41010Y22471
X41010Y20971
X41010Y19971
X41000Y19471
X38310Y15971
X37810Y15971
X37271Y15971
X36799Y15971
X35810Y15971
X35310Y15971
X33710Y18471
X33710Y18971
X33710Y19421
X33710Y20021
X33710Y20471
X33710Y20971
X33710Y21471
X33710Y22471
X33710Y22971
X34360Y11923
X34810Y11923
X35310Y11923
X35810Y11923
X36310Y11923
X36810Y11923
X37310Y11923
X37810Y11923
X39810Y11923
X41010Y10873
X41010Y9873
X41010Y8373
X41010Y7373
X41000Y6873
X38310Y3373
X37810Y3373
X37271Y3373
X36799Y3373
X35810Y3373
X35310Y3373
X33710Y5873
X33710Y6373
X33710Y6823
X33710Y7423
X33710Y7873
X33710Y8373
X33710Y8873
X33710Y9873
X33710Y10373
T04
X33710Y13313
X34710Y13313
X35710Y13313
X36710Y13313
X37710Y13313
X38710Y13313
X39710Y13313
X40710Y13313
X41710Y13313
X42710Y13313
X42710Y25911
X41710Y25911
X40710Y25911
X39710Y25911
X38710Y25911
X37710Y25911
X36710Y25911
X35710Y25911
X34710Y25911
X33710Y25911
X33710Y38510
X34710Y38510
X35710Y38510
X36710Y38510
X37710Y38510
X38710Y38510
X39710Y38510
X40710Y38510
X41710Y38510
X42710Y38510
T05
X12665Y32567
X12665Y19968
X12665Y7370
T06
X20510Y4423
X20510Y3423
X20510Y16021
X20510Y17021
X20510Y28620
X20510Y29620
T07
X42510Y23521
X42510Y36120
X42510Y10923
M30
