solid Laser_Sight_Bottom
facet normal -0.762895600574062 -9.47582340337521e-014 0.646521695401431
outer loop
vertex 2.23519999999971 -12.2386644464013 7.53999999999925
vertex 4.73754369068047e-013 40.7277870779721 4.90246400000332
vertex -1.42909769758101e-013 -12.2386644464027 4.90246399999815
endloop
endfacet
facet normal -0.762895600574062 -9.47582340337521e-014 0.646521695401431
outer loop
vertex 4.73754369068047e-013 40.7277870779721 4.90246400000332
vertex 2.23519999999971 -12.2386644464013 7.53999999999925
vertex 2.23520000000032 40.7277870779735 7.54000000000443
endloop
endfacet
facet normal 0.976499533223357 -4.66468742026442e-014 0.215519515623449
outer loop
vertex 24.9229999999982 -12.238664446402 7.53999999999798
vertex 24.1416999999984 40.7277870779723 11.0800000000073
vertex 24.1416999999983 -12.2386644464021 11.0799999999986
endloop
endfacet
facet normal 0.976499533223357 -4.66468742026442e-014 0.215519515623449
outer loop
vertex 24.1416999999984 40.7277870779723 11.0800000000073
vertex 24.9229999999982 -12.238664446402 7.53999999999798
vertex 24.9229999999987 40.7277870779728 7.54000000000315
endloop
endfacet
facet normal 0.976499533223357 -4.66468742026442e-014 0.215519515623449
outer loop
vertex 24.1416999999984 40.7277870779723 11.0800000000073
vertex 24.9229999999987 40.7277870779728 7.54000000000315
vertex 24.4021333333321 40.7277870779725 9.90000000000379
endloop
endfacet
facet normal -3.38659750733716e-015 2.77823567855034e-013 -1.0
outer loop
vertex 13.5790999999992 40.7277870779729 11.0800000000073
vertex 24.1416999999983 -12.2386644464021 11.0799999999986
vertex 13.5790999999989 -12.2386644464018 11.0799999999986
endloop
endfacet
facet normal -3.38659750733716e-015 2.77823567855034e-013 -1.0
outer loop
vertex 24.1416999999983 -12.2386644464021 11.0799999999986
vertex 13.5790999999992 40.7277870779729 11.0800000000073
vertex 24.1416999999984 40.7277870779723 11.0800000000073
endloop
endfacet
facet normal 6.57942836014573e-013 -1.59321268776074e-013 1.0
outer loop
vertex 5.80670000000063 -12.238664446402 1.5455999999985
vertex 5.23520000000032 40.7277870779728 1.54560000000399
vertex 5.23519999999971 -12.238664446402 1.54559999999888
endloop
endfacet
facet normal 6.57942836014573e-013 -1.59321268776074e-013 1.0
outer loop
vertex 5.23520000000032 40.7277870779728 1.54560000000399
vertex 5.80670000000063 -12.238664446402 1.5455999999985
vertex 5.80670000000124 40.7277870779728 1.54560000000362
endloop
endfacet
facet normal 1.0 -1.08093725572053e-014 -2.14407768611987e-027
outer loop
vertex 5.80670000000063 -12.2386644464016 0.00559999999850355
vertex 5.80670000000124 40.7277870779728 1.54560000000362
vertex 5.80670000000063 -12.238664446402 1.5455999999985
endloop
endfacet
facet normal 1.0 -1.08093725572053e-014 -2.14407768611987e-027
outer loop
vertex 5.80670000000124 40.7277870779728 1.54560000000362
vertex 5.80670000000063 -12.2386644464016 0.00559999999850355
vertex 5.80670000000124 40.7277870779732 0.00560000000363975
endloop
endfacet
facet normal 0.0 1.59321268776067e-013 -1.0
outer loop
vertex 2.80670000000124 40.7277870779732 0.00560000000363975
vertex 5.80670000000063 -12.2386644464016 0.00559999999850355
vertex 2.80670000000063 -12.2386644464016 0.00559999999850355
endloop
endfacet
facet normal 0.0 1.59321268776067e-013 -1.0
outer loop
vertex 5.80670000000063 -12.2386644464016 0.00559999999850355
vertex 2.80670000000124 40.7277870779732 0.00560000000363975
vertex 5.80670000000124 40.7277870779732 0.00560000000363975
endloop
endfacet
facet normal -1.18242762425494e-029 1.05852100592585e-013 -1.0
outer loop
vertex 21.3514999999996 40.7277870779726 0.00560000000402256
vertex 24.351499999999 -12.2386644464022 0.00559999999888601
vertex 21.3514999999991 -12.2386644464022 0.00559999999888601
endloop
endfacet
facet normal -1.18242762425494e-029 1.05852100592585e-013 -1.0
outer loop
vertex 24.351499999999 -12.2386644464022 0.00559999999888601
vertex 21.3514999999996 40.7277870779726 0.00560000000402256
vertex 24.3514999999996 40.7277870779726 0.00560000000402256
endloop
endfacet
facet normal 1.2851398953873e-014 1.0 6.21348547000091e-014
outer loop
vertex 3.01650000000074 40.7277870779725 11.0800000000073
vertex 24.4021333333321 40.7277870779725 9.90000000000379
vertex 2.75606666666671 40.7277870779729 9.90000000000379
endloop
endfacet
facet normal 1.2851398953873e-014 1.0 6.21348547000091e-014
outer loop
vertex 24.4021333333321 40.7277870779725 9.90000000000379
vertex 3.01650000000074 40.7277870779725 11.0800000000073
vertex 24.1416999999984 40.7277870779723 11.0800000000073
endloop
endfacet
facet normal 1.2851398953873e-014 1.0 6.21348547000091e-014
outer loop
vertex 24.1416999999984 40.7277870779723 11.0800000000073
vertex 3.01650000000074 40.7277870779725 11.0800000000073
vertex 13.5790999999992 40.7277870779729 11.0800000000073
endloop
endfacet
facet normal -0.976499533223345 -2.32408107735197e-014 0.215519515623502
outer loop
vertex 3.01650000000074 40.7277870779725 11.0800000000073
vertex 2.23519999999971 -12.2386644464013 7.53999999999925
vertex 3.01649999999936 -12.2386644464017 11.0799999999986
endloop
endfacet
facet normal -0.976499533223345 -2.32408107735197e-014 0.215519515623502
outer loop
vertex 2.23519999999971 -12.2386644464013 7.53999999999925
vertex 3.01650000000074 40.7277870779725 11.0800000000073
vertex 2.23520000000032 40.7277870779735 7.54000000000443
endloop
endfacet
facet normal -0.976499533223345 -2.32408107735197e-014 0.215519515623502
outer loop
vertex 2.23520000000032 40.7277870779735 7.54000000000443
vertex 3.01650000000074 40.7277870779725 11.0800000000073
vertex 2.75606666666671 40.7277870779729 9.90000000000379
endloop
endfacet
facet normal 3.38659750734423e-015 2.77823567855035e-013 -1.0
outer loop
vertex 3.01650000000074 40.7277870779725 11.0800000000073
vertex 13.5790999999989 -12.2386644464018 11.0799999999986
vertex 3.01649999999936 -12.2386644464017 11.0799999999986
endloop
endfacet
facet normal 3.38659750734423e-015 2.77823567855035e-013 -1.0
outer loop
vertex 13.5790999999989 -12.2386644464018 11.0799999999986
vertex 3.01650000000074 40.7277870779725 11.0800000000073
vertex 13.5790999999992 40.7277870779729 11.0800000000073
endloop
endfacet
facet normal 1.0 -1.08093725572053e-014 8.6107537595176e-030
outer loop
vertex 24.3514999999996 40.7277870779726 0.00560000000402256
vertex 24.351499999999 -12.238664446402 1.54559999999889
vertex 24.351499999999 -12.2386644464022 0.00559999999888601
endloop
endfacet
facet normal 1.0 -1.08093725572053e-014 8.6107537595176e-030
outer loop
vertex 24.351499999999 -12.238664446402 1.54559999999889
vertex 24.3514999999996 40.7277870779726 0.00560000000402256
vertex 24.3514999999996 40.7277870779728 1.545600000004
endloop
endfacet
facet normal 0.684804966468766 1.08699301735322e-013 -0.72872639440308
outer loop
vertex 24.3514999999996 40.7277870779728 1.545600000004
vertex 27.1581999999991 -12.238664446402 4.18313599999833
vertex 24.351499999999 -12.238664446402 1.54559999999889
endloop
endfacet
facet normal 0.684804966468766 1.08699301735322e-013 -0.72872639440308
outer loop
vertex 27.1581999999991 -12.238664446402 4.18313599999833
vertex 24.3514999999996 40.7277870779728 1.545600000004
vertex 27.1581999999996 40.7277870779728 4.18313600000351
endloop
endfacet
facet normal 1.0 -1.08093725568056e-014 -2.50897858672418e-012
outer loop
vertex 27.1581999999991 -12.238664446402 4.18313599999833
vertex 27.1582000000015 40.7277870779721 4.90246400000332
vertex 27.1582000000009 -12.2386644464027 4.90246399999815
endloop
endfacet
facet normal 1.0 -1.08093725568056e-014 -2.50897858672418e-012
outer loop
vertex 27.1582000000015 40.7277870779721 4.90246400000332
vertex 27.1581999999991 -12.238664446402 4.18313599999833
vertex 27.1581999999996 40.7277870779728 4.18313600000351
endloop
endfacet
facet normal 0.762895600573496 -1.11251079571568e-013 0.6465216954021
outer loop
vertex 27.1582000000015 40.7277870779721 4.90246400000332
vertex 24.9229999999982 -12.238664446402 7.53999999999798
vertex 27.1582000000009 -12.2386644464027 4.90246399999815
endloop
endfacet
facet normal 0.762895600573496 -1.11251079571568e-013 0.6465216954021
outer loop
vertex 24.9229999999982 -12.238664446402 7.53999999999798
vertex 27.1582000000015 40.7277870779721 4.90246400000332
vertex 24.9229999999987 40.7277870779728 7.54000000000315
endloop
endfacet
facet normal -0.689489795828719 2.18163700164102e-013 -0.724295396539334
outer loop
vertex 2.7560666666672 58.1622870779815 9.90000000000869
vertex 5.23520000000032 40.7277870779735 7.54000000000443
vertex 2.75606666666671 40.7277870779729 9.90000000000379
endloop
endfacet
facet normal -0.689489795828719 2.18163700164102e-013 -0.724295396539334
outer loop
vertex 5.23520000000032 40.7277870779735 7.54000000000443
vertex 2.7560666666672 58.1622870779815 9.90000000000869
vertex 5.23520000000081 58.1622870779821 7.54000000000933
endloop
endfacet
facet normal 0.689489795828947 1.80713926203276e-013 -0.724295396539117
outer loop
vertex 21.9229999999988 58.1622870779814 7.54000000000805
vertex 24.4021333333321 40.7277870779725 9.90000000000379
vertex 21.9229999999987 40.7277870779728 7.54000000000315
endloop
endfacet
facet normal 0.689489795828947 1.80713926203276e-013 -0.724295396539117
outer loop
vertex 24.4021333333321 40.7277870779725 9.90000000000379
vertex 21.9229999999988 58.1622870779814 7.54000000000805
vertex 24.4021333333322 58.1622870779811 9.90000000000869
endloop
endfacet
facet normal -3.32132127356388e-013 7.10309859710934e-013 -1.0
outer loop
vertex 17.5790999999993 53.2616870779816 5.86156800000051
vertex 9.57909999999934 48.1546870779809 5.86156799999953
vertex 9.57909999999934 53.2616870779816 5.86156800000051
endloop
endfacet
facet normal -3.32132127356388e-013 7.10309859710934e-013 -1.0
outer loop
vertex 9.57909999999934 48.1546870779809 5.86156799999953
vertex 17.5790999999993 53.2616870779816 5.86156800000051
vertex 17.5790999999993 48.1546870779809 5.86156799999421
endloop
endfacet
facet normal -1.0 -4.77211301485235e-026 2.38576981683238e-013
outer loop
vertex 9.57909999999974 53.2616870779807 7.54000000000571
vertex 9.57909999999934 48.1546870779809 5.86156799999953
vertex 9.57909999999974 48.15468707798 7.54000000000472
endloop
endfacet
facet normal -1.0 -4.77211301485235e-026 2.38576981683238e-013
outer loop
vertex 9.57909999999934 48.1546870779809 5.86156799999953
vertex 9.57909999999974 53.2616870779807 7.54000000000571
vertex 9.57909999999934 53.2616870779816 5.86156800000051
endloop
endfacet
facet normal 1.0 2.9115122111067e-025 -2.38532122490943e-013
outer loop
vertex 17.5790999999993 48.1546870779809 5.86156799999421
vertex 17.5790999999997 53.2616870779807 7.54000000000571
vertex 17.5790999999997 48.15468707798 7.53999999999941
endloop
endfacet
facet normal 1.0 2.9115122111067e-025 -2.38532122490943e-013
outer loop
vertex 17.5790999999997 53.2616870779807 7.54000000000571
vertex 17.5790999999993 48.1546870779809 5.86156799999421
vertex 17.5790999999993 53.2616870779816 5.86156800000051
endloop
endfacet
facet normal -3.38863436926188e-025 -1.0 -5.10133481550517e-013
outer loop
vertex 17.5790999999997 48.15468707798 7.53999999999941
vertex 9.57909999999934 48.1546870779809 5.86156799999953
vertex 17.5790999999993 48.1546870779809 5.86156799999421
endloop
endfacet
facet normal -3.38863436926188e-025 -1.0 -5.10133481550517e-013
outer loop
vertex 9.57909999999934 48.1546870779809 5.86156799999953
vertex 17.5790999999997 48.15468707798 7.53999999999941
vertex 9.57909999999974 48.15468707798 7.54000000000472
endloop
endfacet
facet normal -4.84275702095404e-027 -2.75355627188348e-013 1.0
outer loop
vertex 24.4021333333321 40.7277870779725 9.90000000000379
vertex 2.7560666666672 58.1622870779815 9.90000000000869
vertex 2.75606666666671 40.7277870779729 9.90000000000379
endloop
endfacet
facet normal -4.84275702095404e-027 -2.75355627188348e-013 1.0
outer loop
vertex 2.7560666666672 58.1622870779815 9.90000000000869
vertex 24.4021333333321 40.7277870779725 9.90000000000379
vertex 24.4021333333322 58.1622870779811 9.90000000000869
endloop
endfacet
facet normal -1.0 1.08093725572053e-014 2.15268843987916e-027
outer loop
vertex 2.80670000000124 40.7277870779728 1.54560000000399
vertex 2.80670000000063 -12.2386644464016 0.00559999999850355
vertex 2.80670000000063 -12.238664446402 1.54559999999888
endloop
endfacet
facet normal -1.0 1.08093725572053e-014 2.15268843987916e-027
outer loop
vertex 2.80670000000063 -12.2386644464016 0.00559999999850355
vertex 2.80670000000124 40.7277870779728 1.54560000000399
vertex 2.80670000000124 40.7277870779732 0.00560000000363975
endloop
endfacet
facet normal -0.684804966468673 1.23503925758506e-013 -0.728726394403167
outer loop
vertex 4.73754369068047e-013 40.7277870779728 4.18313600000351
vertex 2.80670000000063 -12.238664446402 1.54559999999888
vertex -1.42909769758101e-013 -12.238664446402 4.18313599999833
endloop
endfacet
facet normal -0.684804966468673 1.23503925758506e-013 -0.728726394403167
outer loop
vertex 2.80670000000063 -12.238664446402 1.54559999999888
vertex 4.73754369068047e-013 40.7277870779728 4.18313600000351
vertex 2.80670000000124 40.7277870779728 1.54560000000399
endloop
endfacet
facet normal -1.0 1.08093725572053e-014 1.08481937127808e-026
outer loop
vertex 4.73754369068047e-013 40.7277870779721 4.90246400000332
vertex -1.42909769758101e-013 -12.238664446402 4.18313599999833
vertex -1.42909769758101e-013 -12.2386644464027 4.90246399999815
endloop
endfacet
facet normal -1.0 1.08093725572053e-014 1.08481937127808e-026
outer loop
vertex -1.42909769758101e-013 -12.238664446402 4.18313599999833
vertex 4.73754369068047e-013 40.7277870779721 4.90246400000332
vertex 4.73754369068047e-013 40.7277870779728 4.18313600000351
endloop
endfacet
facet normal 1.0 -1.08093725572053e-014 -1.08481937127808e-026
outer loop
vertex 2.99999999999986 -12.238664446402 4.18313599999833
vertex 3.00000000000047 40.7277870779721 4.90246400000332
vertex 2.99999999999986 -12.2386644464027 4.90246399999815
endloop
endfacet
facet normal 1.0 -1.08093725572053e-014 -1.08481937127808e-026
outer loop
vertex 3.00000000000047 40.7277870779721 4.90246400000332
vertex 2.99999999999986 -12.238664446402 4.18313599999833
vertex 3.00000000000047 40.7277870779728 4.18313600000351
endloop
endfacet
facet normal 0.762895600573862 -1.11251079571503e-013 0.646521695401667
outer loop
vertex 5.23519999999971 -12.238664446402 1.54559999999888
vertex 3.00000000000047 40.7277870779728 4.18313600000351
vertex 2.99999999999986 -12.238664446402 4.18313599999833
endloop
endfacet
facet normal 0.762895600573862 -1.11251079571503e-013 0.646521695401667
outer loop
vertex 3.00000000000047 40.7277870779728 4.18313600000351
vertex 5.23519999999971 -12.238664446402 1.54559999999888
vertex 5.23520000000032 40.7277870779728 1.54560000000399
endloop
endfacet
facet normal -7.65699021184389e-014 2.00174982108387e-013 -1.0
outer loop
vertex 21.9229999999988 58.1622870779814 7.54000000000805
vertex 9.57909999999974 53.2616870779807 7.54000000000571
vertex 5.23520000000081 58.1622870779821 7.54000000000933
endloop
endfacet
facet normal -7.65699021184389e-014 2.00174982108387e-013 -1.0
outer loop
vertex 9.57909999999974 53.2616870779807 7.54000000000571
vertex 21.9229999999988 58.1622870779814 7.54000000000805
vertex 17.5790999999997 53.2616870779807 7.54000000000571
endloop
endfacet
facet normal -7.65699021184389e-014 2.00174982108387e-013 -1.0
outer loop
vertex 17.5790999999997 53.2616870779807 7.54000000000571
vertex 21.9229999999988 58.1622870779814 7.54000000000805
vertex 17.5790999999997 48.15468707798 7.53999999999941
endloop
endfacet
facet normal -7.65699021184389e-014 2.00174982108387e-013 -1.0
outer loop
vertex 17.5790999999997 48.15468707798 7.53999999999941
vertex 21.9229999999988 58.1622870779814 7.54000000000805
vertex 21.9229999999982 -12.238664446402 7.53999999999798
endloop
endfacet
facet normal -7.65699021184389e-014 2.00174982108387e-013 -1.0
outer loop
vertex 21.9229999999982 -12.238664446402 7.53999999999798
vertex 21.9229999999988 58.1622870779814 7.54000000000805
vertex 21.9229999999987 40.7277870779728 7.54000000000315
endloop
endfacet
facet normal -7.65699021184389e-014 2.00174982108387e-013 -1.0
outer loop
vertex 5.23520000000032 40.7277870779735 7.54000000000443
vertex 21.9229999999982 -12.238664446402 7.53999999999798
vertex 5.23519999999971 -12.2386644464013 7.53999999999925
endloop
endfacet
facet normal -7.65699021184389e-014 2.00174982108387e-013 -1.0
outer loop
vertex 21.9229999999982 -12.238664446402 7.53999999999798
vertex 5.23520000000032 40.7277870779735 7.54000000000443
vertex 5.23520000000081 58.1622870779821 7.54000000000933
endloop
endfacet
facet normal -7.65699021184389e-014 2.00174982108387e-013 -1.0
outer loop
vertex 21.9229999999982 -12.238664446402 7.53999999999798
vertex 5.23520000000081 58.1622870779821 7.54000000000933
vertex 9.57909999999974 48.15468707798 7.54000000000472
endloop
endfacet
facet normal -7.65699021184389e-014 2.00174982108387e-013 -1.0
outer loop
vertex 9.57909999999974 48.15468707798 7.54000000000472
vertex 5.23520000000081 58.1622870779821 7.54000000000933
vertex 9.57909999999974 53.2616870779807 7.54000000000571
endloop
endfacet
facet normal -7.65699021184389e-014 2.00174982108387e-013 -1.0
outer loop
vertex 21.9229999999982 -12.238664446402 7.53999999999798
vertex 9.57909999999974 48.15468707798 7.54000000000472
vertex 17.5790999999997 48.15468707798 7.53999999999941
endloop
endfacet
facet normal -1.0 1.08093725568056e-014 2.50897858672418e-012
outer loop
vertex 24.1582000000015 40.7277870779721 4.90246400000332
vertex 24.1581999999991 -12.238664446402 4.18313599999833
vertex 24.1582000000009 -12.2386644464027 4.90246399999815
endloop
endfacet
facet normal -1.0 1.08093725568056e-014 2.50897858672418e-012
outer loop
vertex 24.1581999999991 -12.238664446402 4.18313599999833
vertex 24.1582000000015 40.7277870779721 4.90246400000332
vertex 24.1581999999997 40.7277870779728 4.18313600000351
endloop
endfacet
facet normal -0.762895600573739 -9.47582340338165e-014 0.646521695401813
outer loop
vertex 24.1581999999997 40.7277870779728 4.18313600000351
vertex 21.9229999999982 -12.238664446402 1.54559999999862
vertex 24.1581999999991 -12.238664446402 4.18313599999833
endloop
endfacet
facet normal -0.762895600573739 -9.47582340338165e-014 0.646521695401813
outer loop
vertex 21.9229999999982 -12.238664446402 1.54559999999862
vertex 24.1581999999997 40.7277870779728 4.18313600000351
vertex 21.9229999999987 40.7277870779728 1.54560000000374
endloop
endfacet
facet normal 4.59977734914296e-013 -1.59321268776072e-013 1.0
outer loop
vertex 21.9229999999982 -12.238664446402 1.54559999999862
vertex 21.3514999999996 40.7277870779728 1.545600000004
vertex 21.3514999999991 -12.238664446402 1.54559999999889
endloop
endfacet
facet normal 4.59977734914296e-013 -1.59321268776072e-013 1.0
outer loop
vertex 21.3514999999996 40.7277870779728 1.545600000004
vertex 21.9229999999982 -12.238664446402 1.54559999999862
vertex 21.9229999999987 40.7277870779728 1.54560000000374
endloop
endfacet
facet normal -1.0 1.08093725572053e-014 -8.6107537595176e-030
outer loop
vertex 21.3514999999991 -12.238664446402 1.54559999999889
vertex 21.3514999999996 40.7277870779726 0.00560000000402256
vertex 21.3514999999991 -12.2386644464022 0.00559999999888601
endloop
endfacet
facet normal -1.0 1.08093725572053e-014 -8.6107537595176e-030
outer loop
vertex 21.3514999999996 40.7277870779726 0.00560000000402256
vertex 21.3514999999991 -12.238664446402 1.54559999999889
vertex 21.3514999999996 40.7277870779728 1.545600000004
endloop
endfacet
facet normal 4.91406478669106e-014 1.0 1.78202204226903e-014
outer loop
vertex 21.3514999999996 40.7277870779728 1.545600000004
vertex 24.3514999999996 40.7277870779726 0.00560000000402256
vertex 21.3514999999996 40.7277870779726 0.00560000000402256
endloop
endfacet
facet normal 4.91406478669106e-014 1.0 1.78202204226903e-014
outer loop
vertex 24.3514999999996 40.7277870779726 0.00560000000402256
vertex 21.3514999999996 40.7277870779728 1.545600000004
vertex 21.9229999999987 40.7277870779728 1.54560000000374
endloop
endfacet
facet normal 4.91406478669106e-014 1.0 1.78202204226903e-014
outer loop
vertex 21.9229999999987 40.7277870779728 1.54560000000374
vertex 24.3514999999996 40.7277870779728 1.545600000004
vertex 24.3514999999996 40.7277870779726 0.00560000000402256
endloop
endfacet
facet normal 4.91406478669106e-014 1.0 1.78202204226903e-014
outer loop
vertex 24.3514999999996 40.7277870779728 1.545600000004
vertex 21.9229999999987 40.7277870779728 1.54560000000374
vertex 24.1581999999997 40.7277870779728 4.18313600000351
endloop
endfacet
facet normal 4.91406478669106e-014 1.0 1.78202204226903e-014
outer loop
vertex 24.3514999999996 40.7277870779728 1.545600000004
vertex 24.1581999999997 40.7277870779728 4.18313600000351
vertex 27.1581999999996 40.7277870779728 4.18313600000351
endloop
endfacet
facet normal 4.91406478669106e-014 1.0 1.78202204226903e-014
outer loop
vertex 27.1581999999996 40.7277870779728 4.18313600000351
vertex 24.1581999999997 40.7277870779728 4.18313600000351
vertex 24.1582000000015 40.7277870779721 4.90246400000332
endloop
endfacet
facet normal 4.91406478669106e-014 1.0 1.78202204226903e-014
outer loop
vertex 27.1581999999996 40.7277870779728 4.18313600000351
vertex 24.1582000000015 40.7277870779721 4.90246400000332
vertex 27.1582000000015 40.7277870779721 4.90246400000332
endloop
endfacet
facet normal 4.91406478669106e-014 1.0 1.78202204226903e-014
outer loop
vertex 27.1582000000015 40.7277870779721 4.90246400000332
vertex 24.1582000000015 40.7277870779721 4.90246400000332
vertex 21.9229999999987 40.7277870779728 7.54000000000315
endloop
endfacet
facet normal 4.91406478669106e-014 1.0 1.78202204226903e-014
outer loop
vertex 27.1582000000015 40.7277870779721 4.90246400000332
vertex 21.9229999999987 40.7277870779728 7.54000000000315
vertex 24.9229999999987 40.7277870779728 7.54000000000315
endloop
endfacet
facet normal 4.91406478669106e-014 1.0 1.78202204226903e-014
outer loop
vertex 24.9229999999987 40.7277870779728 7.54000000000315
vertex 21.9229999999987 40.7277870779728 7.54000000000315
vertex 24.4021333333321 40.7277870779725 9.90000000000379
endloop
endfacet
facet normal 0.762895600574062 9.47582340337521e-014 -0.646521695401431
outer loop
vertex 3.00000000000047 40.7277870779721 4.90246400000332
vertex 5.23519999999971 -12.2386644464013 7.53999999999925
vertex 2.99999999999986 -12.2386644464027 4.90246399999815
endloop
endfacet
facet normal 0.762895600574062 9.47582340337521e-014 -0.646521695401431
outer loop
vertex 5.23519999999971 -12.2386644464013 7.53999999999925
vertex 3.00000000000047 40.7277870779721 4.90246400000332
vertex 5.23520000000032 40.7277870779735 7.54000000000443
endloop
endfacet
facet normal -0.762895600573496 1.11251079571568e-013 -0.6465216954021
outer loop
vertex 21.9229999999982 -12.238664446402 7.53999999999798
vertex 24.1582000000015 40.7277870779721 4.90246400000332
vertex 24.1582000000009 -12.2386644464027 4.90246399999815
endloop
endfacet
facet normal -0.762895600573496 1.11251079571568e-013 -0.6465216954021
outer loop
vertex 24.1582000000015 40.7277870779721 4.90246400000332
vertex 21.9229999999982 -12.238664446402 7.53999999999798
vertex 21.9229999999987 40.7277870779728 7.54000000000315
endloop
endfacet
facet normal 2.71575984063321e-014 1.0 1.97756124093901e-013
outer loop
vertex 5.23520000000081 58.1622870779821 7.54000000000933
vertex 24.4021333333322 58.1622870779811 9.90000000000869
vertex 21.9229999999988 58.1622870779814 7.54000000000805
endloop
endfacet
facet normal 2.71575984063321e-014 1.0 1.97756124093901e-013
outer loop
vertex 24.4021333333322 58.1622870779811 9.90000000000869
vertex 5.23520000000081 58.1622870779821 7.54000000000933
vertex 2.7560666666672 58.1622870779815 9.90000000000869
endloop
endfacet
facet normal 1.2042585272155e-030 1.0 5.27557551046033e-013
outer loop
vertex 9.57909999999974 53.2616870779807 7.54000000000571
vertex 17.5790999999993 53.2616870779816 5.86156800000051
vertex 9.57909999999934 53.2616870779816 5.86156800000051
endloop
endfacet
facet normal 1.2042585272155e-030 1.0 5.27557551046033e-013
outer loop
vertex 17.5790999999993 53.2616870779816 5.86156800000051
vertex 9.57909999999974 53.2616870779807 7.54000000000571
vertex 17.5790999999997 53.2616870779807 7.54000000000571
endloop
endfacet
facet normal -1.16621550563327e-014 -1.0 -1.18399745529098e-014
outer loop
vertex 24.351499999999 -12.238664446402 1.54559999999889
vertex 21.3514999999991 -12.2386644464022 0.00559999999888601
vertex 24.351499999999 -12.2386644464022 0.00559999999888601
endloop
endfacet
facet normal -1.16621550563327e-014 -1.0 -1.18399745529098e-014
outer loop
vertex 21.3514999999991 -12.2386644464022 0.00559999999888601
vertex 24.351499999999 -12.238664446402 1.54559999999889
vertex 21.9229999999982 -12.238664446402 1.54559999999862
endloop
endfacet
facet normal -1.16621550563327e-014 -1.0 -1.18399745529098e-014
outer loop
vertex 21.9229999999982 -12.238664446402 1.54559999999862
vertex 24.351499999999 -12.238664446402 1.54559999999889
vertex 24.1581999999991 -12.238664446402 4.18313599999833
endloop
endfacet
facet normal -1.16621550563327e-014 -1.0 -1.18399745529098e-014
outer loop
vertex 24.1581999999991 -12.238664446402 4.18313599999833
vertex 24.351499999999 -12.238664446402 1.54559999999889
vertex 27.1581999999991 -12.238664446402 4.18313599999833
endloop
endfacet
facet normal -1.16621550563327e-014 -1.0 -1.18399745529098e-014
outer loop
vertex 24.1581999999991 -12.238664446402 4.18313599999833
vertex 27.1581999999991 -12.238664446402 4.18313599999833
vertex 27.1582000000009 -12.2386644464027 4.90246399999815
endloop
endfacet
facet normal -1.16621550563327e-014 -1.0 -1.18399745529098e-014
outer loop
vertex 24.1581999999991 -12.238664446402 4.18313599999833
vertex 27.1582000000009 -12.2386644464027 4.90246399999815
vertex 24.1582000000009 -12.2386644464027 4.90246399999815
endloop
endfacet
facet normal -1.16621550563327e-014 -1.0 -1.18399745529098e-014
outer loop
vertex 24.1582000000009 -12.2386644464027 4.90246399999815
vertex 27.1582000000009 -12.2386644464027 4.90246399999815
vertex 24.9229999999982 -12.238664446402 7.53999999999798
endloop
endfacet
facet normal -1.16621550563327e-014 -1.0 -1.18399745529098e-014
outer loop
vertex 24.1582000000009 -12.2386644464027 4.90246399999815
vertex 24.9229999999982 -12.238664446402 7.53999999999798
vertex 21.9229999999982 -12.238664446402 7.53999999999798
endloop
endfacet
facet normal -1.16621550563327e-014 -1.0 -1.18399745529098e-014
outer loop
vertex 21.9229999999982 -12.238664446402 7.53999999999798
vertex 24.9229999999982 -12.238664446402 7.53999999999798
vertex 24.1416999999983 -12.2386644464021 11.0799999999986
endloop
endfacet
facet normal -1.16621550563327e-014 -1.0 -1.18399745529098e-014
outer loop
vertex 21.9229999999982 -12.238664446402 7.53999999999798
vertex 24.1416999999983 -12.2386644464021 11.0799999999986
vertex 5.23519999999971 -12.2386644464013 7.53999999999925
endloop
endfacet
facet normal -1.16621550563327e-014 -1.0 -1.18399745529098e-014
outer loop
vertex 5.23519999999971 -12.2386644464013 7.53999999999925
vertex 24.1416999999983 -12.2386644464021 11.0799999999986
vertex 2.23519999999971 -12.2386644464013 7.53999999999925
endloop
endfacet
facet normal -1.16621550563327e-014 -1.0 -1.18399745529098e-014
outer loop
vertex 2.23519999999971 -12.2386644464013 7.53999999999925
vertex 24.1416999999983 -12.2386644464021 11.0799999999986
vertex 3.01649999999936 -12.2386644464017 11.0799999999986
endloop
endfacet
facet normal -1.16621550563327e-014 -1.0 -1.18399745529098e-014
outer loop
vertex 3.01649999999936 -12.2386644464017 11.0799999999986
vertex 24.1416999999983 -12.2386644464021 11.0799999999986
vertex 13.5790999999989 -12.2386644464018 11.0799999999986
endloop
endfacet
facet normal -1.16621550563327e-014 -1.0 -1.18399745529098e-014
outer loop
vertex 5.80670000000063 -12.238664446402 1.5455999999985
vertex 2.80670000000063 -12.2386644464016 0.00559999999850355
vertex 5.80670000000063 -12.2386644464016 0.00559999999850355
endloop
endfacet
facet normal -1.16621550563327e-014 -1.0 -1.18399745529098e-014
outer loop
vertex 2.80670000000063 -12.2386644464016 0.00559999999850355
vertex 5.80670000000063 -12.238664446402 1.5455999999985
vertex 2.80670000000063 -12.238664446402 1.54559999999888
endloop
endfacet
facet normal -1.16621550563327e-014 -1.0 -1.18399745529098e-014
outer loop
vertex 2.80670000000063 -12.238664446402 1.54559999999888
vertex 5.80670000000063 -12.238664446402 1.5455999999985
vertex 5.23519999999971 -12.238664446402 1.54559999999888
endloop
endfacet
facet normal -1.16621550563327e-014 -1.0 -1.18399745529098e-014
outer loop
vertex 2.80670000000063 -12.238664446402 1.54559999999888
vertex 5.23519999999971 -12.238664446402 1.54559999999888
vertex 2.99999999999986 -12.238664446402 4.18313599999833
endloop
endfacet
facet normal -1.16621550563327e-014 -1.0 -1.18399745529098e-014
outer loop
vertex 2.80670000000063 -12.238664446402 1.54559999999888
vertex 2.99999999999986 -12.238664446402 4.18313599999833
vertex -1.42909769758101e-013 -12.238664446402 4.18313599999833
endloop
endfacet
facet normal -1.16621550563327e-014 -1.0 -1.18399745529098e-014
outer loop
vertex -1.42909769758101e-013 -12.238664446402 4.18313599999833
vertex 2.99999999999986 -12.238664446402 4.18313599999833
vertex 2.99999999999986 -12.2386644464027 4.90246399999815
endloop
endfacet
facet normal -1.16621550563327e-014 -1.0 -1.18399745529098e-014
outer loop
vertex -1.42909769758101e-013 -12.238664446402 4.18313599999833
vertex 2.99999999999986 -12.2386644464027 4.90246399999815
vertex -1.42909769758101e-013 -12.2386644464027 4.90246399999815
endloop
endfacet
facet normal -1.16621550563327e-014 -1.0 -1.18399745529098e-014
outer loop
vertex -1.42909769758101e-013 -12.2386644464027 4.90246399999815
vertex 2.99999999999986 -12.2386644464027 4.90246399999815
vertex 5.23519999999971 -12.2386644464013 7.53999999999925
endloop
endfacet
facet normal -1.16621550563327e-014 -1.0 -1.18399745529098e-014
outer loop
vertex -1.42909769758101e-013 -12.2386644464027 4.90246399999815
vertex 5.23519999999971 -12.2386644464013 7.53999999999925
vertex 2.23519999999971 -12.2386644464013 7.53999999999925
endloop
endfacet
facet normal -1.16621550563327e-014 -1.0 -1.18399745529098e-014
outer loop
vertex 21.3514999999991 -12.238664446402 1.54559999999889
vertex 21.3514999999991 -12.2386644464022 0.00559999999888601
vertex 21.9229999999982 -12.238664446402 1.54559999999862
endloop
endfacet
facet normal -1.04015464006638e-013 1.0 6.5208003486878e-015
outer loop
vertex 2.80670000000124 40.7277870779728 1.54560000000399
vertex 5.80670000000124 40.7277870779732 0.00560000000363975
vertex 2.80670000000124 40.7277870779732 0.00560000000363975
endloop
endfacet
facet normal -1.04015464006638e-013 1.0 6.5208003486878e-015
outer loop
vertex 5.80670000000124 40.7277870779732 0.00560000000363975
vertex 2.80670000000124 40.7277870779728 1.54560000000399
vertex 5.80670000000124 40.7277870779728 1.54560000000362
endloop
endfacet
facet normal -1.04015464006638e-013 1.0 6.5208003486878e-015
outer loop
vertex 5.80670000000124 40.7277870779728 1.54560000000362
vertex 2.80670000000124 40.7277870779728 1.54560000000399
vertex 5.23520000000032 40.7277870779728 1.54560000000399
endloop
endfacet
facet normal -1.04015464006638e-013 1.0 6.5208003486878e-015
outer loop
vertex 5.23520000000032 40.7277870779728 1.54560000000399
vertex 2.80670000000124 40.7277870779728 1.54560000000399
vertex 4.73754369068047e-013 40.7277870779728 4.18313600000351
endloop
endfacet
facet normal -1.04015464006638e-013 1.0 6.5208003486878e-015
outer loop
vertex 5.23520000000032 40.7277870779728 1.54560000000399
vertex 4.73754369068047e-013 40.7277870779728 4.18313600000351
vertex 3.00000000000047 40.7277870779728 4.18313600000351
endloop
endfacet
facet normal -1.04015464006638e-013 1.0 6.5208003486878e-015
outer loop
vertex 3.00000000000047 40.7277870779728 4.18313600000351
vertex 4.73754369068047e-013 40.7277870779728 4.18313600000351
vertex 4.73754369068047e-013 40.7277870779721 4.90246400000332
endloop
endfacet
facet normal -1.04015464006638e-013 1.0 6.5208003486878e-015
outer loop
vertex 3.00000000000047 40.7277870779728 4.18313600000351
vertex 4.73754369068047e-013 40.7277870779721 4.90246400000332
vertex 3.00000000000047 40.7277870779721 4.90246400000332
endloop
endfacet
facet normal -1.04015464006638e-013 1.0 6.5208003486878e-015
outer loop
vertex 3.00000000000047 40.7277870779721 4.90246400000332
vertex 4.73754369068047e-013 40.7277870779721 4.90246400000332
vertex 2.23520000000032 40.7277870779735 7.54000000000443
endloop
endfacet
facet normal -1.04015464006638e-013 1.0 6.5208003486878e-015
outer loop
vertex 3.00000000000047 40.7277870779721 4.90246400000332
vertex 2.23520000000032 40.7277870779735 7.54000000000443
vertex 5.23520000000032 40.7277870779735 7.54000000000443
endloop
endfacet
facet normal -1.04015464006638e-013 1.0 6.5208003486878e-015
outer loop
vertex 5.23520000000032 40.7277870779735 7.54000000000443
vertex 2.23520000000032 40.7277870779735 7.54000000000443
vertex 2.75606666666671 40.7277870779729 9.90000000000379
endloop
endfacet
endsolid Laser_Sight_Bottom
